<?xml version="1.0" encoding="UTF-8"?>
<svg id="Layer_1" data-name="Layer 1" xmlns="http://www.w3.org/2000/svg" width="1868.64" height="437.31" viewBox="0 0 1868.64 437.31">
  <defs>
    <style>
      .cls-1 {
        fill: #231f20;
      }
    </style>
  </defs>
  <g>
    <path class="cls-1" d="M476.96,214.39l-13.32,1.25,20.23,64.69-10.21.95c-49.46,4.58-95.62,24.36-136.23,55.02,5.5-8.9,12.86-15.02,20-21.21,25.41-22.01,55.67-37.74,88.01-46.77l20.75-5.8-65.62-206.07-8.91.87,63.33,198.35c-28.76,6.77-55.08,18.41-79.47,33.71l-28.01,21.53c-8.22,8.84-14.75,18.71-22.29,28.93,4.82-13.18,13.38-23.52,22.34-33.29l7.8-8.51,13.83-13.82c20.35-18.7,44-32.94,70.97-43.23L371.54,24.82c-13.94,5.99-26.54,13.26-39,21.01l-2.55,1.82-17.67,13.96-4.02,3.22-1.77,1.8-8.4,8.16-11.05,11.88-5.48,6.42-2.27,2.9-12.28,18.24-6.09,8.77-5.87,10.63-4.02,8.88,11.44,35.31,8.5-1.9-9.21-28.22c-1.34-4.11-.22-6.83,1.82-10.45l9-15.93,17.79-24.43c.94-1.33,6.29-7.32,8.13-9.24l7.77-8.12,16.34-14.69c12.44-11.18,27.17-19.57,43.12-27.38l62.86,197.29c-27.66,12.01-52.53,28.23-73.07,49.44l-.37.37-4.27,4.34c-12.55,12.73-21.39,28.21-29.49,44.92l-17.8-55.86-3.74-.55-5.08,1.97,19.68,61.41-1.07,10.77-6.92-8.28-19.81-62.61-8.91.72,19,60.21c-20.51-11.43-41.48-18.71-63.76-21.24l-1.08-.06s-4.61-1.03-5.28-1.07l-14.02-.96-24,.07c-12.19.04-23.67,2.16-36.72,4.62l-63-197.41c23.58-3.62,46.41-3.86,69.02-.85,23.43,3.12,46.01,10.16,67.45,20.12l10.86,5.61,8.88,28.52,9.33-.47-11.12-34.48-13.59-6.39c-2.78-1.52-5.62-3.47-8.73-4.63-17.61-6.56-35.17-12.82-53.3-15.16l-20.81-3.36-7.54-.56c-20.95-1.56-40.97.24-62.19,4.61l68.69,215.9c11.51-2.4,22.82-5.38,34.31-5.87l27.92-1.19,16.04,1.25,3.67.74,9.58,1.28,3.86.69,24.35,5.09c12.16,2.54,24.55,6.27,35,14.25-12.11-4.51-23.26-8.95-35.11-11.78l-2.12-.09-21.9-2-4.51-.31-2.37.08-4.89.17-1.78.22-3.27.14c-28.05,1.76-55.51,7.31-82.07,17.88l-62.64-197.78-7.84,3.52-.47,1.34,65.29,205.41,18.77-6.88c29.89-10.96,67.83-16.17,99.68-13.17,8.83,1.86,18.07.79,27.59,5.9-50.16-1.8-99.58,9.06-142.8,34.48l-7.51,3.88s-18.75-58.63-21.42-63.96l-10.55,6.77,24.03,75.14,12.53-8.06,10.66-6.3c37.53-20.62,79.26-31.64,122.49-31.68,16.64-.02,32.23,1.33,48.56,5.14,40.26-44.42,95.97-69.92,154.63-77.2l3.13-.31,21.61-1.43.69-.15c.43-.39,1.57-1.67,1.32-2.36l-23.37-72.9Z"/>
    <path class="cls-1" d="M204.78,157.54l-7.07-1.64c-28.99-6.73-58.39-9.87-88.52-7.78l4.51,14.05c12.97-.65,25.43-1.23,38.16.12l20.56,2.18,16.68,2.87,19.8,4.07-4.12-13.87Z"/>
    <path class="cls-1" d="M245.82,286.82c-30.8-5.14-61.21-6.84-93.07-3.17l4.29,14.12c31-3.85,61.67-2.47,92.91,3.18l-4.13-14.12Z"/>
    <path class="cls-1" d="M325.16,124.94c-2.44.21-6.43.66-7.97,2.19-2.36,2.35-3.29,5.64-3.27,9.62l-13.59,6-7.45,2.97-6.78,2.67-5.34-4.78c-2.74.71-7.33.96-9.22,3.45-1.43,1.89-2.19,5.42-1.88,7.45.42,2.74,3.04,6.38,5.75,7.21,2.88.88,6.5-.08,8.89-2.13,1.78-1.53,2.48-5.42,2.51-8.96l27.96-11.83c1.65,2.63,4.47,3.26,4.47,3.26l-4.25,38.15c-4.16,1.43-8.41,4.29-6.56,9.37.73,2.02,3.84,4.02,5.62,3.71,2.33-.4,5.22-2.6,5.59-4.4.53-2.56-.98-6.16-2.84-7.44l4.3-35.92s-.03-2.9.69-2.83c2.15.21,5.41-1.11,5.41-1.11l11.27,19.44c-4.93,5.25-5.7,9.62-1.01,15.49l-6.65,15.16-6.71,13.68,7.62-11.47,7.69-15.98c9.27-.48,11.56-5.57,10.65-8.77,0,0-1.91-7.25-1.2-8.51l15.42-23.16-3.78,1.43-14.81,21.97s-2.2-1.85-5.67-1.25l-11.22-18.71c2.23-1.76,3.19-4.23,3.23-6.56l28.16-2.39c.61.26,2.87,2.98,2.28,3.89l-1.98,3.05-4.51,7.84,8.29-9.27c4.95,2.24,11.16,1.08,13.32-3.78,2.38-5.37-.1-11.49-5.64-12.91-5.9-1.52-10.45,2.73-11.65,8.78l-28.9,2.84c-.69-3.99-4.53-6.39-4.53-6.39l3.81-7.61,10.74-21.45c.22-.45,1.27-2.06,1.12-2.28,0,0,4.11-.69,5.77-1.18,5.64-1.66,4.39-10.37,1.64-12.37-1.57-1.14-4.58-2.36-7.7-.97-3.28,1.47-4.07,7.84-3.47,11.15l-20.29,16.79-5.64,4.67c-4.08-2.6-7.91-.88-9.51,2.6-1.78,3.87.22,9.12,5.02,9.15,4.46.03,7.31-4.59,5.47-9.09l6.17-6.07c6.42-4.72,19.84-15.24,19.84-15.24-.06.03-.11.07-.16.1.03.02.17-.1.17-.1l-10.96,23.82-3.72,7.02Z"/>
    <path class="cls-1" d="M195.81,238.09l-9.09-.85-29.15-1.09-4.28.85-15.17,1.03,4.36,14.01c19.03-1.83,37.62-1.96,57.44-.38l-4.09-13.57Z"/>
    <polygon class="cls-1" points="159.18 227.28 187.54 228.01 183.47 214.54 165.62 213.54 130.46 214.51 135.06 228.77 159.18 227.28"/>
    <path class="cls-1" d="M210.43,180.23l-14.57-3,1.41,5.92,9.43,1.75c30.58,5.67,54.81,11.47,84.06-5.37,2.67,1.3,5.96,2.09,8.27,1.04,2.31-1.05,4.16-4.79,4.1-7.51-.11-4.44-3.55-7.2-6.75-7.56-5.23-.59-6.85,4.34-7.68,8.08-24.18,16.19-51.41,12.18-78.28,6.64Z"/>
    <polygon class="cls-1" points="164.18 178.07 161.37 170.32 153.97 169.69 116.31 169.64 120.8 183.87 142 183.05 157 183.75 165.55 184.15 164.18 178.07"/>
    <path class="cls-1" d="M307.36,248.64c2.97,1.67,6.63,1.84,9.02.1,1.82-1.32,3.2-5.38,2.5-8.22-1.24-5.03-4.95-6.89-8.69-5.98-2.96.73-4.99,4.28-5.05,8.43-12.98,6.82-28.75,10.01-43.86,9.48l-27.85-3.26,1.59,6.02,25.06,2.55c16.32,1.66,32.48-2.61,47.29-9.13Z"/>
    <path class="cls-1" d="M140.56,191.09l-17.22.61,4.53,14.38c13.49-.97,26.5-1.69,39.7-.83l1.7-.86-4.41-12.96-9.65-.26-14.64-.08Z"/>
    <path class="cls-1" d="M190.71,272.74l-4.02-13.42c-14.09-.4-27.49.08-41.54,1.19l4.67,14.06c14.49-1.4,27.36-1.91,40.89-1.83Z"/>
    <path class="cls-1" d="M217.44,219.99l30.13,4.75c13.37,2.11,26.34-.46,38.84-4.82,2.86,2.48,5.97,2.75,8.9,1.04,2.15-1.26,3.36-5.04,2.43-8.44-1.24-4.52-4.51-6.23-7.92-5.65-3.11.53-5.07,3.81-5.65,7.52-21.18,9.08-45.09,4.31-68.88-.67l2.15,6.27Z"/>
    <path class="cls-1" d="M297.35,272.5l16.12-6.12c1.09-.41,3.68-1.2,3.59-2.34l-.73-4.77c-1.46-.35-3.93.54-5.55,1.45-14.82,8.32-31.87,11.04-49.42,9.79l-43.63-5.57c-1.05.4.33,4.96,1.72,5.17l33.26,4.86c15.23,2.23,30.17,1.63,44.63-2.48Z"/>
    <path class="cls-1" d="M196.35,196.72l.96,5.16,35.07,6.07,18.23,1.68-1.37-5.38c-16.68-1.52-33-4-49.2-7.15l-3.7-.37Z"/>
    <path class="cls-1" d="M283.57,231.98c-12.91,3.75-24.74,3.38-37.9,2.07l.97,5.56c13.1,1.46,25.7,1.16,38.58-2.44l-1.65-5.19Z"/>
    <polygon class="cls-1" points="213.61 240.53 203.71 239.71 207.75 252.46 217.64 253.53 213.61 240.53"/>
    <path class="cls-1" d="M204.97,229.84l-4.01-12.62-8.41-1.6c-.82.76-1.16,2.72-.82,3.7l3.3,9.37,9.94,1.15Z"/>
    <polygon class="cls-1" points="204.76 261.69 195.77 261.46 199.07 272.32 208.08 272.49 204.76 261.69"/>
    <path class="cls-1" d="M268.66,203.32c-1.36-2.38-5.08-3.43-7.68-1.06-1.22,1.11-1.2,4.65-.63,6.24.53,1.47,3.73,3.65,5.29,3.22,5.65-1.54,4.62-5.63,3.03-8.4Z"/>
    <path class="cls-1" d="M235.07,239.11c2.06-1.65,1.12-5.62-.31-7.12-1.43-1.5-4.87-2.61-6.91-.98-2.18,1.74-1.17,5.46.39,7.35,1.22,1.48,4.2,2.85,6.83.75Z"/>
    <path class="cls-1" d="M349.59,258.9c12.33-14.48,28.42-25.41,46.06-31.92,3.12,3.75,6.87,5.13,10.83,3.61,3.89-1.5,6.05-5.31,5.39-9.78-.53-3.6-3.58-6.8-7.5-7.28-4.2-.52-7.36,2.56-10.28,5.76l-27.76-10.75c-.35.02-2.17-1.43-2.51-2.22l-3.96-8.92,4.01-12.87c.07-.24-1.52.05-1.59.28-1.61,4.91-3.92,9.94-4.8,12.54-5.21-.05-9.68,2.41-10.04,8.36l-19.31,3.46c-1.12.2-2.12-2.49-1.68-3.51l5.28-11.74c-2.66,1.07-6.62,8.52-7.62,11.47-3.55.31-7.57,1.65-8.22,5.55-.64,3.87,1.95,8.19,6.79,7.43,2.86-.45,4.62-3.46,5.22-7.05l19.22-3.45c1.36,1.06,3.75,4.37,3.19,5.75l-2.59,6.41-11.34,26.9c-3.49-2.36-9.93-.65-11.21,3.99-1.46,5.32.85,10.47,7.17,11.38l-4.35,15.07c-.76,2.65-1.88,3.79-4.99,4.41-3.7.73-6.34,4.55-6.58,7.47-.36,4.35,1.67,8.56,5.85,9.75,4.12,1.17,8.24-.95,10.12-4.1,1.87-3.13.66-8.55-1.05-11.32l6.16-10.44,12.12-14.23ZM328.78,281.37l5.25-18.01c.26-.9,2.72-2.29,3.39-2.86,2.71-2.3,3.67-8.48.82-11.82l11.3-27.99,3.33-7.33c4.08.42,7.13-.78,9.43-4.04l3.74,1.12,28.52,10.42c.47,1.29-.48,3.93-2.2,4.65-19.09,8.07-35.59,19.87-47.97,35.77l-9.16,11.76-6.46,8.31Z"/>
    <path class="cls-1" d="M362.26,184.81l1.59-.28,2.89-6.49c.19-.44,1.75-.74,2.31-.78,3.62-.25,7.1-3.72,6.6-7.79-.4-3.26-4.27-6.96-7.71-6.06-1.78.47-5.12,4.15-5.95,4.37l-6.93,1.81,6.44.94c.13,2.69,3.73,4.67,3.24,6.27l-2.48,8.02Z"/>
    <polygon class="cls-1" points="185.62 184.91 183.93 179.88 182.08 174.37 172.33 173.04 175.9 184.29 181.49 185.28 185.62 184.91"/>
    <path class="cls-1" d="M179,193.4c-1.08-.21-3.41.11-4.62.23l1.98,7c.22.79,1.23,2.79,1.6,3.4l8.57.78-2.76-10.46-4.78-.94Z"/>
  </g>
  <g>
    <path class="cls-1" d="M464.52,94.36h31.46v19.23c5.38-14.02,15.32-21.68,30.15-21.68h1.63v27.06c-2.93-.65-5.87-.98-8.8-.98-9.62,0-18.75,3.58-22.98,10.92v50.85h-31.46v-85.41Z"/>
    <path class="cls-1" d="M534.45,136.9c0-28.04,18.74-44.66,45.64-44.66,24.61,0,44.17,15.97,44.17,44.17v4.4h-59.66c.82,15.16,6.85,22.33,15.65,22.33,7.17,0,12.39-3.91,14.02-12.71h28.85c-4.24,19.4-20.7,31.46-43.36,31.46-26.73,0-45.31-16.95-45.31-44.99ZM565.09,127.77h29.83c-1.63-11.74-6.85-17.11-15-17.11s-13.2,5.54-14.83,17.11Z"/>
    <path class="cls-1" d="M697.6,164.45c-5.38,11.25-14.34,17.11-26.4,17.11-21.52,0-35.86-16.3-35.86-44.66s14.34-44.5,35.86-44.5c11.57,0,20.86,5.54,26.4,16.14v-44.99h31.29v116.21h-31.29v-15.32ZM665.98,136.9c0,16.46,5.87,24.45,15.97,24.45s15.97-7.99,15.97-24.45-5.87-24.12-15.97-24.12-15.97,7.66-15.97,24.12Z"/>
    <path class="cls-1" d="M747.16,59.8h32.27v22.33h-32.27v-22.33ZM747.65,94.36h31.29v85.41h-31.29v-85.41Z"/>
    <path class="cls-1" d="M793.61,153.36h27.22c1.96,8.15,7.5,11.74,15.32,11.74s11.41-3.26,11.41-7.33c0-6.85-9.13-8.8-19.88-11.25-15.16-3.26-33.41-7.5-33.41-27.38,0-16.46,15-27.06,38.3-27.06s37.81,10.59,42.38,28.04h-27.22c-2.61-7.5-7.33-11.08-14.67-11.08-6.52,0-10.11,2.77-10.11,7.17,0,6.52,9.78,8.15,21.19,10.59,14.83,3.42,32.27,8.15,32.27,27.55,0,16.14-16.14,27.38-39.93,27.38-22.49,0-38.63-9.13-42.87-28.36Z"/>
    <path class="cls-1" d="M902.17,157.6v-45.31h-20.21v-17.93h20.21v-20.37h31.13v20.37h23.47v17.93h-23.47v41.56c0,5.05,2.28,7.01,7.5,7.01h15.97v18.91h-30.81c-16.3,0-23.8-7.82-23.8-22.17Z"/>
    <path class="cls-1" d="M969.49,94.36h31.46v19.23c5.38-14.02,15.32-21.68,30.15-21.68h1.63v27.06c-2.93-.65-5.87-.98-8.8-.98-9.62,0-18.74,3.58-22.98,10.92v50.85h-31.46v-85.41Z"/>
    <path class="cls-1" d="M1044.63,59.8h32.27v22.33h-32.27v-22.33ZM1045.12,94.36h31.29v85.41h-31.29v-85.41Z"/>
    <path class="cls-1" d="M1095.32,63.55h31.13v46.13c5.38-11.25,14.34-17.28,26.4-17.28,21.52,0,35.86,16.3,35.86,44.5s-14.34,44.66-35.86,44.66c-11.57,0-20.86-5.54-26.4-16.14v14.34h-31.13V63.55ZM1158.07,136.9c0-16.46-5.7-24.12-15.81-24.12s-15.97,7.66-15.97,24.12,5.7,24.45,15.97,24.45,15.81-7.99,15.81-24.45Z"/>
    <path class="cls-1" d="M1202.9,154.5v-60.15h31.46v54.6c0,7.82,4.73,12.22,11.57,12.22,5.05,0,9.45-2.93,11.74-6.85v-59.98h31.29v85.41h-31.29v-13.53c-5.54,9.94-14.51,15.65-26.57,15.65-16.95,0-28.2-11.08-28.2-27.38Z"/>
    <path class="cls-1" d="M1320.91,157.6v-45.31h-20.21v-17.93h20.21v-20.37h31.13v20.37h23.47v17.93h-23.47v41.56c0,5.05,2.28,7.01,7.5,7.01h15.97v18.91h-30.81c-16.3,0-23.8-7.82-23.8-22.17Z"/>
    <path class="cls-1" d="M1384.64,158.9c0-19.07,18.91-23.8,34.56-27.87,10.92-2.77,20.21-5.22,20.21-12.22,0-4.08-3.1-7.82-10.27-7.82s-12.55,3.91-14.18,12.06h-28.36c3.42-19.89,20.86-30.81,44.01-30.81,26.24.16,39.77,11.9,39.77,32.44v55.09h-30.97v-12.22c-5.71,9.13-15.16,13.85-26.73,13.85-17.11,0-28.04-9.13-28.04-22.49ZM1425.39,163.63c5.38,0,10.59-2.12,14.02-5.54v-19.56c-2.45,1.79-5.71,2.93-8.8,4.07-7.66,2.77-15.65,4.89-15.65,13.04,0,5.38,4.56,7.99,10.43,7.99Z"/>
    <path class="cls-1" d="M1488.8,63.55h31.13v46.13c5.38-11.25,14.34-17.28,26.4-17.28,21.52,0,35.86,16.3,35.86,44.5s-14.34,44.66-35.86,44.66c-11.57,0-20.86-5.54-26.4-16.14v14.34h-31.13V63.55ZM1551.55,136.9c0-16.46-5.7-24.12-15.81-24.12s-15.97,7.66-15.97,24.12,5.7,24.45,15.97,24.45,15.81-7.99,15.81-24.45Z"/>
    <path class="cls-1" d="M1596.87,63.55h31.29v116.21h-31.29V63.55Z"/>
    <path class="cls-1" d="M1642.83,136.9c0-28.04,18.74-44.66,45.64-44.66,24.61,0,44.17,15.97,44.17,44.17v4.4h-59.66c.81,15.16,6.85,22.33,15.65,22.33,7.17,0,12.39-3.91,14.02-12.71h28.85c-4.24,19.4-20.7,31.46-43.36,31.46-26.73,0-45.31-16.95-45.31-44.99ZM1673.48,127.77h29.83c-1.63-11.74-6.85-17.11-15-17.11s-13.2,5.54-14.83,17.11Z"/>
    <path class="cls-1" d="M1742.92,153.36h27.22c1.96,8.15,7.5,11.74,15.32,11.74s11.41-3.26,11.41-7.33c0-6.85-9.13-8.8-19.89-11.25-15.16-3.26-33.41-7.5-33.41-27.38,0-16.46,15-27.06,38.3-27.06s37.81,10.59,42.38,28.04h-27.22c-2.61-7.5-7.33-11.08-14.67-11.08-6.52,0-10.11,2.77-10.11,7.17,0,6.52,9.78,8.15,21.19,10.59,14.83,3.42,32.27,8.15,32.27,27.55,0,16.14-16.14,27.38-39.93,27.38-22.49,0-38.63-9.13-42.87-28.36Z"/>
  </g>
  <path d="M1625.41,240.42c-.25-1.62-2.4-3.44-5.76-4.85-4.04-1.69-16.77-4.98-56.59-7.99-35.74-2.7-84.56-4.57-145.12-5.55-32.66-.53-68.91-.8-107.73-.8-160.36,0-366.66,4.47-613.18,13.28-6.77.24-11.4,2.38-12.99,4.4-.77.98-.63,1.68-.58,1.91.58,2.8,6.77,5.88,15.06,6.02.18,0,.37,0,.55,0,.42,0,.85,0,1.28-.02,244.97-8.76,449.34-13.2,607.43-13.2,38.33,0,74.16.27,106.48.79,9.33.15,18.51.33,27.3.52,1.28.03,2.3,1.07,2.29,2.35,0,1.28-1.03,2.32-2.31,2.34-40.37.66-83.88,1.28-125.97,1.89h-.28c-218.1,3.15-334.47,5.47-401.65,8.02-70.4,2.67-88.44,5.77-93.89,9.6-3.52,2.48-2.21,4.37-1.78,4.99,1.31,1.89,2.11,3.03,7.37,4.3,6.38,1.54,18.17,2.82,38.22,4.14,44.62,2.94,133.92,6.29,293.73,11.81,12.83.44,26.01.9,39.34,1.36,1.27.04,2.27,1.09,2.26,2.36-.01,1.27-1.03,2.3-2.31,2.32-166.15,2.72-167.29,3.36-173.62,6.88l-3.45,1.96.42,1.95c1.09,5.11,13.91,6.39,23.27,7.33,6.7.67,15.85,1.49,26.44,2.44l.73.07c14.73,1.32,39.38,3.52,59.17,5.68,1.1.12,1.96.99,2.08,2.09.11,1.1-.56,2.13-1.61,2.47-6.16,1.99-10.36,4.19-12.86,6.7-2.51,2.53-3.57,4.53-3.22,6.1,1.23,5.55,18.67,11.94,45.05,21.61l10.57,3.88c2.76,1.02,6.05,1.58,9.51,1.64.19,0,.37,0,.56,0,4.98,0,9.65-1.09,12.48-2.92.94-.61,2.49-1.83,2.34-3.23-.14-1.25-1.69-3.11-5.64-4.56l-10.61-3.9c-12.88-4.72-24.01-8.8-29.59-11.22-.9-.39-1.46-1.3-1.41-2.28.05-.98.71-1.82,1.64-2.11,3.69-1.15,9.84-2.43,13.51-3.2l.16-.03c6.71-1.39,20.67-4.29,22.65-8.72.24-.54.41-1.34-.39-2.72-1.82-3.13-6.37-5.61-23.39-8.31-1.2-.19-2.06-1.27-1.97-2.48.08-1.21,1.08-2.16,2.3-2.18,20.8-.36,41.87-.7,59.74-.98l1.66-.03c50.45-.82,102.61-1.66,141.86-2.58,21.7-.51,37.61-1,48.66-1.49,12.02-.53,26.98-1.2,30.78-5.49.59-.66.82-1.35.75-2.22-.51-6.4-18.82-7.54-36.52-8.65-13.95-.87-34.03-1.85-61.39-2.99-50.47-2.11-117.27-4.42-187.99-6.87l-.5-.02-.56-.02c-62.73-2.17-133.82-4.63-194.09-7.05-1.26-.05-2.26-1.09-2.25-2.36,0-1.26,1.02-2.29,2.28-2.33,101.15-2.82,246.75-4.91,353.06-6.44,295.22-4.25,297.08-5.26,304.92-9.47l3.59-2.01-.3-1.96Z"/>
</svg>