<?xml version="1.0" encoding="UTF-8"?>
<svg id="Layer_1" data-name="Layer 1" xmlns="http://www.w3.org/2000/svg" width="868.9" height="490.89" viewBox="0 0 868.9 490.89">
  <defs>
    <style>
      .cls-1 {
        fill: #466fb6;
      }

      .cls-2 {
        fill: #7d5aa3;
      }

      .cls-3 {
        fill: #a44c9d;
      }

      .cls-4 {
        fill: #edc234;
      }

      .cls-5 {
        fill: #d04171;
      }

      .cls-6 {
        fill: #e3342d;
      }

      .cls-7 {
        fill: #ec9729;
      }

      .cls-8 {
        fill: #6760ab;
      }

      .cls-9 {
        fill: #abbc52;
      }

      .cls-10 {
        fill: none;
        stroke: #fff;
        stroke-width: 3px;
      }

      .cls-10, .cls-11 {
        stroke-miterlimit: 10;
      }

      .cls-12 {
        fill: #3689c9;
      }

      .cls-13 {
        fill: #ddc443;
      }

      .cls-14 {
        fill: #cbc240;
      }

      .cls-15 {
        fill: #358ac4;
      }

      .cls-16 {
        fill: #b44c91;
      }

      .cls-17 {
        fill: #e67c2d;
      }

      .cls-18 {
        fill: #bd477e;
      }

      .cls-19 {
        fill: #78b46e;
      }

      .cls-20 {
        fill: #67b081;
      }

      .cls-21 {
        fill: #5364ae;
      }

      .cls-22 {
        fill: #efca2c;
      }

      .cls-23 {
        fill: #57ac93;
      }

      .cls-24 {
        fill: #e44c2f;
      }

      .cls-25 {
        fill: #40a0b8;
      }

      .cls-26 {
        fill: #8eb761;
      }

      .cls-27 {
        fill: #9bba5b;
      }

      .cls-28 {
        fill: #b8bf41;
      }

      .cls-29 {
        fill: #a35193;
      }

      .cls-11 {
        fill: #231f20;
        stroke: #231f20;
      }

      .cls-30 {
        fill: #48a9a8;
      }

      .cls-31 {
        fill: #eeac2d;
      }
    </style>
  </defs>
  <rect class="cls-11" x="-2.3" y="-1.05" width="874.62" height="494.26"/>
  <g id="eLsdru">
    <g>
      <polygon class="cls-22" points="217 355.9 221.24 352.11 233.79 353.03 233.88 337.02 259.54 336.78 259.91 352.42 275.35 352.49 275.22 405.2 256.29 405.23 256.1 356.03 237.22 355.86 237.17 405.22 217.6 405.19 217 355.9"/>
      <path class="cls-12" d="M37.47,390.05l-1.52-.12-7.92-.12-.31-1.73c-.09-.34-1.39-.56-1.73-.71l-4.24-2.03-.12-76.44,19.17-.12.07,77.56,27.16.11.06,18.94-30.26-.11-.35-15.22Z"/>
      <polygon class="cls-6" points="450.87 385.64 467.85 386.15 467.87 405.18 447.6 405.23 447.46 389.81 432.1 389.75 431.85 319.46 450.76 319.17 450.99 336.69 467.94 337.07 468.01 355.8 450.92 355.87 450.87 385.64"/>
      <path class="cls-20" d="M129.26,337.18l-.02,5.9.86,12.99-6.07.14-.2,30.11c-.79-.01-2.59-.16-2.67.61l-.32,3.18-.89,15.07-15.05-.02-.12-96.3,19.21-.04.12,28.31,5.16.04Z"/>
      <path class="cls-24" d="M378.89,355.95l-4.93-4.74c-4.1-3.94-8.01-8.13-8.01-14.22l41.75-.14.17,15.54,15.34.14-.17,52.69h-18.73s-.27-49.39-.27-49.39l-25.14.13Z"/>
      <polygon class="cls-3" points="523.95 336.9 524.9 337.18 525.03 352.33 540.84 352.41 540.88 405.1 521.73 405.18 521.44 374.61 509.29 374.56 507.46 369.68 506.02 364.97 521.48 364.92 521.42 355.92 509.17 355.9 503.9 353.45 502.69 345.72 501.1 336.87 523.95 336.9"/>
      <path class="cls-31" d="M317.17,336.94l-2.58,5.23c-1.21,2.13.79,7.32,1.5,9.69l.93,4.21h-12.59s-.31,8.95-.31,8.95l3.78.42c-.52,0-2.32.56-2.93.73l1.89,2.31c.31.38-1.99,1.31-2.02,1.81l-.29,4.56-.32,11.62h21s-3.18,8.3-3.18,8.3c1.4,3.99,2.08,7.03,1.87,10.51l-23.46-.09-.15-15.26-15.83-.2.15-37.15,15.76-.25.26-15.44,16.53.03Z"/>
      <path class="cls-28" d="M201.08,337.02l-1.33,19c-1.4,15.99-.46,32.21-.72,49.19h-19.01s.08-68.12.08-68.12l20.98-.07Z"/>
      <path class="cls-7" d="M469.32,202.48c3.71,13.25,14.36,16.98,17.37,26.13,3.24,9.82,11.69,18.36,22.34,18.87l14.34.69c-.34,9.05,7.45,10.97,9.39,18.01l-19.1-.03-3.22-6.36c-2.3-3.25-4.87-6.56-8.28-8.67l-7.99-4.94-3.78-6.4c-8.01-.55-15.01-3.04-21.81-7.09-.82-4.07-4.01-5.83-7.79-6.4-7.37-9.06-12.1-20.4-11.49-32.31l15.98,6.97,4.04,1.54Z"/>
      <path class="cls-18" d="M763.47,99.79l-1.28,2.11c-.51,1.3,4.42,1.06,5.07,8.16.91,9.98,7.89,17.17,17.26,19.57,2.88,3.62,4.11,8.15,5.54,12.77l7.37,8,5.17,9.21c2.87,5.12,6.09,9.68,10.15,13.85l3.01,2.31c-.15,6.77-1.33,13.34-4.47,19.14-1.38-.08-3.18-.04-3.7-.74l-1.94-2.62-5.13-6.91c-.4-.54-1.48-2.25-2.13-2.14l-2.37.75c3.8-14.19-2.35-28.43-14.97-35.74l-.2-5.2c-10.51-6.57-16.21-16.51-21.97-27.05l-7.11-13.02c-1.15-2.1-1.45-4.31-1.97-7.21-.44-2.4-1.93-5.68-2.7-8.33,6.32,3.35,11.68,7.84,16.36,13.08Z"/>
      <path class="cls-16" d="M568.77,366.49l.04,19.92,26.92.08.15,18.61-30.69-.08-.08-15.19-15.42-.19.04-41.39,2.83,5.49c6.34-.61,11.01,6.15,13.43,13.44l2.79-.7Z"/>
      <path class="cls-27" d="M662.89,305.53c1.67,4.13,4.16,7.22,6.66,11.2l6.2,9.84,6.32,12.75,4.73,8.09c2.96,5.05,4.88,9.43,7.31,14.87l4.08,9.1c2.15,7.04,3.67,12.71,9.35,17.55l4.41,12.43,6.44.58c.88.08,2.55.76,3.21,1.26s.9,3.32.43,4.18l-8.59,15.84c-4.1-3.49-6.97-7.53-8.97-12.7l-6.78-17.48c-.33-.86-2.52-2.1-2.8-1.81l-.46-21.4c-5.61-9.22-17.8-9.54-20.79-25.11-1.79-9.32-6.41-17.34-13.27-23.81l-8.29-7.83c3.13-3.66,6.68-6.94,10.8-7.53Z"/>
      <path class="cls-17" d="M365.94,336.99c0,6.1,3.91,10.29,8.01,14.22l4.93,4.74-.05,49.32-19.04-.24-.11-68.02,6.26-.02Z"/>
      <path class="cls-27" d="M139.82,405.2l1.45-18.59,10-.21.03-29.47c-.43-.22-2.19-.89-2.78-.89,2.54-6.06,3.77-12.4,3.95-18.84l2.55.14.09,15.22,15.49.28v36.78s-15.05.12-15.05.12l-.34,15.4-15.39.05Z"/>
      <path class="cls-4" d="M575.88,255.12c-2.49,18.86,10.09,36.26,29.19,37.74.42,1.2.57,1.13,1.06.01l2.7.03c1.08,4.77,3.8,9.64,7.55,12.81l4.6,4.95c-8.28.24-16.81.61-24.83-1l-12.92-20-9.65-7.85-8.25-10.75-4.41-6.33-1.25-2.69c-.25-.53-1.31-.79-2.21-.74-.24-6.95.68-13.92,2.79-20.55l12.59,11.08c.83.74,2.5,3.94,3.06,3.29Z"/>
      <path class="cls-2" d="M765.17,170.19c-3.44,3.67-3.71,10.04-.45,14.55,5.07,6.98,6.17,16.47.43,23.62-3.08,1.04-8.32,2.26-10.55,4.01l-7.13-8.74c-1.58-1.92-2.6-5.55-1.37-7.29l2-2.85c.94-1.34-5.96-11.08-4.19-21.44,1.21-7.09,6.38-11.59,10.07-16.78,1.86,3.85,3.82,7.31,6.56,10.34l4.65,4.59Z"/>
      <path class="cls-22" d="M301.84,175.31l1.42.21.24-4.15,5.7-.09v2.75s.12,2.1.12,2.1c.01.27,1.01-.36,1.17-.49l10.29-9.8c.81-.77,3.16-1.42,4.24-1.18.89.2.99,3.66.36,4.33l-9.59,10.34c6.68,3.76,18.21.05,16.94,5.17-.26,1.05-2.47,2.57-3.72,2.59l-14.27.18,10.54,11.17c.76.8.78,3.99-.16,4.29-.75.24-3.24.25-3.81-.29l-8.04-7.57c-.9-.85-3.17-1.87-4.26-2.06-1.62-.27-4.76,1.22-5.75,2.54l-.58-3.4-11.11,10.47c-.92.87-4.49.98-4.88-.1-.32-.89-.03-3.41.69-4.13l11.06-10.87-15.69-.21c-1.27-.02-3-2.17-2.8-3.49.17-1.16,2.5-2.5,3.77-2.51l14.73-.18-11.11-11.45c-1.08-1.11-1.32-4.23-.31-4.76.84-.44,3.59-.29,4.3.4l10.49,10.16Z"/>
      <path class="cls-19" d="M514.01,95.01l4.07,4.29c2.87,2.41,6.92,5.7,8.9,8.56,2.53,3.64,3.36,5.68,8.03,6.56l5.91,8.01c5.7,7.73,11.82,8.4,14.02,15.35-3.87-.06-8.76.67-12.78-.75-9.38-3.31-16.08-13.15-15.55-23.46-6.76-2.24-14.16,1.19-20.59,4.51-1.61.83-5.67,2-6.79.84l-4.28-4.48-7.1-4.44c6.79-7.8,15.84-13.18,26.15-14.97Z"/>
      <path class="cls-15" d="M777.4,348.1c1.59.03,4.38,1.65,5.38,3.28l7.15,11.72c1.01.49,3.73,1.15,3.78,2.11l.02,4.17-9.7,5.47c-.96.54-4.42.44-4.65-.54l-1-4.24-1.09-4.28-19.34-.48c-9.39-.23-16.42-8.37-18.6-17.28l15.61-2.41c1.16.41,4.36,2.15,5.72,2.18l16.72.29Z"/>
      <path class="cls-8" d="M746.1,196.34c-1.22,1.74-.2,5.37,1.37,7.29l7.13,8.74c-9.17,7.21-8.77,20.95-2.83,24.04,1.89.98,5.67,1.02,7.62.7,5.8-.94,5.9,6.31,14.06,15.61l3.98,5.94-12.56,7.08c-.7.39-3.16.28-3.62-.32s-1.11-2.3-1.18-3.08l-.6-6.74c-1.84-5.03-5.2-11.14-9.11-15.71-2.06-2.41-4.81-4.06-6.06-6.89l-3.03-6.88c-2.79-2.11-6.58-5.12-7.97-7.84l-2.42-3.21c2.68-7.91,7.94-14.66,15.21-18.72Z"/>
      <path class="cls-30" d="M75.87,373.78c9.88-1.82,11.69-17.09,16.05-30,.64-1.9,2.5-4.32,1.08-5.9.55,0,2.18,1.02,2.28,1.18l.07,66.11-19.48.04v-31.43Z"/>
      <path class="cls-29" d="M803.16,210.65l2.22,5.28,4.58,8.45,13.59,18.1,3.7,5.04c-1.65,13.38-7.44,25.09-16.91,34.31l-4.39-10.48-3.31-9.61c10.38-15.64,9.02-34.94-2.82-49.17l3.34-1.92Z"/>
      <path class="cls-5" d="M493.14,364.94l-.05,6.09c0,1.12,1.74,3.47,2.78,3.48l-.06,12.08,4.15.11,2.14-.34,3.63-.04,1.8,5.72,2.18,7.79,2.59,5.26-19.92.08-.14-15.29-15.81-.3v-24.75s16.71.13,16.71.13Z"/>
      <path class="cls-16" d="M747.1,86.71c.76,2.65,2.25,5.93,2.7,8.33.52,2.9.82,5.11,1.97,7.21l7.11,13.02c5.76,10.54,11.46,20.48,21.97,27.05l.2,5.2-21.81-11.96c-1.24-15.62-11.03-28.29-25.31-34.16l-2.38-9.61-3.67-11.63c6.77,1.06,13.36,3.43,19.23,6.55Z"/>
      <path class="cls-15" d="M702.26,273.56c-.51-2.91-1.98-5.34-3.59-7.89l-7.05-11.21c-.85-1.35-1.6-3.89-1.52-5.25l.39-6.99c.06-1.09.71-3.4,1.7-3.71s3.36-.32,4.64-.25l27.15,15.03c1.18,1.22,2.59,3.06,2.78,4.29.17,1.06-1.34,3.52-2.46,4.12l-22.04,11.86Z"/>
      <path class="cls-26" d="M698.56,348.68c-.42,3.15.86,6.46,2.58,9.46.98,7.15,3.52,15.59,8.43,20.49l2.64,3.06-.26,19.66-4.41-12.43c-5.68-4.84-7.2-10.51-9.35-17.55l-4.08-9.1c-2.44-5.44-4.36-9.82-7.31-14.87l-4.73-8.09-6.32-12.75-6.2-9.84c-2.51-3.98-4.99-7.07-6.66-11.2,2.3-.33,6.45.7,8.27,2.51,7.35,7.3,13.57,15.41,16.55,25.35,1.94,6.45,5.05,11.9,10.86,15.3Z"/>
      <path class="cls-26" d="M165.09,316.88c-.06.82-1.02,2.34-1.58,2.53-.75.25-2.41-1.29-2.49-2.19l-.91-10.56-7.78,7.43c-.5.48-2.67.68-3.37.58-.88-.13-.71-3.24-.05-3.99l6.99-7.96-9.89-.51c-.74-.04-2.44-1.03-2.82-1.65-.47-.78,1.28-2.76,2.19-2.81l10.04-.54-6.79-8.21c-.36-.43-.28-2.37-.14-2.91.18-.73,2.8-.88,3.41-.3l8.28,7.83.58-10.07c.05-.8,1.08-2.33,1.79-2.65s2.63,1.26,2.7,2.09l.86,10.49,6.92-7.03c.65-.66,3.19-.94,4.06-.82s.66,3.35,0,4.04l-7.34,7.54,10.74.7c.85.06,2.45,1.18,2.76,1.85.4.84-1.63,2.72-2.67,2.77l-10.04.44,6.68,7.57c.47.54.53,2.91.38,3.6-.18.88-2.99.64-3.72-.05l-7.99-7.52-.79,10.3Z"/>
      <path class="cls-2" d="M660.88,82.05c.25-2.19-.83-4.17-2.41-6.22l-4.74-6.14-2.85-4c16.8-5.32,35.87-2.8,49.59,9.19l-19.55,9.59c-6.49-2.37-13.49-3.77-20.04-2.42Z"/>
      <path class="cls-1" d="M678.76,140.45l.09,7.8,5.98.56c.94.09,2.89.85,3.51,1.55s.52,3.32.04,4.24l-7.71,14.73-5.22-4.55c-7.41-6.03-8.35-11.58-15.37-16.63.12-9.07.18-18.25,2.55-27.03l3.19,6.7c4.73.74,9.42,4.49,11.12,9.32l1.82,3.3Z"/>
      <path class="cls-16" d="M509.58,320.51c-.05.79-1.47,2.39-2.16,2.43-.86.04-2.32-1.72-2.35-2.7l-.3-9.75-8.07,6.9c-.47.4-2.48.71-3.13.74s-.84-2.7-.43-3.17l6.31-7.25-7.42-1.64-3.53-.77c-.76-.17-.04-2.9.4-3.46l11.53-.75-6.92-7.96c-.39-.45-.35-2.65-.19-3.22.22-.76,2.76-.58,3.38-.02l8.13,7.5.45-10.18c.03-.73.92-2.25,1.51-2.55.74-.37,2.73,1.12,2.78,2.01l.6,10.7,7.74-7.07c.54-.5,2.57-.76,3.29-.64.9.14.73,3.36.03,4.07l-7.4,7.48,10.89.44c.81.03,2.52,1.43,2.48,2.19-.06.95-1.98,2.26-3.04,2.32l-9.68.48,7.02,7.67c.38.42.26,2.41.14,2.96-.17.73-2.85.82-3.43.28l-8.03-7.55-.62,10.52Z"/>
      <path class="cls-15" d="M635.82,137.7c-.01,5.28-4.33,8.61-8.52,9.11-3.68.43-9.76-2.99-9.82-7.84l-.38-28.44,18.78-.04-.06,27.21Z"/>
      <path class="cls-15" d="M589.81,65.39l.97,5.96,5.03,6.06,3.25,4.95c-3.91.74-9.11,3.18-12.7,4.87l-3.43.76-11.95-.08c-.46-.69-2.6-1.28-5.17-1.83l-5.72-10.1c-1.66-1.66-6.24-3.67-8.18-5.28,1.87-.52,5.44-1.76,7.61-1.81l20.83-.45,9.46-3.04Z"/>
      <path class="cls-29" d="M811.29,194.92c-3.97,7.36-12.05,12.65-21.31,12.75l-17.61.18c1.97-6.72,2.39-12.32,1.5-18.59l16.15-.37c2.1-.05,5.13-3.84,5.99-5.63l2.37-.75c.65-.12,1.72,1.59,2.13,2.14l5.13,6.91,1.94,2.62c.52.71,2.32.66,3.7.74Z"/>
      <path class="cls-8" d="M728.06,153.57l-.68,27.75c-1.48-.32-4.7-2.38-5.66-3.84l-6.34-9.68c-1.21-1.85-2.6-2.83-4.95-2.62l-.24-11.92v-1.07s-7.08-.54-7.08-.54c-1.79-.14-3.74-4.17-2.78-5.94l8.13-14.98c2.09,5.12,6.08,9.08,9.91,13,3.31,3.39,5.2,8.24,9.68,9.84Z"/>
      <path class="cls-15" d="M738.92,273.43l4.74,8.31,2.55,7.94c1.12.32,3.26.75,3.4,1.49l.44,3.1-19.93-2.21c-3.74,2.51-9.18,6.52-12.69,7,.2-1.37.02-4.05-.56-5.4l-3.81-8.79c-.76-1.75-3.29-3.14-5.2-3.11,9.6-1.85,15.27-11.15,21.66-10.02l9.41,1.67Z"/>
      <path class="cls-25" d="M762.18,412.31c-1.11-1.94-2.9-5.85-2.9-7.91-.02-6.53-3.4-9.49-6.23-14.26l-10.15-17.13,13.83,9.54c2.81-3.86,5.4-5.81,10-4.71l10.52,31.34-1.02,4.46c-.22.96-2.95,1.3-3.94,1.07l-10.12-2.4Z"/>
      <path class="cls-2" d="M728.06,153.57c-4.48-1.59-6.37-6.45-9.68-9.84-3.83-3.92-7.83-7.88-9.91-13l6.2-12.04c.72-1.39,3.48-3.14,4.86-2.92,1.19.19,3.14,1.63,4.11,2.69l14.67,27.73c-.1,1.35-.4,3.79-1.14,4.49s-2.57.91-4.09,1.15l-5.02,1.73Z"/>
      <path class="cls-17" d="M513.66,266.13c-20.82-.04-38.53-12.54-45.41-32.11l-7.46-7.75c3.78.57,6.98,2.33,7.79,6.4,6.8,4.04,13.79,6.54,21.81,7.09l3.78,6.4,7.99,4.94c3.41,2.11,5.98,5.42,8.28,8.67l3.22,6.36Z"/>
      <path class="cls-5" d="M568.74,348.46l-1.94-.4c-.34-.03-.54-1.08-.9-2.02-1.96-5.16-6.87-4.75-7.01-10.92l-9.24-4.41-.22-22.24,19.24-.04.07,40.03Z"/>
      <path class="cls-28" d="M493.9,142.25c-.14,3.79.58,8.43,3.98,11.18,2.1,1.7,6.85.56,8.9,1.24l6.62,5.03c5.05,3.84,9.67,7.76,13.85,12.34l2.92,2.13-8,4.45c-4.56-.45-4.27-4.08-10.55-8.78l-11.09-8.3-7.26-2.37c-3.14-5.29-7.31-7.99-11.69-11.5l-6.47-4.62,1.19-10.56,13.74,8.5c.9.6,3.19,1.34,3.86,1.26Z"/>
      <path class="cls-21" d="M759.47,255.59c-8.66,1.29-17.67-.57-23.46-7.37-7.96-9.34-8.83-22.22-5.12-33.17l2.42,3.21c1.39,2.72,5.18,5.73,7.97,7.84l3.03,6.88c1.25,2.83,4,4.49,6.06,6.89,3.9,4.57,7.27,10.68,9.11,15.71Z"/>
      <path class="cls-4" d="M501.06,194.8l.97,4.03c.34,1.12,3.73,1.3,4.94,1.5l8.13,4.82,17.55,11.41,3.37,3.16-23.23.32c-1.6.02-3.66-.95-5.54-1.99l-11.66-6.48-11.97-6.91,17.44-9.87Z"/>
      <path class="cls-15" d="M694.04,203.1c-.81,6.31,6.45,7.97,10.79,15.9-9.21,5.9-19.68,6.89-30.56,6.88l-5.5-11.42-2.87-7.38,10.29-.02c6.13-.01,12.8-1.2,17.85-3.95Z"/>
      <path class="cls-14" d="M522.17,178.62c-2.94,1.64-6.41,4-10.19,4.99-4.96,1.3-3.91-8.8-5.08-9.66-2.29-1.68-14.41,1.69-22.9-6.77-6.43-6.4-9.84-15.65-8.89-24.13l6.47,4.62c4.38,3.51,8.55,6.21,11.69,11.5l7.26,2.37,11.09,8.3c6.28,4.7,5.99,8.33,10.55,8.78Z"/>
      <path class="cls-2" d="M777.42,258.65l-3.98-5.94c-8.15-9.3-8.26-16.55-14.06-15.61l.43-7.53c.11-1.75,4.24-3.17,5.97-2.21l26.54,14.62c2.12,1.17,4.34,5.75,1.81,7.18l-16.71,9.49Z"/>
      <path class="cls-5" d="M815.75,175.77l-3.01-2.31c-4.06-4.17-7.29-8.73-10.15-13.85l-5.17-9.21-7.37-8c-1.43-4.62-2.67-9.15-5.54-12.77-9.37-2.4-16.35-9.59-17.26-19.57-.65-7.1-5.58-6.86-5.07-8.16l1.28-2.11c6.17,6.91,10.38,15.3,13,24.87l18.17,9.01c13.85,9.55,21.48,25.96,21.12,42.11Z"/>
      <path class="cls-22" d="M430.53,190.93l-73.47-2.96c-1.53-.06-3.36-2.1-3.29-3.29.12-2.08,1.86-3.4,4.25-3.31l72.08,2.97c1.63.07,3.57,1.32,3.87,2.41.52,1.82-.72,4.28-3.44,4.18Z"/>
      <path class="cls-16" d="M827.26,247.51l-3.7-5.04-13.59-18.1-4.58-8.45-2.22-5.28c3.99-2.29,8.09-6.39,11.67-10.31,10.52,12.66,14.52,30.16,12.42,47.17Z"/>
      <path class="cls-21" d="M631.96,69.99l3.28,2.18c.33.22,1.46.24,1.64.25l3.04,5.95c1.85,3.01,4.65,5.34,7.94,7.09l-2.58,4.2c-3.28,5.33-11.35,4.54-16.32.61l.94-.61c.23-.24-.18-2.15-.44-2.36l-9.71-7.56c-3.47-5.6-6.91-9.89-12.46-14.11l-7.53-2c10.85-1.92,22.97.24,32.2,6.36Z"/>
      <path class="cls-1" d="M724.9,194.72l-.44,1.51-2.02,4.34c-3.65,7.87-10.47,13.85-17.61,18.43-4.35-7.92-11.6-9.59-10.79-15.9,7.2-3.92,12.6-10.83,14.77-18.82l10.5,6.62c1.51,2.11,3.42,3.4,5.6,3.82Z"/>
      <path class="cls-23" d="M570.32,119.18l18.14,14.62,2.71,7.4-9.87,5.53-5.44-4.46-4.5-4.56c-.47-.48-2.22-.21-2.52.06l-2.44.17c-4.5-9.58-18.76-16.38-18.16-17.97l.56-1.51c7.05,1.23,14.02,1.37,21.52.72Z"/>
      <path class="cls-13" d="M634.93,316.56c.32,5.83,4.95,6.16,7.7,15.31,1.2,3.98,5.27,6.58,8.29,9.31,4.26,3.86,5.76,9.21,8.06,13.84l7.41,14.89,2.61,3.27-.15,14.26c-.86-.51-2.8-2.25-3.4-3.41l-4.94-9.5-5.93-12.95c-.5-1.1-2.18-2.8-2.97-2.61.18-25.72-22.92-18.58-25.65-42.15l8.98-.27Z"/>
      <path class="cls-4" d="M668.85,387.43l.77,4.09c.16.83,4.86-.85,9.05,1.67.9.54.68,3.94.13,4.91l-7.43,13.22-3.06-7.28c-7.8-5.56-10.28-12.31-16.89-16.96l.2-28.11c.79-.19,2.46,1.51,2.97,2.61l5.93,12.95,4.94,9.5c.6,1.16,2.55,2.9,3.4,3.41Z"/>
      <path class="cls-9" d="M530.17,174.18l-2.92-2.13c-4.18-4.58-8.8-8.5-13.85-12.34l-6.62-5.03.71-6.34c.08-.97.82-3.45,1.75-3.46l4.12-.05,26.39,14.69c1.5,1.11,3.1,2.83,3.35,4.15.21,1.13-.92,4.03-2.09,4.66l-10.85,5.85Z"/>
      <path class="cls-20" d="M526.62,94.31l12.61,11.88c1.04.98,3.46,2.12,4.81,2.08-.49,3.8,2.15,7.66,4.76,10.19l-.56,1.51c-.59,1.6,13.66,8.39,18.16,17.97l-11.45-.17c-2.19-6.95-8.32-7.62-14.02-15.35l-5.91-8.01c-4.67-.88-5.51-2.92-8.03-6.56-1.99-2.86-6.04-6.15-8.9-8.56l-4.07-4.29c4.05-.7,9.02-1.06,12.61-.7Z"/>
      <polygon class="cls-16" points="501.1 336.87 502.69 345.72 503.9 353.45 509.17 355.9 476.46 355.84 476.47 336.82 501.1 336.87"/>
      <path class="cls-5" d="M457.28,290.85c-.04.46-.84,1.83-1.15,1.81l-2.24-.12-.93-9.56-7.7,7.11-1.96-1.78c-.48-.44.48-2.77.96-3.28l5.24-5.57-8.79-.73c-.69-.06-2.64-1.55-2.27-2.07s1.68-1.68,2.31-1.74l8.64-.78-5.69-5.53c-.6-.58-1.09-2.64-1.02-3.47s3.34-.56,4.02-.11l6.18,5.57.55-8.2c.05-.71,1.45-2.15,2.14-2.06s1.84,1.55,1.9,2.36l.58,8.08,6.34-5.92c.44-.41,2.42-.57,3.03-.49.8.11.51,2.8-.06,3.42l-5.84,6.36,9.84.89.15,3.46-9.85.71,5.62,6.22c.35.38.35,2.29.33,2.81-.03.69-2.66.56-3.14.12l-6.44-5.89-.72,8.35Z"/>
      <path class="cls-23" d="M612.89,167.83l6.95,9.42c3.14,4.33,5.12,6.54,8.88,10.6l7.58,8.18c1.07,1.16,3.54,2.2,5.12,2.09l.14,3.05c-.65-.47-2.05,1.73-1.44,2.14l1.62,1.09c.01.58.23,2.24.99,2.38l2.28.42,5.29,9.94c1.47,2.77,2.62,5.91,2.96,8.64l-7.99-.09-.61-6.02-8.3-10.68-6.77-9.35c-1.71-2.36-4.27-4.62-6.53-5.58v-7.94s-9.95-.04-9.95-.04l-2.49-6.32-3.8-6.56-1.81-5.37h7.89Z"/>
      <path class="cls-16" d="M323.55,75l-2.93,4.96c.06-.25-2.22.57-2.27,1.3l-.73,10.5c-.28.7-3.05,1.39-3.62.75s-1.26-2.52-1.32-3.52l-.53-9.3-9.91,4.5c-.73.33-3.29-.19-3.64-.82s.1-2.93.7-3.32l10.29-6.71-8.77-6.78c-.85-.66-1.47-2.86-1.4-3.81.08-1.14,3.41-2.17,4.41-1.49l8.71,5.94.77-9.76c.07-.89,1.49-2.47,2.26-2.63.96-.2,2.98,1.58,3.01,2.63l.25,11.22,10.21-5.01c.89-.44,3.55.17,4.22.73.8.66-.15,3.3-1.1,3.83l-7.08,3.94-1.57.88c-.37.21-.04,1.47.05,1.97Z"/>
      <path class="cls-31" d="M596.14,309.66c-23.38-4.7-37.9-25.31-38.71-48.36.9-.05,1.97.21,2.21.74l1.25,2.69,4.41,6.33,8.25,10.75,9.65,7.85,12.92,20Z"/>
      <path class="cls-15" d="M660.07,148.16c7.02,5.05,7.96,10.6,15.37,16.63l5.22,4.55-8.08,13.7c-.84,1.43-5.45-.57-6.3-2.09l-14.66-26.19c-.74-1.32-.32-5.58,1.08-5.75l7.37-.86Z"/>
      <path class="cls-7" d="M323.9,405.29c.21-3.48-.47-6.52-1.87-10.51l3.18-8.29h25.28s-.09,18.9-.09,18.9l-26.5-.1Z"/>
      <path class="cls-2" d="M825.93,331.3l-3.68-5.56-4.56-8.04c-2.47-4.35-5.8-6.83-10.43-6.65l1.44-9.24c1.28-.4,4.56-.56,5.73.08l24.52,13.38c1.47.8,3.18,3.09,3.17,4.41s-1.75,3.71-2.92,4.35l-13.27,7.26Z"/>
      <path class="cls-23" d="M724.86,347.94l3.09,7.02c3.25,6.48,5.48,12.5,10.58,17.68l2.2,6.65c.02,10.34,6.41,11.82,9.38,17.94l5.95,13.65-14.24-3.68c-2.36-.61-1.13-6.19.66-7.5.92-.67,1.98-3.44,1.24-4.11l-7.91-7.09c.83-5.98-3.92-14.88-8.39-19.62-2.76-2.93-3.96-6.39-5.16-10l-3.3-10.95,5.9.03Z"/>
      <path class="cls-13" d="M532.87,201.81c-.32,1.46,1.29,3.59,2.4,4.04l8.53,3.43c3.42,3.97,6.39,7.14,11.27,8.27-5.79,3.08-12.54,2.09-19.05,2.18l-3.37-3.16-17.55-11.41-8.13-4.82c-1.22-.2-4.6-.38-4.94-1.5l-.97-4.03c3.28-1.86,6.98-5.35,11.19-1.77l.61,8.49,20.01.29Z"/>
      <path class="cls-17" d="M334.99,351.29v1.21s1.06-.14,1.06-.14l14.59.21.08,22.28-21.72.02,1.43-9.61.41-9.3c.08-1.92,2.21-4.59,4.15-4.68Z"/>
      <path class="cls-8" d="M807.26,311.06c4.63-.18,7.96,2.3,10.43,6.65l4.56,8.04,3.68,5.56-11.78,6.51c-1.02.56-4.26.37-4.75-.51-2.12-3.83-.89-7.66-1.93-7.99l-3.32-1.06-4.25-8.87-4.24-7.87,11.6-.46Z"/>
      <path class="cls-17" d="M371.04,222.65l-55.04,13.43c-1.28.31-4.24-.54-4.69-1.61-.52-1.24.75-4.1,2.13-4.63l55.66-13.61c1.42.21,3.53,1.05,4.25,1.87.82.94-.61,4.14-2.31,4.56Z"/>
      <path class="cls-15" d="M756.04,318.97c1.7,4.12,3.98,6.87,7.66,10.05l-1.66,7.34c-6.42,3.61-13.67,5.05-21.06,5.1l-4.22-10.11-2.81-7.72c7.6-.07,15.78.37,22.1-4.66Z"/>
      <path class="cls-29" d="M727.87,80.16l3.67,11.63,2.38,9.61c-6.54-2.69-14.47-3.82-21.67-2.84-1.13-7.67-6.67-11.01-8.6-15.91l.61-1.6c.48-1.18,14.48-2.33,23.6-.89Z"/>
      <path class="cls-31" d="M532.76,266.17c-1.94-7.04-9.73-8.96-9.39-18.01l28.91.23-.57,17.98-18.95-.2Z"/>
      <path class="cls-1" d="M599.77,63.63l7.53,2c5.54,4.21,8.98,8.5,12.46,14.11l9.71,7.56c.26.2.67,2.11.44,2.36l-.94.61c-8.53-6.75-19.01-9.96-29.91-7.89l-3.25-4.95-5.03-6.06-.97-5.96,9.96-1.76Z"/>
      <path class="cls-25" d="M93,337.88c1.42,1.58-.44,4-1.08,5.9-4.36,12.9-6.17,28.18-16.05,30v-35.95s17.13.06,17.13.06Z"/>
      <path class="cls-25" d="M641.75,186.5c-3.28,0-13.36-10.09-14.64-18.67l22.07.14c4.05.03,7,4.76,7.37,7.98.42,3.62-.95,8.16-5.26,9.58-2.64.87-6.65.97-9.54.97Z"/>
      <path class="cls-26" d="M152.47,337.2c-.18,6.44-1.41,12.78-3.95,18.84l-18.43.03-.86-12.99.02-5.9,23.21.02Z"/>
      <path class="cls-31" d="M483.63,204.66l11.97,6.91,11.66,6.48c1.88,1.04,3.94,2.02,5.54,1.99l-.26,6.05c-.06,1.04-.94,2.93-1.68,3.59s-3.63.7-4.55.17l-27.12-15.7c-1.41-.82-1.57-5.57-.3-6.39l4.74-3.09Z"/>
      <path class="cls-30" d="M690.1,249.21c-.07,1.36.67,3.9,1.52,5.25l7.05,11.21c1.61,2.56,3.08,4.99,3.59,7.89-2.36,1.27-6.11,5.08-9.38,3.69-2.75-1.17-2.67-5.92-2.23-9.83l-10.44-.47-1.73-7.16-3.5-10.78,15.13.2Z"/>
      <path class="cls-30" d="M742.16,370.9l.53.78.22,1.33,10.15,17.13c2.83,4.78,6.21,7.73,6.23,14.26,0,2.07,1.79,5.97,2.9,7.91l-6.12-1.45-5.95-13.65c-2.97-6.12-9.37-7.6-9.38-17.94l-2.2-6.65c-5.1-5.18-7.33-11.2-10.58-17.68l-3.09-7.02,8.17.04,3.34,16.09c.46,2.22,4.34,5.34,5.79,6.83Z"/>
      <path class="cls-9" d="M570.24,193.15c.25,5.88-1.46,11.76-5.13,16.25-2.32-.2-4.67-1.33-6.31-2.78l-4.99-4.42c-1.02-1.68-3.12-3.64-4.61-2.84,3.93-6.84,1.34-11.66,6.44-20.54,3.2,2.57,8.04,5.5,10.03,8.48l4.57,5.85Z"/>
      <path class="cls-1" d="M762.04,336.36l1.66-7.34c-3.67-3.18-5.95-5.93-7.66-10.05,2.36-1.88,4.74-6.12,6.72-9.51l18.94-.6c-2.81,11.82-9.45,21.75-19.66,27.49Z"/>
      <path class="cls-14" d="M630.95,293.12l4.25,6.88,6.98,10.05-21.2.62-4.6-4.95c-3.76-3.17-6.47-8.04-7.55-12.81l22.12.22Z"/>
      <path class="cls-19" d="M123.81,386.32l17.46.29-1.45,18.59-19.89-.02.89-15.07.32-3.18c.08-.78,1.89-.63,2.67-.61Z"/>
      <path class="cls-21" d="M683.66,117.6l-.55.5-.32,1.55c-2.02,6.72-4.11,13.76-4.04,20.8l-1.82-3.3c-1.7-4.83-6.39-8.59-11.12-9.32l-3.19-6.7c1.8-6.66,4.91-12.96,9.02-18.26l3.02.31c.66-.01-.59,2.26-1.14,3.26l4.07,7.55,6.07,3.61Z"/>
      <path class="cls-14" d="M643.96,316.87l1.39,5.45.48,2.7,2.32,2.29c.99,3.26,4.02,8.04,6.82,10.76l7.6,7.41c.56,4.67,1.73,10.58,6.5,11.87l-.07,15.84-2.61-3.27-7.41-14.89c-2.3-4.62-3.79-9.98-8.06-13.84-3.02-2.73-7.09-5.33-8.29-9.31-2.75-9.15-7.38-9.48-7.7-15.31,2.51-.08,7.07-1.05,9.03.31Z"/>
      <path class="cls-2" d="M700.56,82.05l2.13-.47.97,1.07c1.93,4.89,7.46,8.23,8.6,15.91-6.13.83-12.73,3.51-17.81,7.09l-2.39-4.37-7.09-11.67c4.23-3.16,10.97-6.53,15.6-7.55Z"/>
      <polygon class="cls-14" points="221.24 352.11 217 355.9 199.75 356.01 201.08 337.02 221.31 336.96 221.24 352.11"/>
      <path class="cls-20" d="M599.98,151.78l2.01,6.54c-2.54,2.41-3.09,5.84-2.62,9.41l5.63.11,1.81,5.37,3.8,6.56,2.49,6.32-8.01-.03h-1.09s-3.86-.03-3.86-.03l-2.85-6.05c-2.22-3.97-5-8.55-6.05-12.55-.62-2.38.21-7.32.94-9.89,1.17-4.12,4.57-5.43,7.79-5.75Z"/>
      <path class="cls-19" d="M591.25,167.42c1.04,4,3.83,8.58,6.05,12.55l2.85,6.05-19.08-.13c-.91-5.9-7.06-9.39-10.01-17.77l20.19-.7Z"/>
      <path class="cls-1" d="M752.89,276.25l1.44.59,1.74.43,1.27,5.79c4.99,4.52,9.29,10.99,8.14,16.79,2.14.49,4.32,2.04,4.6,4.21-9.01-.28-15.24-9.25-20.05-9.79l-.44-3.1c-.14-.75-2.28-1.17-3.4-1.49l-2.55-7.94-4.74-8.31,13.97,2.83Z"/>
      <path class="cls-18" d="M568.74,348.46l.03,18.03-2.79.7c-2.42-7.29-7.09-14.06-13.43-13.44l-2.83-5.49-.08-17.54,9.24,4.41c.14,6.17,5.05,5.76,7.01,10.92.36.94.56,1.99.9,2.02l1.94.4Z"/>
      <path class="cls-1" d="M792.88,343.9l1.38,1.34.87-.25,2.51,6.97,4.39,12.78-8.29,4.64-.02-4.17c-.05-.96-2.77-1.63-3.78-2.11l-7.15-11.72c-1-1.63-3.79-3.26-5.38-3.28l.65-6.9c.12-1.34,3.34-3.36,4.5-2.75l10.33,5.45Z"/>
      <path class="cls-7" d="M387.46,218.73c-1.67-.31-3.73-1.9-3.59-3.01.14-1.17,1.65-3.32,2.61-3.79l44.75-10.45c1.16-.01,3.72.73,4.16,1.68.51,1.11-.74,3.43-1.84,4.48l-46.1,11.09Z"/>
      <path class="cls-29" d="M765.17,170.19l-4.65-4.59c-2.74-3.03-4.69-6.49-6.56-10.34,2.37-3.34,3.55-7.53,5.35-13.08l16.58,8.4c-1.71,8.31-5.67,14.21-10.73,19.6Z"/>
      <polygon class="cls-4" points="554.43 238.45 536.66 238.56 534.65 245.65 517.65 234.82 534.14 224.7 536.12 231.44 555.22 231.54 554.43 238.45"/>
      <polygon class="cls-25" points="95.28 326.91 75.85 326.96 75.76 308.75 95.29 308.72 95.28 326.91"/>
      <path class="cls-7" d="M647.97,391.82l3.44,7.96c1.34,2.59,3.04,4.65,5.41,6.69l7.83,6.71c.43.37.11,3.14.65,3.31l2.92.69-4.49,7.83c-1.42,2.48-6.54,2-7.86-.64l-13.77-27.48c-.58-1.15.29-4.66,1.57-4.75l4.3-.32Z"/>
      <path class="cls-7" d="M334.99,351.29c-1.93.09-4.06,2.76-4.15,4.68l-13.83.1-.93-4.21c-.71-2.37-2.71-7.57-1.5-9.69l2.58-5.23,17.67.03.15,14.32Z"/>
      <path class="cls-9" d="M611.96,244.79l7.99,9.32,4.51,6.58c1.77,2.59,3.46,4.72,5.57,6.69.32,1.71.18,6.04-.43,8.23-.33,1.2-3.65,2.81-4.74,2.25l-4.12-2.09-3.09-7.15-3.29-5.79c-2.81-4.95-6.37-9.33-10.74-13.21l8.34-4.83Z"/>
      <path class="cls-25" d="M551.91,70.69c1.94,1.61,6.52,3.62,8.18,5.28l5.72,10.1c2.57.56,4.71,1.15,5.17,1.83-8.03-.06-16.62-.96-22.14,6.35.6-.98.79-3.32,1.09-4.94l-7.62-7.2-3-1.75c-.47-.27-.36-1.7-.43-2.48,3.7-3.38,8.18-5.82,13.04-7.18Z"/>
      <path class="cls-21" d="M697.31,191.59c-.09,1.93-5.07,4.09-6.75,4.28l-.08-16.82-5.75-2.25,7.2-13.83c.36-.69,1.84-1.99,2.6-2s2.39,1.36,2.74,2.08l6.85,14.02c-2.87,1-5.17,1.89-6.27,2.91l-.55,11.61Z"/>
      <path class="cls-8" d="M684.96,89.6l7.09,11.67,2.39,4.37c-4.28,3.02-7.42,8.04-10.78,11.96l-6.07-3.61-4.07-7.55c.56-1,1.81-3.28,1.14-3.26l-3.02-.31c3.82-4.93,8.17-9.42,13.32-13.27Z"/>
      <path class="cls-13" d="M613.5,284.18l-16.43,3.84c-.11-3.18-1.04-5.33-2.87-5.92-11.53-3.73-15.58-19.46-9.42-20.67,4.85-.95,2.77,7.85,9.88,13.08.9.66,4.02,1.51,4.55.65l2.56-4.14,11.73,13.17Z"/>
      <path class="cls-19" d="M466.42,91.9l9.18,6.56c.89.64,1.75,3.09,1.63,4.08s-2.83,1.55-3.81,1l-10.38-5.9-.51,12.99c-.04,1-3.03,1.98-3.72,1.36-.55-.49-1.22-1.95-1.24-2.71l-.35-11.65-11.15,6.18c-.85.47-3.51-.64-3.54-1.49-.02-.68.33-2.75.9-3.12l9.78-6.26c1.29-.83,2.34-3.59,3.67-3.76,1.15-.15,3.86.54,5.01.98l4.53,1.74Z"/>
      <path class="cls-17" d="M232.49,100.1l-2.96.57-1.51-8.49-7.55,2.88c-.69-.44-1.51-3.32-.79-3.8l3.21-2.17,2.44-1.65c2.11-1.43-8.13-3.21-5.3-8.98l7.67,2.79,1.02-3.8.87-3.16c.23-.82,2.88-.73,3.08-.18l.82,8.66c3.4-2.47,6.62-5.01,9.58-2.36-.68,2.44-4.11,4.79-7.08,6.27l5.77,4.58c.57.45.89,2.37.71,3.04s-2.62.87-3.24.53l-5.82-3.19-.92,8.44Z"/>
      <path class="cls-30" d="M627.1,167.83c1.28,8.57,11.36,18.67,14.64,18.67l-.33,11.62c-1.58.11-4.04-.93-5.12-2.09l-7.58-8.18c-3.76-4.05-5.74-6.27-8.88-10.6l-6.95-9.42h14.21Z"/>
      <path class="cls-21" d="M770.09,304.06c-.28-2.17-2.46-3.72-4.6-4.21,1.14-5.8-3.15-12.27-8.14-16.79l-1.27-5.79c4.87,1.2,10,4.07,13.9,7.93l16.12,15.98c-5.38,1.94-10.68,3.05-16.01,2.88Z"/>
      <path class="cls-8" d="M793.05,271.68c-1.52,5.12,1.25,10.23,5.18,14.15l2.27,3.24-11.88,6.28-16.27-15.76c8.34-1.85,14.73-3.4,20.7-7.91Z"/>
      <path class="cls-27" d="M265.95,145.28c-.02.49-.13,1.71-.54,1.71h-2.88s-.86-8.82-.86-8.82l-5.56,2.94c-.61.32-2.15.46-2.81.44s-1.08-2.86-.56-3.25l6.37-4.76-5.07-3.48c-.72-.49-1.55-2.42-1.6-3.28-.06-1.02,2.74-1.32,3.68-.91l5.36,2.36c.12-4.81.12-6.93,4.13-8.38l.83,9.54c3.3-1.8,6.36-3.32,8.61-3.96,2.02,3.68-.94,5.08-3,6.57l-2.2,1.6c-.67.49,8.26,4.27,4.83,8.69l-8.41-4.06-.31,7.04Z"/>
      <path class="cls-17" d="M294.37,240.79l-36.54,9.05c-1.04.26-3.5-.77-4.1-1.65-.7-1.02.35-4.6,1.79-4.95l36.55-8.91c1.29-.31,3.95.79,4.53,1.74.67,1.1-.65,4.33-2.22,4.72Z"/>
      <path class="cls-15" d="M617.9,98.9l-.91,7.04-9.96.04-2.07,7.32-14.7-8.21c-.64-.36-1.73-1.83-1.82-2.48s.99-2.21,1.66-2.56l14.74-7.86,1.86,6.67,11.2.05Z"/>
      <path class="cls-26" d="M571.05,168.12c2.95,8.38,9.1,11.88,10.01,17.77-2.17-.01-5.9.36-7.92.88l-2.91,6.37-4.57-5.85c-1.98-2.98-6.82-5.9-10.03-8.48,3.1-5.4,8.57-10.49,15.41-10.71Z"/>
      <path class="cls-27" d="M597.05,207.74l9.43,13.9c.64.87,1.6,2.95,1.53,3.88-5.08-.02-11.04.75-15.67,3.15-3.27-5.58-6.95-10.15-11.46-14.81,4.75-2.92,10.44-5.86,16.16-6.12Z"/>
      <path class="cls-15" d="M730.71,313c-1.43-2.85-1.41-5.31-.15-7.52l5.08-.04c.27,0,1.15-.98,1.19-1.25l1.01-6.86,19.12,11.83-19.29,11.97-1.15-7.83-5.81-.3Z"/>
      <polygon class="cls-21" points="795.67 311.51 799.9 319.38 804.15 328.24 779.02 328.67 786.93 311.59 795.67 311.51"/>
      <path class="cls-8" d="M650.88,65.69l2.85,4,4.74,6.14c1.58,2.05,2.66,4.03,2.41,6.22-5.72,1.18-10.92,4.13-15.59,7.61l2.58-4.2c-3.29-1.75-6.09-4.08-7.94-7.09l-3.04-5.95c4.55-2.76,9.07-5.16,13.99-6.72Z"/>
      <path class="cls-3" d="M314.1,298.69l-2.88-1.26c-.81-.36-1.19-2.38-1.23-3.15l3.9-3.32,29.08-18.55c1.06-.68,4.11-.24,4.59.65s.27,3.97-.43,4.81l-33.04,20.82Z"/>
      <path class="cls-14" d="M693.09,402.01l2.99,7.95,4.1,9.86,3.27,7.15c.72,1.59,3.91,3.34,5.92,3.57-1.14,2.05-2.23,4.9-4.99,5.35s-4.66-1.47-6.01-4.02l-12.12-22.83c-.73-1.37-1.18-5.76.25-6.28,1.86-.67,5.18-1.1,6.59-.77Z"/>
      <path class="cls-28" d="M603.63,249.62c4.37,3.88,7.93,8.26,10.74,13.21l3.29,5.79,3.09,7.15-24.04-13.26c-1.24-.69-2.7-3.52-2.65-4.84s1.64-3.76,2.83-4.4l6.74-3.65Z"/>
      <path class="cls-21" d="M727.38,181.31l-.15,4.81-.15,1.18-2.18,7.42c-2.18-.42-4.09-1.71-5.6-3.82l-10.5-6.62c1.6-5.9,1.75-12.89,1.63-19.11,2.35-.2,3.73.77,4.95,2.62l6.34,9.68c.95,1.45,4.18,3.51,5.66,3.84Z"/>
      <path class="cls-3" d="M394.03,241.74l1.87,6.7-32.69,19.88c-1.64-.11-4.28-.61-4.16-1.66l.47-4.12,34.51-20.8Z"/>
      <path class="cls-25" d="M707.85,281.78c1.91-.03,4.44,1.36,5.2,3.11l3.81,8.79c.58,1.35.76,4.03.56,5.4l-2.28.31-2.39.62-11.52-.02-5.34-18.01,11.96-.19Z"/>
      <path class="cls-23" d="M466.42,91.9l-4.53-1.74c-1.15-.44-3.86-1.13-5.01-.98-1.33.17-2.38,2.94-3.67,3.76.16-.36-1.3-2.17-2.13-2.7l-8.34-5.32c-.66-.42-.62-3.1-.24-3.79s2.86-.99,3.61-.55l10.94,6.38.46-12.62c.03-.91,1.33-2.55,2.14-2.78s2.85,1.29,2.88,2.16l.55,12.88,10.89-6.04c.71-.39,3.05.13,3.6.64.69.64.08,3.44-.79,3.98l-10.36,6.7Z"/>
      <path class="cls-25" d="M597.93,137.4l-3.83-7.16c-1.48-2.53-2.68-4.6-5.45-5.57-3.81-1.33-5.52-3.92-6.83-7.69-1.67-1.62-5.62-3.31-8.43-4.32l-.02-3.83c.63-.09,1.82.04,2.76.15l28.26,15.85,2.53,3.9c.61.94-.86,4.07-1.85,4.64l-7.13,4.03Z"/>
      <path class="cls-28" d="M669.07,357.34c-4.77-1.29-5.94-7.19-6.5-11.87l-7.6-7.41c-2.79-2.72-5.83-7.5-6.82-10.76l-2.32-2.29-.48-2.7-1.39-5.45c6.84,4.77,13.06,10.34,18.49,16.79,5.89,7.01,6.66,15.33,6.62,23.68Z"/>
      <path class="cls-20" d="M645.28,225.69l-9.18-.08-2.6-5c-5.6-8.31-4.9-13.59-10.31-13.6l-.13-12.95c2.26.95,4.82,3.22,6.53,5.58l6.77,9.35,8.3,10.68.61,6.02Z"/>
      <path class="cls-9" d="M713.45,423.2l-4.09,7.35c-2.01-.24-5.19-1.99-5.92-3.57l-3.27-7.15-4.1-9.86-2.99-7.95c.53-.48,1.86-2.2,1.85-2.87l-.05-7.93c.29-.29,2.47.95,2.8,1.81l6.78,17.48c2,5.17,4.88,9.21,8.97,12.7Z"/>
      <path class="cls-28" d="M565.11,209.4c-2.8,3.43-6.09,6.03-10.04,8.13-4.88-1.13-7.85-4.3-11.27-8.27l-8.53-3.43c-1.11-.45-2.72-2.58-2.4-4.04l8.32-.14c2.9-.05,5.55-.99,8.01-2.3,1.5-.8,3.6,1.16,4.61,2.84l4.99,4.42c1.64,1.45,3.99,2.58,6.31,2.78Z"/>
      <path class="cls-22" d="M471.29,176.49c-2.14,3.96-2.91,8.77-3.26,13.11-3.09-.55-6.15-1.58-9.32-2.9l-8.85-3.6c.24-4.71,1.68-9.72,4.19-14.14l7.32,3.49,9.92,4.03Z"/>
      <path class="cls-20" d="M718.95,347.91l3.3,10.95c1.2,3.61,2.4,7.07,5.16,10,4.48,4.75,9.22,13.64,8.39,19.62-7.8-4.6-13.51-11.51-16.52-20.5l-5.67-20.1,5.33.03Z"/>
      <path class="cls-30" d="M571.69,109.06l1.68-.23.02,3.83c2.82,1.01,6.77,2.71,8.43,4.32,1.31,3.77,3.02,6.36,6.83,7.69,2.77.97,3.97,3.05,5.45,5.57l3.83,7.16-6.76,3.81-2.71-7.4-18.14-14.62.18-9.92,1.19-.21Z"/>
      <path class="cls-24" d="M622.53,370.73c-.05,1.04-1.35,2.98-2.19,3.15-1,.21-2.86-1.72-2.9-2.78l-.29-7.9-8.27.1c-1.04.01-2.7-2.61-2.42-3.6s2.32-2.03,3.37-2.06l7.32-.23.63-9.31c.6-.49,4.14-1.24,4.28-.29l.61,4.29.37,4.63c.1,1.21,3.65.95,4.89,1.11l4.35.58c.98.13.91,4.2,0,4.36l-9.43.55-.33,7.39Z"/>
      <path class="cls-26" d="M613.02,207.01c2.38,8.09,8.05,12.08,9.01,18.56l-14.03-.04c.06-.93-.89-3.01-1.53-3.88l-9.43-13.9,15.98-.73Z"/>
      <path class="cls-2" d="M810.35,281.82c-2.98,2.9-6.39,5.42-9.85,7.25l-2.27-3.24c-3.93-3.92-6.7-9.03-5.18-14.15,3.42-2.58,7.3-6.48,9.6-9.95l3.31,9.61,4.39,10.48Z"/>
      <path class="cls-31" d="M682.38,464.39l-.46,4.24c-.11,1-4.2.78-4.29-.24l-.78-9.22-9.42-.57c-1.08-.33-1.12-4.66.08-4.82l9.35-.77.58-8.37c.05-.76,2.47-1.83,3.14-1.46.83.46,1.79,2.24,1.81,3.19l.14,6.92,9.7.47c.67.55,1.32,4.31.31,4.43l-4.47.53-4.57.45c-1.22.12-.99,3.81-1.14,5.21Z"/>
      <path class="cls-4" d="M227.62,312.02c-.03,1.03-.83,3.08-1.52,3.57-.84.6-3.63-.46-3.69-1.66l-.46-8.66-7.16.02c-1.16,0-3.35-1.49-3.33-2.55.03-1.68,1.77-2.96,3.42-3l7.1-.21.71-8.77c.07-.88,3.04-1.75,3.57-1.03.64.87,1.18,2.92,1.3,4.3l.41,4.69c.11,1.22,3.78.91,5.02,1.1l4.15.65c.93.15.88,3.77.02,4.05-2.05.65-6.02.74-9.31.89l-.22,6.6Z"/>
      <path class="cls-29" d="M785.47,84.96c-.02,1.04-1.03,3.07-1.94,3.32s-3.21-1.21-3.24-2.21l-.23-7.97-8.68-.43c-.91-.04-2.18-2.15-1.91-2.95.33-.97,2.33-2.2,3.43-2.23l7.15-.22.53-8.65c.06-.91,3.15-1.92,3.8-1.23s.92,2.2,1.06,3.75l.51,5.49c.2,2.11,7.9-.39,9.86,2.18.57.75-.39,3.8-1.31,3.84l-8.9.4-.14,6.9Z"/>
      <path class="cls-12" d="M76.32,271.28c-.04,1.12-3.62,1.74-4.58,1.17l-.66-10.34-8.54-.35c-.59-.02-1.65-1.52-1.71-2.11-.09-.79.96-2.83,1.74-2.87l8.54-.48.34-7.21c.05-.97,1.21-2.78,2.11-3.03s2.81,1.5,2.84,2.52l.2,8.02,8,.26c.82.03,2.34,1.23,2.66,1.93.39.88-1.23,3.13-2.27,3.15l-8.31.21-.36,9.13Z"/>
      <path class="cls-31" d="M671.37,411.33l-3.15,5.86-2.92-.69c-.54-.17-.22-2.94-.65-3.31l-7.83-6.71c-2.37-2.03-4.07-4.1-5.41-6.69l-3.44-7.96c.95-.07,3.12-.33,3.19-1.29l.25-3.45c6.62,4.65,9.09,11.4,16.89,16.96l3.06,7.28Z"/>
      <path class="cls-5" d="M818.85,128.97c-.02,1.18-1.41,3.25-2.35,3.31-1.2.08-2.85-1.86-2.87-3l-.18-7.27-8.92-.37c-.89-.04-1.84-3.17-1.17-3.86.8-.83,2.79-1.15,4.57-1.27l4.62-.31c1.8-.12.13-4.97,1.75-9.18.34-.88,3.14-.45,4.13-.06l.5,9.41,7.9.26c.83.03,2.54,1.41,2.83,2.19s-1.27,2.74-2.19,2.79l-8.53.42-.11,6.96Z"/>
      <path class="cls-12" d="M530.68,47.2c-.02,1.05-1.18,3.02-2.12,3.21s-3.05-1.28-3.07-2.28l-.17-8.25-8.01-.15c-1.06-.02-2.54-2.12-2.3-3.02s2.01-2.23,2.97-2.27l7.31-.34.26-7.82c.03-.92,2.23-2.21,3.15-2.08,1.12.15,1.89,2.27,1.98,3.82l.31,5.63c.12,2.11,7.59-.44,9.98,2.16.66.72-.4,3.69-1.43,3.75l-8.68.5-.17,7.13Z"/>
      <path class="cls-2" d="M631.39,46.86c-1.78.07-.16,4.93-1.56,9.58-.28.93-3.41.56-4.25.08l-.46-9.81h-7.19c-1.06,0-3-1.18-3.24-2.14-.32-1.29,1.76-3.23,3.07-3.23l7.25-.04.19-7.93c.02-.88,1.7-2.69,2.56-2.8,1.02-.13,2.65,1.8,2.68,2.85l.19,7.73,8.91.52c.91.05,1.6,3.07.94,3.68-.8.73-2.86,1.26-4.22,1.32l-4.86.19Z"/>
      <path class="cls-26" d="M636.98,248.85c.23,2.93,1.62,5.54,3.03,8.32l4.35,9.65-8.22.04c-3.1-7.85-7.93-14.35-14.34-20.51-1.59-1.53-1.9-4.85-.97-6.71l4.74-2.16c1.09-.5,4,1.82,4.08,3.01l.51,8.32,6.82.04Z"/>
      <path class="cls-27" d="M649.14,273.16c.5,4.85,2.83,9.66,6.29,13.56l5.2,4.65c-1.46,4.22-3.51,7.82-6.25,11.26l-11.2-13.37,1.64-16.08,4.33-.03Z"/>
      <path class="cls-3" d="M575.21,441.22c0,1.13-1.66,3.34-2.63,3.19s-2.5-1.93-2.56-3.11l-.33-6.94-9.19-.71c-1.47-.11-1.33-4.75.01-4.84l9.38-.65v-7c0-.75.68-3.1,1.4-3.16l3.36-.25.88,10.37,7.55.36c.96.05,2.72,1.32,2.91,2.19s-1.56,3.1-2.42,3.12l-8.41.13.04,7.31Z"/>
      <path class="cls-5" d="M394.47,314.44l-.27,4.19c-.06.88-2.46,1.51-3.09.89s-1.33-2.52-1.42-3.43l-.51-5.55c-.21-2.27-6.32.52-9.73-2.36-.82-.7.53-3.71,1.75-3.77l8.06-.38.42-6.63c.06-.88,1.25-2.65,2.08-2.84.99-.23,2.87,1.63,2.92,2.64l.3,6.78,9.03,1.08c.89.11,1,3.73.09,3.85l-4.09.55-4.57.42c-1,.09-.88,3.39-.96,4.56Z"/>
      <path class="cls-9" d="M498.31,126.06c-2.19,5.36-4.21,10.59-4.41,16.19-.66.08-2.96-.66-3.86-1.26l-13.74-8.5c.54-4.81,2.36-9.8,5.14-13.64,2.09,4.99,7.82,8.57,12.64,8.98l4.22-1.78Z"/>
      <path class="cls-19" d="M650.91,248.93c.77,3.88,2.58,7.24,4.41,10.93l2.87,6.98-13.83-.02-4.35-9.65c-1.41-2.78-2.8-5.39-3.03-8.32l13.93.07Z"/>
      <path class="cls-9" d="M654.38,302.63c-2.8,3.52-7.2,7.27-12.2,7.41l-6.98-10.05-4.25-6.88c4.61.05,8.53-.94,12.22-3.86l11.2,13.37Z"/>
      <path class="cls-26" d="M129,448.12c-.02.76-1.68,2.45-2.42,2.27s-2.43-1.61-2.45-2.32l-.22-8.22-7.65-.31c-1.12-.05-3.03-1.83-2.98-2.94s2.26-2.58,3.51-2.62l6.99-.19.44-7.42c.04-.62.93-2.07,1.39-2.51.61-.58,3.35.68,3.38,1.51l.36,8.63,7.68.03c.82,0,2.52,1.16,2.99,1.79.58.78-.99,3.45-1.99,3.51l-8.87.48-.17,8.31Z"/>
      <path class="cls-23" d="M709.84,322.61c1.29,4.22,3.55,8.18,6.89,11.94l.34,7.01-5.1-.11-5.19-9.18-9.26-17.65c-1.6-3.04-2.65-5.13-2.42-8.49,1.22.01,3.65.12,4.8.42.96.25,1.61,2.54,2,3.67,2.37,4.79,4.86,8.84,7.94,12.39Z"/>
      <path class="cls-8" d="M800.08,410.2c-.02.9-.87,2.81-1.58,3.21-.89.5-3.47-1.01-3.51-2.12l-.29-7.92-6.64-.58c-.99-.09-2.86-.92-3.47-1.54-.73-.75.75-3.55,1.88-3.61l8.35-.44.27-7.82c.03-.88,1.78-2.47,2.56-2.47.98,0,2.31,1.93,2.33,2.98l.13,7.46,7.76.21c.88.02,2.58,1.42,2.79,2.23s-1.25,2.89-2.06,2.92l-8.41.33-.13,7.17Z"/>
      <path class="cls-9" d="M580.88,213.86c4.51,4.67,8.19,9.24,11.46,14.81-3.01,1.56-6.86,4.96-8.92,7.64l-5-4.61c-1.34-1.17-3.68-4.44-4.56-6l-2.88-3.81c2.46-3.44,6.29-5.81,9.92-8.04Z"/>
      <path class="cls-7" d="M330.43,365.26l-1.43,9.61h-24.46s.29-4.57.29-4.57c.03-.5,2.33-1.43,2.02-1.81l-1.89-2.31c.61-.17,2.41-.73,2.93-.73l22.54-.18Z"/>
      <path class="cls-19" d="M623.19,207.01c5.41,0,4.71,5.29,10.31,13.6l2.6,5-14.07-.04c-.97-6.48-6.63-10.46-9.01-18.56h10.17Z"/>
      <path class="cls-8" d="M700.91,120.65c-1.15,2.22.58,4.88,3.55,7.96l-14.29,7.42c-.59.3-2.9.3-3.2-.22s-.73-2.11-.67-2.7l1.76-15.47c2.98.85,6.48.71,7.87-1.14l4.99,4.16Z"/>
      <path class="cls-25" d="M665.9,207.07l2.87,7.38,5.5,11.42-14.3-.02c-.22-6.64-3.05-13.07-6.82-18.82l12.75.04Z"/>
      <path class="cls-19" d="M690.1,306.08c.17,11.65,6.91,15.59,8.52,24.09,1.16,3,4.63,7,6.3,9.87-5.65-1.79-10.93-6.35-13.23-12.35-3.25-8.51-7.85-15.13-15.09-21.75l13.5.15Z"/>
      <path class="cls-20" d="M509.77,79.74c-.04.99-1.52,2.87-2.35,2.91-1.03.04-2.63-1.82-2.68-2.96l-.33-7.33-7.36-.17c-1.03-.02-2.92-1.62-3.01-2.56s1.87-2.41,2.91-2.45l7.64-.3.25-6.85c.04-1.17,1.62-3.25,2.62-3.15s2.25,2.08,2.28,3.12l.24,7.03,8.76.43c.59.03,1.62,1.68,1.62,2.28,0,.79-1.62,2.22-2.47,2.25l-7.84.22-.29,7.53Z"/>
      <path class="cls-25" d="M733.94,323.63l2.81,7.72,4.22,10.11-12.83.1-2.85-3.62c.69-8.24-4.4-9.72-2.64-14.2l11.28-.1Z"/>
      <path class="cls-26" d="M506.03,118.06l-7.72,8-4.22,1.78c-4.82-.42-10.55-4-12.64-8.98l6.42-8.88,7.1,4.44,4.28,4.48c1.11,1.17,5.17,0,6.79-.84Z"/>
      <path class="cls-12" d="M386.59,115.55l-1.42,3.96-6.3-1.08-.75-1.2-2.33-.97-18.2-12.07c-1.14-.76-1.5-4.04-.76-4.86s3.78-1.16,4.75-.52l25.02,16.73Z"/>
      <path class="cls-19" d="M147.03,255.92c-.03,1.26-4.44,1.9-4.53.77l-.72-9.31-8.51-.41c-.8-.04-1.86-2.62-1.35-3.26s2.2-1.69,3.1-1.72l6.69-.24.36-6.53c.04-.75.52-2.27.8-2.86s2.59-.42,3.77-.22l.68,9.85,7.73.06c1.08,0,2.91,1.73,2.95,2.67s-1.83,2.58-2.82,2.58l-7.95-.02-.21,8.66Z"/>
      <path class="cls-24" d="M310.52,266.84c-2.28.17-1.17,8.73-2.44,8.71l-2.91-.05c-.72-.01-.61-2.56-.69-3.32l-.46-4.49c-.21-2.01-8.33-.56-8.39-1.57l-.19-3.27c-.05-.92,2.35-.96,3.52-1.09l4.51-.51c1.17-.13.71-3.81.94-4.97l.66-3.38c.14-.7,2.84-.63,3.02.06l.81,3.18,1.17,4.6c.27,1.07,3.77.77,4.83,1.02l3.17.75c.68.16.92,2.34.36,2.76-.7.52-2.56,1.15-3.47,1.22l-4.42.34Z"/>
      <path class="cls-30" d="M601.99,158.32l-2.01-6.54c3.44-.35,5.7-2,7.63-5.7l12.93,6.19c.64.3,1.35,2.45.97,2.99-.28.4-1.35,1.63-1.82,1.91l-12.61,7.35-1.74-5.01c-.32-.92-2.41-1.05-3.35-1.18Z"/>
      <path class="cls-21" d="M646.03,104.66c-.4-1.63-.99-4.06-.49-5.39l2.64-6.98,17.24,10.38-17.29,10.5-2.11-8.5Z"/>
      <polygon class="cls-23" points="674.96 249.01 678.46 259.79 680.19 266.95 668.35 266.88 665.29 257.95 663.06 248.99 674.96 249.01"/>
      <path class="cls-28" d="M401.24,163.13l5.27-.24,2.93-3.99,25.4,8.67c1.5.51,2.85,3.5,2.23,4.9-.48,1.08-3.2,1.63-4.52,1.19l-31.31-10.54Z"/>
      <path class="cls-14" d="M583.42,236.31c-2.16,2.8-4.7,6.35-5.48,9.78l-3.63-3.49-8.31-9.06c-.41-.44-1.38-2.18-1.49-2.59l6.46-9.06,2.88,3.81c.88,1.56,3.22,4.84,4.56,6l5,4.61Z"/>
      <path class="cls-27" d="M620.83,239.65c-.93,1.86-.62,5.18.97,6.71,6.4,6.15,11.23,12.66,14.34,20.51l-6.11.52c-2.11-1.97-3.8-4.1-5.57-6.69l-4.51-6.58-7.99-9.32,8.87-5.14Z"/>
      <path class="cls-27" d="M409.44,158.9l-2.93,3.99-5.27.24-20.43-6.87c-1.89-.64-3.58-2.68-3.41-4.25.15-1.33,3.04-3.01,4.33-2.57l27.72,9.46Z"/>
      <path class="cls-20" d="M695.09,306.13c-.23,3.36.82,5.45,2.42,8.49l9.26,17.65,5.19,9.18c-1.96-.04-4.98-.76-7.05-1.41-1.67-2.87-5.14-6.87-6.3-9.87-1.61-8.5-8.34-12.44-8.52-24.09l5,.05Z"/>
      <path class="cls-31" d="M468.03,189.6c-.34,4.24.17,8.88,1.29,12.88l-4.04-1.54-15.98-6.97.56-10.86,8.85,3.6c3.16,1.32,6.23,2.35,9.32,2.9Z"/>
      <path class="cls-19" d="M712.21,381.69l-2.64-3.06c-4.91-4.9-7.45-13.34-8.43-20.49-1.72-3-3-6.3-2.58-9.46,5.97,3.5,13,8.57,13.21,16.64l.43,16.36Z"/>
      <polygon class="cls-23" points="693.05 281.97 694.05 281.97 695.89 281.97 701.23 299.98 689.39 299.95 685.47 286.84 684.79 281.93 693.05 281.97"/>
      <path class="cls-30" d="M548.84,94.25l-3.79,6.2c-3.89-1.15-2.19-4.05-7.33-7.96l-7.05-4.7c2.08-3.63,4.96-6.94,8.21-9.91.07.78-.04,2.21.43,2.48l3,1.75,7.62,7.2c-.3,1.62-.49,3.97-1.09,4.94Z"/>
      <path class="cls-20" d="M663.06,248.99l2.23,8.95,3.06,8.93-10.16-.04-2.87-6.98c-1.83-3.69-3.63-7.05-4.41-10.93l12.15.06Z"/>
      <polygon class="cls-19" points="674.07 281.89 677 291.13 680.19 299.93 664 299.9 668.87 281.85 674.07 281.89"/>
      <path class="cls-30" d="M722.66,323.74c-1.76,4.48,3.33,5.97,2.64,14.2l2.85,3.62h-11.08s-.34-7.01-.34-7.01c-3.34-3.76-5.6-7.72-6.89-11.94l12.82,1.13Z"/>
      <path class="cls-3" d="M427.21,261.53l-16.11,19.27c-.85,1.02-3.77,1.03-4.65.47s-1.27-3.55-.61-4.33l14.91-17.81,6.46,2.41Z"/>
      <path class="cls-1" d="M645.54,99.27c-.5,1.33.08,3.76.49,5.39-1.32.87-4.01,1.35-5.84,1.35l-23.19-.06.91-7.04,27.63.36Z"/>
      <path class="cls-12" d="M342.52,136.73c-.23,1.02-2.53,2.48-3.48,2.5l-7.4.09c-4.1.05-10.35-2.74-15.43-4.32-2.16-.67-4.09-2.85-3.52-4.79s3.33-2.7,5.33-2l24.51,8.53Z"/>
      <polygon class="cls-20" points="684.79 281.93 685.47 286.84 689.39 299.95 680.19 299.93 677 291.13 674.07 281.89 684.79 281.93"/>
      <path class="cls-13" d="M475.09,169.43l-3.81,7.06-9.92-4.03-7.32-3.49,4.71-8.29c.28,1.08,2.34,2.42,3.27,2.64l12.62,2.99.44,3.14Z"/>
      <path class="cls-13" d="M577.94,246.09l-2.06,9.03c-.56.65-2.23-2.55-3.06-3.29l-12.59-11.08c1.08-3.38,2.28-6.99,4.28-9.79.11.4,1.08,2.15,1.49,2.59l8.31,9.06,3.63,3.49Z"/>
      <path class="cls-23" d="M545.05,100.45l-1,7.82c-1.35.04-3.77-1.1-4.81-2.08l-12.61-11.88,4.04-6.53,7.05,4.7c5.14,3.91,3.44,6.82,7.33,7.96Z"/>
      <polygon class="cls-23" points="662.41 241.46 662.41 234.41 663.85 229.14 679.61 237.91 664.17 247.57 662.41 241.46"/>
      <path class="cls-26" d="M660.63,291.37l-5.2-4.65c-3.46-3.9-5.78-8.72-6.29-13.56l13.66-.08c.18,6.92-.24,12.71-2.17,18.29Z"/>
      <path class="cls-5" d="M424.86,223.38l3.48,5.33-19.43,11.95c-1.74-2.2-3.72-3.41-6.05-4.12l22-13.17Z"/>
      <path class="cls-29" d="M320.62,79.97l2.93-4.96,19.13,12.16-.59,4.41c-.1.76-3.58.62-4.31.13l-17.16-11.74Z"/>
      <path class="cls-21" d="M802.03,364.74l-4.39-12.78-2.51-6.97,14.92,8c1.06.57,2.01,3.4,1.72,4.45-.25.87-1.46,2.69-2.27,3.14l-7.47,4.16Z"/>
      <polygon class="cls-18" points="512.3 405.08 509.71 399.82 507.52 392.03 505.73 386.31 517.23 386.18 517.33 405.06 512.3 405.08"/>
      <path class="cls-2" d="M700.91,120.65l-4.99-4.16,6.19-8.33c2.26-3.04,5.71-5.74,9.86-4.73,1.55.38,1.74,4.05.69,5.16l-11.75,12.06Z"/>
      <path class="cls-25" d="M730.56,305.48c-1.26,2.21-1.28,4.67.15,7.52l-19.24-.02.05-7.35,19.04-.15Z"/>
      <path class="cls-14" d="M475.09,169.43l-.44-3.14-12.62-2.99c-.93-.22-2.99-1.55-3.27-2.64,2.44-4.3,6.45-8.29,10.38-11.67l6.57,17.99c.2.54-.39,2.01-.62,2.44Z"/>
      <path class="cls-30" d="M653.15,207.03c3.77,5.75,6.59,12.18,6.82,18.82l-6.69-.07c-.34-2.73-1.49-5.88-2.96-8.64l-5.29-9.94,8.13-.16Z"/>
      <polygon class="cls-25" points="404.93 127.76 397.59 130.71 378.86 118.43 385.16 119.51 386.59 115.55 404.93 127.76"/>
      <path class="cls-18" d="M436.3,250.59l-4.46-4.73,11.3-13.54c.73-.87,3.87-1.28,4.82-.63s.97,3.72.2,4.64l-11.86,14.27Z"/>
      <path class="cls-12" d="M412.62,89.86l-5.84,3.31-9.11-11.2c-.78-.96-.39-4.34.47-5.07.71-.61,3.72-.41,4.38.41l10.1,12.56Z"/>
      <path class="cls-16" d="M314.1,298.69l-15.62,9.76c-1.05.66-3.72-.28-3.97-1.33-.21-.86-.14-3.88.61-4.34l10.75-6.51,3.45-1.81.68-.19c.04.77.42,2.79,1.23,3.15l2.88,1.26Z"/>
      <path class="cls-20" d="M662.41,234.41v7.06s-16.85,3.27-16.85,3.27c-.85-4.62,2.63-9.12,7.14-9.65l9.71-.68Z"/>
      <path class="cls-18" d="M506.02,364.97l1.43,4.7,1.84,4.88-13.43-.06c-1.04,0-2.78-2.36-2.78-3.48l.05-6.09,12.88.03Z"/>
      <path class="cls-26" d="M423.72,147.72l4.34-.44c.47,0,1.76-.32,1.87-.68l.71-1.89,12.17,8.23c.83.56,1.01,3.42.5,4.18s-3.5,1.28-4.38.69l-15.21-10.1Z"/>
      <polygon class="cls-23" points="418.38 136.65 411.54 139.79 397.59 130.71 404.93 127.76 418.38 136.65"/>
      <polygon class="cls-25" points="421.31 100.74 422.21 102.56 423.05 102.76 416.61 105.18 406.78 93.17 412.62 89.86 421.31 100.74"/>
      <polygon class="cls-16" points="436.3 250.59 427.21 261.53 420.75 259.12 431.84 245.85 436.3 250.59"/>
      <path class="cls-19" d="M430.64,144.72l-.71,1.89c-.11.36-1.4.68-1.87.68l-4.34.44-12.18-7.93,6.84-3.14,12.26,8.07Z"/>
      <path class="cls-30" d="M354.18,140.55l-5.04,5.33-17.5-6.56,7.4-.09c.95-.01,3.26-1.48,3.48-2.5l11.66,3.82Z"/>
      <path class="cls-24" d="M428.35,228.72l-3.48-5.33,10.8-6.47c1.09-.65,3.93-.03,4.22,1.08.25.93-.02,4.12-.85,4.6l-10.69,6.12Z"/>
      <path class="cls-20" d="M349.14,145.88l5.04-5.33,9.72,3.47c1.18.42,1.65,4.42.64,5.02-.85.5-2.98.93-4,.6l-11.4-3.76Z"/>
      <path class="cls-16" d="M402.86,236.55c2.34.71,4.31,1.92,6.05,4.12l-13.01,7.78-1.87-6.7,8.83-5.2Z"/>
      <path class="cls-31" d="M309.03,192.82l.17,14.19c0,1.01-1.84,2.72-2.68,2.75-1.06.03-3.15-1.73-3.16-2.96l-.09-11.43c.99-1.33,4.14-2.82,5.75-2.54Z"/>
      <path class="cls-27" d="M446.22,131.45l6.91,8.79c.64.82.38,3.55-.47,4.14s-3.72.35-4.36-.46l-6.66-8.39c.86-2.12,2.53-3.88,4.58-4.07Z"/>
      <polygon class="cls-20" points="437.42 120.78 432.51 124.48 423.4 113.43 429.47 110.85 437.42 120.78"/>
      <path class="cls-20" d="M581.31,146.73c-2.18,1.22-4.32,2.43-7.54,3.4-1.93.58-4.16-3.19-4.24-4.99l-.68-7.37c.31-.27,2.05-.54,2.52-.06l4.5,4.56,5.44,4.46Z"/>
      <path class="cls-29" d="M383.49,54.12c-.71.97-1.32,3.05-2.26,2.96l-3.7-.17c-4.99-4.58-7-10.17-4.5-11.16.72-.29,3.28-.4,3.77.2l6.69,8.18Z"/>
      <path class="cls-19" d="M446.22,131.45c-2.05.2-3.72,1.95-4.58,4.07l-9.13-11.05,4.91-3.7,8.8,10.67Z"/>
      <path class="cls-2" d="M377.52,56.91l3.7.17c.94.09,1.55-1.98,2.26-2.96l5.9,7.45c.65.82.4,3.56-.41,4.1-.65.43-3.69.89-4.17.29l-7.28-9.04Z"/>
      <path class="cls-13" d="M309.2,171.28l-5.7.09.11-10.78c.01-1,2.02-2.73,2.98-2.63s2.58,2,2.58,2.97l.02,10.36Z"/>
      <polygon class="cls-30" points="429.47 110.85 423.4 113.43 416.61 105.18 423.05 102.76 429.47 110.85"/>
      <path class="cls-25" d="M28.02,389.81l-6.27-.09v-4.38s4.23,2.03,4.23,2.03c.35.15,1.65.37,1.73.71l.31,1.73Z"/>
      <path class="cls-30" d="M641.74,204.4l-1.62-1.09c-.61-.41.78-2.61,1.44-2.14l.18,3.23Z"/>
      <path class="cls-21" d="M722.44,200.57l2.02-4.34-2.02,4.34Z"/>
      <path class="cls-25" d="M586.36,87.24c-.83.39-2.53.76-3.43.76l3.43-.76Z"/>
      <path class="cls-18" d="M502.1,386.35l-2.14.34,2.14-.34Z"/>
      <path class="cls-13" d="M310.5,175.64c-.17.13-1.16.77-1.17.49l-.11-2.1,1.29,1.61Z"/>
      <path class="cls-8" d="M635.25,72.16l-3.28-2.18,3.28,2.18Z"/>
      <path class="cls-23" d="M715.15,299.38l-2.39.62,2.39-.62Z"/>
      <path class="cls-25" d="M378.11,117.23l-2.33-.97,2.33.97Z"/>
      <path class="cls-3" d="M305.87,296.27l3.45-1.81-3.45,1.81Z"/>
      <path class="cls-19" d="M605.09,186.06h-1.09s1.09,0,1.09,0Z"/>
      <path class="cls-8" d="M727.08,187.3l.15-1.18-.15,1.18Z"/>
      <path class="cls-25" d="M742.68,371.69l-.53-.78.53.78Z"/>
      <path class="cls-29" d="M702.69,81.58l-2.13.47c.26-.25.93-.39,1.2-.44l.93-.03Z"/>
      <path class="cls-7" d="M335,352.49l1.05-.14-1.05.14Z"/>
      <path class="cls-25" d="M735.63,305.44l1.19-1.25c-.04.27-.92,1.25-1.19,1.25Z"/>
      <path class="cls-14" d="M605.07,292.86h1.06c-.5,1.13-.64,1.2-1.06,0Z"/>
      <path class="cls-13" d="M301.84,175.31l1.42.21-1.42-.21Z"/>
      <path class="cls-30" d="M422.21,102.56l-.9-1.83.9,1.83Z"/>
      <path class="cls-25" d="M693.05,281.97h1s-1,0-1,0Z"/>
      <path class="cls-25" d="M37.47,390.05l-1.52-.12,1.52.12Z"/>
      <path class="cls-25" d="M571.69,109.06l-1.19.21,1.19-.21Z"/>
      <path class="cls-21" d="M754.33,276.84l-1.44-.59,1.44.59Z"/>
      <path class="cls-21" d="M710.19,153.26v-1.07s0,1.07,0,1.07Z"/>
      <path class="cls-8" d="M682.79,119.65l.32-1.55-.32,1.55Z"/>
      <path class="cls-16" d="M524.9,337.18l-.95-.28.95.28Z"/>
    </g>
  </g>
  <g>
    <path class="cls-10" d="M259.54,336.78l-25.65.24-.1,16.01-12.55-.92.07-15.15-20.23.06-20.98.07-.08,68.12h19.01c.26-16.97-.67-33.2.72-49.19l17.26-.11.59,49.29,19.58.03.05-49.37,18.88.18.18,49.19,18.93-.03.13-52.71-15.44-.07-.38-15.64Z"/>
    <polygon class="cls-10" points="40.86 386.33 40.79 308.77 21.62 308.9 21.74 385.34 21.75 389.72 28.02 389.81 35.95 389.93 37.47 390.05 37.82 405.27 68.08 405.38 68.02 386.44 40.86 386.33"/>
    <polygon class="cls-10" points="468.01 355.8 467.94 337.07 450.99 336.69 450.76 319.17 431.85 319.46 432.1 389.75 447.46 389.81 447.6 405.23 467.87 405.18 467.85 386.15 450.87 385.64 450.92 355.87 468.01 355.8"/>
    <polygon class="cls-10" points="407.69 336.85 365.94 336.99 359.69 337.01 359.8 405.03 378.84 405.27 378.89 355.95 404.02 355.83 404.3 405.21 423.02 405.21 423.2 352.52 407.85 352.39 407.69 336.85"/>
    <polygon class="cls-10" points="525.03 352.33 524.9 337.18 523.95 336.9 501.1 336.87 476.47 336.82 476.46 355.84 509.17 355.9 521.42 355.92 521.48 364.92 506.02 364.97 493.14 364.94 476.42 364.81 476.43 389.56 492.24 389.86 492.38 405.15 512.3 405.08 517.33 405.06 517.23 386.18 505.73 386.31 502.1 386.35 499.96 386.7 495.8 386.58 495.87 374.5 509.29 374.56 521.44 374.61 521.73 405.18 540.88 405.1 540.84 352.41 525.03 352.33"/>
    <polygon class="cls-10" points="568.81 386.42 568.77 366.49 568.74 348.46 568.67 308.43 549.43 308.47 549.65 330.71 549.72 348.25 549.68 389.64 565.11 389.83 565.19 405.03 595.88 405.1 595.73 386.5 568.81 386.42"/>
    <path class="cls-10" d="M718.39,401.92l-6.44-.58.26-19.66-.43-16.36c-.21-8.08-7.24-13.15-13.21-16.64-5.81-3.4-8.92-8.84-10.86-15.3-2.98-9.95-9.2-18.05-16.55-25.35-1.82-1.81-5.97-2.84-8.27-2.51-4.12.59-7.66,3.86-10.8,7.53l8.29,7.83c6.85,6.47,11.48,14.49,13.27,23.81,2.98,15.58,15.18,15.9,20.79,25.11l.46,21.4.05,7.93c0,.67-1.33,2.4-1.85,2.87-1.41-.33-4.74.1-6.59.77-1.44.52-.98,4.91-.26,6.28l12.12,22.83c1.35,2.55,3.26,4.46,6.01,4.02,2.76-.44,3.85-3.3,4.99-5.35l4.09-7.35,8.59-15.84c.46-.86.23-3.67-.43-4.18-.67-.5-2.33-1.18-3.21-1.26Z"/>
    <path class="cls-10" d="M155.11,352.57l-.09-15.22-2.55-.14-23.21-.02-5.16-.04-.12-28.31-19.21.04.12,96.3,15.05.02,19.89.02,15.39-.05.34-15.4,15.05-.12v-36.78s-15.5-.28-15.5-.28ZM151.27,386.4l-10,.21-17.46-.29.2-30.11,6.07-.14,18.43-.03c.59,0,2.35.67,2.78.89l-.03,29.47Z"/>
    <path class="cls-10" d="M620.98,310.67l21.2-.62c4.99-.15,9.4-3.9,12.2-7.41,2.74-3.44,4.79-7.04,6.25-11.26,1.93-5.59,2.35-11.37,2.17-18.29l-13.66.08-4.33.03-1.64,16.08c-3.69,2.92-7.61,3.9-12.22,3.86l-22.12-.22-2.7-.03h-1.06c-19.1-1.49-31.68-18.89-29.19-37.75l2.06-9.03c.78-3.42,3.32-6.98,5.48-9.78,2.07-2.69,5.92-6.09,8.92-7.64,4.63-2.4,10.59-3.17,15.67-3.15l14.03.04,14.07.04,9.18.08,7.99.09,6.69.07,14.3.02c10.88.02,21.36-.98,30.56-6.88,7.15-4.58,13.96-10.55,17.61-18.43l2.02-4.34.44-1.51,2.18-7.42.15-1.18.15-4.81.68-27.75,5.02-1.73c1.52-.24,3.35-.45,4.09-1.15s1.04-3.14,1.14-4.49l-14.67-27.73c-.97-1.06-2.92-2.5-4.11-2.69-1.39-.23-4.15,1.53-4.86,2.92l-6.2,12.04-8.13,14.98c-.96,1.77.99,5.8,2.78,5.94l7.09.54v1.07s.23,11.92.23,11.92c.12,6.22-.03,13.21-1.63,19.11-2.16,7.99-7.56,14.9-14.77,18.82-5.04,2.74-11.72,3.94-17.85,3.95l-10.29.02-12.75-.04-8.13.16-2.28-.42c-.77-.14-.98-1.79-.99-2.38l-.18-3.23-.14-3.05.33-11.62c2.89,0,6.9-.1,9.54-.97,4.3-1.42,5.67-5.96,5.26-9.58-.37-3.21-3.32-7.95-7.37-7.98l-22.07-.14h-14.21s-7.89,0-7.89,0l-5.63-.11c-.47-3.56.08-7,2.62-9.41.94.13,3.03.26,3.35,1.18l1.74,5.01,12.61-7.35c.47-.28,1.54-1.51,1.82-1.91.37-.53-.34-2.68-.97-2.99l-12.93-6.19c-1.93,3.7-4.2,5.35-7.63,5.7-3.22.33-6.62,1.64-7.79,5.75-.73,2.57-1.56,7.51-.94,9.89l-20.19.7c-6.84.22-12.31,5.31-15.41,10.71-5.1,8.88-2.51,13.7-6.44,20.54-2.47,1.32-5.12,2.25-8.01,2.3l-8.32.14-20.01-.29-.61-8.49c-4.21-3.58-7.9-.09-11.19,1.77l-17.44,9.87-4.74,3.09c-1.27.83-1.11,5.57.3,6.39l27.12,15.7c.92.53,3.81.48,4.55-.17.74-.65,1.62-2.55,1.68-3.59l.26-6.05,23.23-.32c6.51-.09,13.25.9,19.05-2.18,3.95-2.1,7.24-4.7,10.04-8.13,3.67-4.49,5.38-10.37,5.13-16.25l2.91-6.37c2.02-.52,5.75-.9,7.92-.88l19.08.13,3.86.03h1.09s8.01.04,8.01.04l9.94.04v7.94s.14,12.95.14,12.95h-10.17s-15.98.73-15.98.73c-5.72.26-11.41,3.2-16.16,6.12-3.63,2.23-7.46,4.6-9.92,8.04l-6.46,9.06c-2,2.81-3.21,6.41-4.28,9.79-2.11,6.63-3.03,13.6-2.79,20.55.8,23.06,15.33,43.66,38.71,48.36,8.03,1.61,16.55,1.24,24.83,1Z"/>
    <path class="cls-10" d="M746.1,196.34c-7.27,4.06-12.53,10.81-15.21,18.72-3.7,10.94-2.84,23.83,5.12,33.17,5.79,6.8,14.81,8.66,23.46,7.37l.6,6.74c.07.78.71,2.48,1.18,3.08.46.6,2.92.71,3.62.32l12.56-7.08,16.71-9.49c2.53-1.43.3-6.02-1.81-7.18l-26.54-14.62c-1.73-.95-5.86.46-5.97,2.21l-.43,7.53c-1.96.32-5.73.28-7.62-.7-5.94-3.08-6.34-16.82,2.83-24.04,2.23-1.75,7.47-2.97,10.55-4.01,5.74-7.15,4.64-16.63-.43-23.62-3.27-4.51-2.99-10.88.45-14.55,5.05-5.39,9.02-11.29,10.73-19.6l-16.58-8.4c-1.8,5.55-2.98,9.73-5.35,13.08-3.69,5.19-8.86,9.7-10.07,16.78-1.76,10.36,5.14,20.1,4.19,21.44l-2,2.85Z"/>
    <path class="cls-10" d="M282.77,187.14l15.69.21-11.06,10.87c-.73.71-1.01,3.23-.69,4.13.39,1.08,3.96.97,4.88.1l11.11-10.47.58,3.4.09,11.43c0,1.23,2.1,2.99,3.16,2.96.85-.02,2.68-1.74,2.68-2.75l-.17-14.19c1.09.19,3.36,1.21,4.26,2.06l8.04,7.57c.57.54,3.07.52,3.81.29.93-.3.92-3.48.16-4.29l-10.54-11.17,14.27-.18c1.24-.02,3.46-1.54,3.72-2.59,1.27-5.12-10.26-1.41-16.94-5.17l9.59-10.34c.62-.67.53-4.13-.36-4.33-1.08-.24-3.43.41-4.24,1.18l-10.29,9.8-1.29-1.61v-2.75s-.03-10.36-.03-10.36c0-.97-1.62-2.87-2.58-2.97-.96-.09-2.97,1.63-2.98,2.63l-.11,10.78-.24,4.15-1.42-.21-10.49-10.16c-.71-.69-3.46-.84-4.3-.4-1.01.53-.77,3.65.31,4.76l11.11,11.45-14.73.18c-1.26.02-3.59,1.35-3.77,2.51-.2,1.32,1.53,3.47,2.8,3.49Z"/>
    <path class="cls-10" d="M93,337.88l-17.13-.06v35.95s0,31.43,0,31.43l19.48-.04-.07-66.11c-.1-.16-1.74-1.18-2.28-1.18Z"/>
    <path class="cls-10" d="M170.54,302.97l10.04-.44c1.04-.05,3.07-1.93,2.67-2.77-.32-.68-1.92-1.8-2.76-1.85l-10.74-.7,7.34-7.54c.67-.69.89-3.92,0-4.04-.88-.12-3.41.16-4.06.82l-6.92,7.03-.86-10.49c-.07-.83-1.99-2.41-2.7-2.09-.71.32-1.74,1.86-1.79,2.65l-.58,10.07-8.28-7.83c-.62-.58-3.23-.43-3.41.3-.14.54-.22,2.47.14,2.91l6.79,8.21-10.04.54c-.91.05-2.66,2.03-2.19,2.81.38.62,2.08,1.61,2.82,1.65l9.89.51-6.99,7.96c-.66.75-.83,3.86.05,3.99.7.1,2.87-.1,3.37-.58l7.78-7.43.91,10.56c.08.89,1.74,2.43,2.49,2.19.56-.18,1.52-1.7,1.58-2.53l.79-10.3,7.99,7.52c.73.69,3.54.93,3.72.05.15-.7.09-3.07-.38-3.6l-6.68-7.57Z"/>
    <path class="cls-10" d="M527.21,303.83c.05-.76-1.67-2.15-2.48-2.19l-10.89-.44,7.4-7.48c.7-.7.87-3.92-.03-4.07-.73-.11-2.75.15-3.29.64l-7.74,7.07-.6-10.7c-.05-.89-2.05-2.38-2.78-2.01-.59.3-1.48,1.82-1.51,2.55l-.45,10.18-8.13-7.49c-.61-.57-3.15-.75-3.38.02-.17.57-.21,2.77.19,3.22l6.92,7.96-11.53.75c-.44.56-1.17,3.29-.4,3.46l3.53.77,7.42,1.64-6.31,7.25c-.4.46-.22,3.19.43,3.17.65-.02,2.66-.33,3.13-.74l8.07-6.9.3,9.75c.03.99,1.49,2.75,2.35,2.7.69-.03,2.11-1.64,2.16-2.43l.62-10.52,8.03,7.55c.58.55,3.26.46,3.43-.28.12-.55.24-2.54-.14-2.96l-7.02-7.67,9.68-.48c1.05-.05,2.98-1.37,3.04-2.32Z"/>
    <path class="cls-10" d="M627.3,146.81c4.19-.49,8.51-3.83,8.52-9.11l.06-27.21-18.78.04.38,28.44c.06,4.85,6.14,8.28,9.82,7.84Z"/>
    <path class="cls-10" d="M756.73,382.55l-14.57-11.65c-1.45-1.49-5.33-4.61-5.79-6.83l-3.34-16.09-8.17-.04-5.9-.03-5.33-.03,5.67,20.1c3.01,8.99,8.72,15.91,16.52,20.5l7.91,7.09c.74.66-.32,3.43-1.24,4.11-1.79,1.31-3.03,6.89-.66,7.5l14.24,3.68,6.12,1.45,10.12,2.4c.98.23,3.72-.11,3.94-1.07l1.02-4.46-10.52-31.34c-4.6-1.1-7.19.85-10,4.71Z"/>
    <path class="cls-10" d="M475.12,143.05c-.96,8.48,2.46,17.73,8.89,24.13,8.5,8.46,20.62,5.08,22.9,6.77,1.17.86.12,10.96,5.08,9.66,3.78-.99,7.24-3.35,10.19-4.99l8-4.45,10.85-5.85c1.17-.63,2.31-3.53,2.09-4.66-.25-1.32-1.85-3.04-3.35-4.15l-26.39-14.69-4.12.05c-.92.01-1.67,2.49-1.74,3.46l-.71,6.34c-2.05-.68-6.8.46-8.9-1.24-3.41-2.76-4.12-7.39-3.98-11.18.2-5.6,2.22-10.83,4.41-16.19l7.72-8c6.44-3.32,13.83-6.74,20.59-4.51-.53,10.31,6.17,20.15,15.55,23.46,4.02,1.42,8.91.69,12.78.75l11.45.17,2.44-.17.68,7.37c.08,1.79,2.31,5.57,4.24,4.99,3.23-.97,5.37-2.18,7.54-3.4l9.87-5.53,6.76-3.81,7.13-4.03c1-.56,2.46-3.7,1.85-4.64l-2.53-3.9-28.26-15.85c-.93-.11-2.12-.23-2.76-.15l-1.68.23-1.19.21-.18,9.92c-7.5.65-14.47.51-21.52-.72-2.6-2.54-5.24-6.39-4.76-10.19l1-7.82,3.79-6.2c5.52-7.3,14.11-6.4,22.14-6.35l11.95.08c.9,0,2.6-.37,3.43-.76,3.59-1.68,8.79-4.13,12.7-4.87,10.91-2.07,21.38,1.14,29.91,7.89,4.98,3.94,13.05,4.72,16.32-.61,4.67-3.48,9.87-6.43,15.59-7.61,6.55-1.35,13.55.06,20.04,2.42l19.55-9.59c-13.72-11.99-32.79-14.51-49.59-9.19-4.93,1.56-9.44,3.96-13.99,6.72-.18,0-1.31-.03-1.64-.25l-3.28-2.18c-9.23-6.12-21.35-8.28-32.2-6.36l-9.96,1.76-9.46,3.04-20.83.45c-2.17.05-5.74,1.29-7.61,1.81-4.85,1.36-9.33,3.8-13.04,7.18-3.25,2.97-6.13,6.28-8.21,9.91l-4.04,6.53c-3.59-.36-8.56,0-12.61.7-10.3,1.79-19.36,7.17-26.15,14.97l-6.42,8.88c-2.78,3.84-4.6,8.83-5.14,13.64l-1.19,10.56Z"/>
    <path class="cls-10" d="M433.97,186.75c-.31-1.08-2.25-2.34-3.87-2.41l-72.08-2.97c-2.38-.1-4.12,1.23-4.25,3.31-.07,1.19,1.76,3.23,3.29,3.29l73.47,2.96c2.71.11,3.95-2.35,3.44-4.18Z"/>
    <path class="cls-10" d="M461.5,274.17l5.84-6.36c.57-.62.86-3.31.06-3.42-.6-.08-2.58.07-3.03.49l-6.34,5.92-.58-8.08c-.06-.8-1.21-2.27-1.9-2.36-.68-.08-2.09,1.35-2.14,2.06l-.55,8.2-6.18-5.57c-.69-.44-3.96-.71-4.02.11-.06.82.42,2.88,1.02,3.47l5.69,5.53-8.64.78c-.63.06-1.95,1.22-2.31,1.74-.37.52,1.58,2.01,2.27,2.07l8.79.73-5.24,5.57c-.48.51-1.43,2.84-.96,3.28l1.96,1.78,7.7-7.11.93,9.56,2.24.12c.32.02,1.12-1.36,1.15-1.81l.72-8.35,6.44,5.89c.48.44,3.11.57,3.14-.12.03-.52.02-2.43-.33-2.81l-5.62-6.22,9.85-.71-.15-3.46-9.84-.89Z"/>
    <path class="cls-10" d="M302.24,84.2l9.91-4.5.53,9.3c.06.99.75,2.88,1.32,3.52.57.64,3.34-.04,3.62-.75l.73-10.5c.05-.72,2.34-1.54,2.27-1.3l17.16,11.74c.73.49,4.21.63,4.31-.13l.59-4.41-19.13-12.16c-.09-.5-.42-1.76-.05-1.97l1.57-.88,7.08-3.94c.95-.53,1.9-3.17,1.1-3.83-.67-.55-3.33-1.16-4.22-.73l-10.21,5.01-.25-11.22c-.02-1.05-2.04-2.84-3.01-2.63-.77.16-2.19,1.74-2.26,2.63l-.77,9.76-8.71-5.94c-1-.68-4.33.35-4.41,1.49-.07.95.55,3.15,1.4,3.81l8.77,6.78-10.29,6.71c-.6.39-1.05,2.69-.7,3.32.35.64,2.91,1.15,3.64.82Z"/>
    <path class="cls-10" d="M838.96,315.28l-24.52-13.38c-1.17-.64-4.45-.48-5.73-.08l-1.44,9.24-11.6.46-8.74.07-7.91,17.08,25.13-.43,3.32,1.06c1.04.33-.19,4.16,1.93,7.99.49.88,3.73,1.08,4.75.51l11.78-6.51,13.27-7.26c1.17-.64,2.91-3.03,2.92-4.35s-1.69-3.6-3.17-4.41Z"/>
    <path class="cls-10" d="M373.35,218.1c-.72-.82-2.83-1.65-4.25-1.87l-55.66,13.61c-1.39.53-2.66,3.38-2.13,4.63.45,1.07,3.42,1.92,4.69,1.61l55.04-13.43c1.7-.41,3.14-3.62,2.31-4.56Z"/>
    <path class="cls-10" d="M387.46,218.73l46.1-11.09c1.1-1.05,2.35-3.37,1.84-4.48-.44-.95-3-1.69-4.16-1.68l-44.75,10.45c-.96.47-2.47,2.61-2.61,3.79-.13,1.12,1.92,2.7,3.59,3.01Z"/>
    <polygon class="cls-10" points="536.66 238.56 554.43 238.45 555.22 231.54 536.12 231.44 534.14 224.7 517.65 234.82 534.65 245.65 536.66 238.56"/>
    <polygon class="cls-10" points="95.29 308.72 75.76 308.75 75.85 326.96 95.28 326.91 95.29 308.72"/>
    <path class="cls-10" d="M691.92,162.98l-7.2,13.83,5.75,2.25.08,16.82c1.68-.19,6.66-2.35,6.75-4.28l.55-11.61c1.1-1.02,3.41-1.91,6.27-2.91l-6.85-14.02c-.35-.72-1.98-2.09-2.74-2.08-.77.01-2.25,1.32-2.6,2Z"/>
    <path class="cls-10" d="M671.64,102.87c-4.11,5.3-7.23,11.6-9.02,18.26-2.37,8.78-2.42,17.95-2.55,27.03l-7.37.86c-1.39.16-1.81,4.43-1.08,5.75l14.66,26.19c.85,1.51,5.45,3.52,6.3,2.09l8.08-13.7,7.71-14.73c.48-.92.59-3.54-.04-4.24-.62-.7-2.57-1.46-3.51-1.55l-5.98-.56-.09-7.8c-.08-7.04,2.01-14.08,4.04-20.8l.32-1.55.55-.5c3.37-3.91,6.5-8.94,10.78-11.96,5.08-3.58,11.69-6.26,17.81-7.09,7.2-.97,15.13.15,21.67,2.84,14.29,5.88,24.07,18.54,25.31,34.16l21.81,11.96c12.62,7.31,18.76,21.55,14.97,35.74-.87,1.79-3.89,5.58-5.99,5.63l-16.15.37c.89,6.28.47,11.88-1.5,18.59l17.61-.18c9.26-.1,17.33-5.39,21.31-12.75,3.13-5.8,4.31-12.37,4.47-19.14.37-16.15-7.26-32.56-21.12-42.1l-18.17-9.01c-2.62-9.56-6.83-17.96-13-24.87-4.68-5.24-10.04-9.73-16.36-13.08-5.88-3.12-12.46-5.49-19.23-6.55-9.12-1.43-27.58-.84-42.91,9.45-5.33,3.58-9.5,8.34-13.32,13.27Z"/>
    <path class="cls-10" d="M594.66,274.49c-7.11-5.23-5.03-14.03-9.88-13.08-6.16,1.21-2.11,16.94,9.42,20.67,1.83.59,2.76,2.74,2.87,5.92l16.43-3.84-11.73-13.17-2.56,4.14c-.53.86-3.64.01-4.55-.65Z"/>
    <path class="cls-10" d="M225.34,87.44l-2.44,1.65-3.21,2.17c-.72.49.1,3.36.79,3.8l7.55-2.88,1.51,8.49,2.96-.57.92-8.44,5.82,3.19c.63.34,3.06.15,3.24-.53.19-.68-.14-2.59-.71-3.04l-5.77-4.58c2.97-1.48,6.4-3.83,7.08-6.27-2.95-2.65-6.17-.1-9.58,2.36l-.82-8.66c-.2-.55-2.86-.64-3.08.18l-.87,3.16-1.02,3.8-7.67-2.79c-2.83,5.76,7.42,7.55,5.3,8.98Z"/>
    <path class="cls-10" d="M769.97,285.2c-3.9-3.86-9.03-6.73-13.9-7.93l-1.74-.43-1.44-.59-13.97-2.83-9.41-1.67c-6.38-1.13-12.05,8.17-21.66,10.02l-11.96.19h-1.84s-1,0-1,0l-8.26-.04-10.72-.05-5.2-.03-4.87,18.05,16.19.03,9.2.02,11.85.02,11.52.02,2.39-.62,2.28-.31c3.51-.48,8.95-4.49,12.69-7l19.93,2.21c4.81.53,11.03,9.51,20.05,9.79,5.32.16,10.63-.95,16.01-2.88l-16.12-15.98Z"/>
    <path class="cls-10" d="M800.5,289.07c3.46-1.83,6.87-4.35,9.85-7.25,9.46-9.22,15.26-20.93,16.91-34.31,2.1-17.01-1.91-34.51-12.42-47.17-3.58,3.91-7.68,8.01-11.67,10.31l-3.34,1.92c11.84,14.23,13.2,33.53,2.82,49.17-2.3,3.47-6.18,7.37-9.6,9.95-5.97,4.51-12.36,6.06-20.7,7.91l16.27,15.76,11.88-6.28Z"/>
    <path class="cls-10" d="M254.04,130.08l5.07,3.48-6.37,4.76c-.52.39-.11,3.23.56,3.25.66.02,2.2-.12,2.81-.44l5.56-2.94.86,8.81,2.88.02c.41,0,.52-1.23.54-1.71l.31-7.04,8.41,4.06c3.43-4.42-5.5-8.21-4.83-8.69l2.2-1.6c2.06-1.49,5.02-2.9,3-6.57-2.25.64-5.31,2.16-8.61,3.96l-.83-9.54c-4.02,1.45-4.02,3.56-4.13,8.38l-5.36-2.36c-.94-.41-3.74-.11-3.68.91.05.85.88,2.79,1.6,3.28Z"/>
    <path class="cls-10" d="M292.06,234.33l-36.55,8.91c-1.44.35-2.48,3.93-1.79,4.95.6.88,3.06,1.9,4.1,1.65l36.54-9.05c1.57-.39,2.89-3.62,2.22-4.72-.57-.94-3.23-2.05-4.53-1.74Z"/>
    <polygon class="cls-10" points="736.52 313.3 737.67 321.13 756.95 309.16 737.83 297.33 736.82 304.19 735.63 305.44 730.56 305.48 711.52 305.62 711.47 312.98 730.71 313 736.52 313.3"/>
    <path class="cls-10" d="M395.9,248.45l13.01-7.78,19.43-11.95,10.69-6.12c.83-.48,1.09-3.67.85-4.6-.29-1.11-3.13-1.73-4.22-1.08l-10.8,6.47-22,13.17-8.83,5.2-34.51,20.8-.47,4.12c-.12,1.05,2.52,1.56,4.16,1.66l32.69-19.88Z"/>
    <path class="cls-10" d="M451.08,90.24c.83.53,2.29,2.33,2.13,2.7l-9.78,6.26c-.57.37-.92,2.44-.9,3.12.03.85,2.69,1.96,3.54,1.49l11.15-6.18.35,11.65c.02.77.69,2.22,1.24,2.71.69.62,3.68-.36,3.72-1.36l.51-12.99,10.38,5.9c.98.55,3.68-.02,3.81-1,.12-.98-.74-3.44-1.63-4.08l-9.18-6.56,10.36-6.7c.87-.54,1.48-3.35.79-3.98-.55-.51-2.89-1.04-3.6-.64l-10.9,6.04-.55-12.88c-.04-.87-2.08-2.38-2.88-2.16-.81.23-2.11,1.87-2.14,2.78l-.46,12.62-10.94-6.38c-.76-.44-3.24-.13-3.61.55-.38.68-.41,3.37.24,3.79l8.34,5.32Z"/>
    <path class="cls-10" d="M471.29,176.49l3.81-7.06c.23-.44.82-1.9.62-2.44l-6.57-17.99c-3.93,3.38-7.94,7.37-10.38,11.67l-4.71,8.29c-2.51,4.42-3.95,9.43-4.19,14.14l-.56,10.86c-.61,11.91,4.12,23.25,11.49,32.31l7.46,7.75c6.88,19.57,24.6,32.07,45.41,32.11l19.1.03,18.95.2.57-17.98-28.91-.23-14.34-.69c-10.65-.51-19.1-9.05-22.34-18.87-3.02-9.15-13.66-12.87-17.37-26.13-1.12-4-1.62-8.64-1.29-12.88.34-4.34,1.12-9.15,3.26-13.11Z"/>
    <path class="cls-10" d="M632.28,358.43l-4.35-.58c-1.23-.16-4.79.09-4.89-1.11l-.37-4.63-.61-4.29c-.14-.95-3.68-.2-4.28.29l-.63,9.31-7.32.23c-1.05.03-3.09,1.08-3.37,2.06-.28.99,1.38,3.61,2.42,3.6l8.27-.1.29,7.9c.04,1.06,1.89,2.98,2.9,2.78.84-.17,2.14-2.11,2.19-3.15l.33-7.39,9.43-.55c.91-.15.97-4.23,0-4.36Z"/>
    <path class="cls-10" d="M682.55,453.29l-.14-6.92c-.02-.95-.98-2.74-1.81-3.19-.67-.36-3.09.7-3.14,1.46l-.58,8.37-9.35.77c-1.2.16-1.16,4.49-.08,4.82l9.42.57.78,9.22c.09,1.02,4.18,1.24,4.29.24l.46-4.24c.15-1.4-.08-5.09,1.14-5.21l4.57-.45,4.47-.53c1.01-.12.37-3.88-.31-4.43l-9.7-.47Z"/>
    <path class="cls-10" d="M214.78,305.3l7.16-.02.46,8.66c.06,1.2,2.85,2.26,3.69,1.66.69-.5,1.49-2.54,1.52-3.57l.22-6.6c3.28-.16,7.25-.24,9.31-.89.87-.27.91-3.9-.02-4.05l-4.15-.65c-1.24-.19-4.92.12-5.02-1.1l-.41-4.69c-.12-1.38-.66-3.44-1.3-4.3-.53-.72-3.5.15-3.57,1.03l-.71,8.77-7.1.21c-1.65.05-3.39,1.32-3.42,3-.02,1.06,2.18,2.56,3.33,2.55Z"/>
    <path class="cls-10" d="M771.38,77.67l8.68.43.23,7.97c.03,1,2.34,2.46,3.24,2.21.91-.25,1.92-2.28,1.94-3.32l.14-6.9,8.9-.4c.92-.04,1.88-3.09,1.31-3.84-1.96-2.57-9.66-.06-9.86-2.18l-.51-5.49c-.14-1.55-.41-3.06-1.06-3.75-.65-.69-3.75.32-3.8,1.23l-.53,8.65-7.15.22c-1.1.03-3.1,1.26-3.43,2.23-.27.81,1,2.91,1.91,2.95Z"/>
    <path class="cls-10" d="M76.32,271.28l.36-9.13,8.31-.21c1.04-.03,2.67-2.27,2.27-3.15-.32-.7-1.84-1.91-2.66-1.93l-8-.26-.2-8.02c-.03-1.03-1.94-2.77-2.84-2.52-.9.25-2.07,2.06-2.11,3.03l-.34,7.21-8.54.48c-.78.04-1.83,2.09-1.74,2.87.06.59,1.12,2.09,1.71,2.11l8.54.35.66,10.34c.96.57,4.54-.04,4.58-1.17Z"/>
    <path class="cls-10" d="M671.37,411.33l7.43-13.22c.54-.97.77-4.37-.13-4.91-4.19-2.52-8.89-.84-9.05-1.67l-.77-4.09.15-14.26.07-15.83c.04-8.35-.73-16.67-6.62-23.68-5.42-6.45-11.64-12.02-18.49-16.79-1.96-1.36-6.52-.39-9.03-.31l-8.98.27c2.73,23.57,25.83,16.43,25.65,42.15l-.2,28.11-.25,3.45c-.07.95-2.24,1.21-3.19,1.29l-4.3.32c-1.28.1-2.15,3.6-1.57,4.75l13.77,27.48c1.32,2.64,6.44,3.12,7.86.64l4.49-7.83,3.15-5.86Z"/>
    <path class="cls-10" d="M804.53,121.65l8.92.37.18,7.27c.03,1.14,1.67,3.08,2.87,3,.94-.06,2.33-2.13,2.35-3.31l.11-6.96,8.53-.42c.92-.04,2.48-2,2.19-2.79-.29-.78-2-2.16-2.83-2.19l-7.9-.26-.5-9.41c-.99-.39-3.8-.81-4.13.06-1.62,4.21.05,9.06-1.75,9.18l-4.62.31c-1.79.12-3.77.44-4.57,1.27-.67.69.28,3.83,1.17,3.86Z"/>
    <path class="cls-10" d="M517.3,39.73l8.01.15.17,8.25c.02,1.01,2.13,2.48,3.07,2.28.94-.19,2.1-2.17,2.12-3.21l.17-7.13,8.68-.5c1.03-.06,2.09-3.03,1.43-3.75-2.39-2.6-9.86-.04-9.98-2.16l-.31-5.63c-.09-1.55-.86-3.67-1.98-3.82-.92-.12-3.12,1.16-3.15,2.08l-.26,7.82-7.31.34c-.96.04-2.73,1.38-2.97,2.27-.24.9,1.24,3,2.3,3.02Z"/>
    <path class="cls-10" d="M617.93,46.71h7.19s.46,9.81.46,9.81c.84.48,3.97.85,4.25-.08,1.4-4.65-.22-9.51,1.56-9.58l4.86-.19c1.36-.05,3.43-.59,4.22-1.32.67-.61-.02-3.63-.94-3.68l-8.91-.52-.19-7.73c-.03-1.06-1.66-2.99-2.68-2.85-.85.11-2.54,1.92-2.56,2.8l-.19,7.93-7.25.04c-1.3,0-3.39,1.94-3.07,3.23.24.96,2.18,2.15,3.24,2.14Z"/>
    <path class="cls-10" d="M644.36,266.82l13.83.02,10.16.04,11.85.07,10.45.47c-.43,3.91-.52,8.66,2.23,9.83,3.28,1.39,7.03-2.42,9.38-3.69l22.04-11.86c1.12-.6,2.62-3.06,2.46-4.12-.19-1.24-1.61-3.08-2.78-4.29l-27.15-15.03c-1.28-.07-3.65-.06-4.64.25-.99.31-1.64,2.62-1.7,3.71l-.39,6.99-15.13-.2-11.91-.02-12.15-.06-13.93-.07-6.82-.04-.51-8.32c-.07-1.19-2.99-3.51-4.08-3.01l-4.74,2.16-8.87,5.14-8.34,4.83-6.74,3.65c-1.19.64-2.78,3.09-2.83,4.4s1.4,4.15,2.65,4.84l24.04,13.26,4.12,2.09c1.09.55,4.41-1.05,4.74-2.25.61-2.19.75-6.52.43-8.23l6.11-.52,8.22-.04Z"/>
    <path class="cls-10" d="M583.08,428.48l-7.55-.36-.88-10.37-3.36.25c-.72.05-1.4,2.41-1.4,3.16v7s-9.38.65-9.38.65c-1.35.09-1.49,4.73-.01,4.84l9.19.71.33,6.94c.06,1.19,1.59,2.96,2.56,3.11.97.15,2.64-2.06,2.63-3.19l-.04-7.31,8.41-.13c.86-.01,2.61-2.24,2.42-3.12-.2-.87-1.95-2.15-2.91-2.19Z"/>
    <path class="cls-10" d="M394.98,303.98l-.3-6.78c-.05-1.02-1.92-2.87-2.92-2.64-.83.19-2.02,1.96-2.08,2.84l-.42,6.63-8.06.38c-1.22.06-2.57,3.07-1.75,3.77,3.41,2.88,9.52.09,9.73,2.36l.51,5.55c.08.91.79,2.81,1.42,3.43.62.62,3.03-.01,3.09-.89l.27-4.19c.08-1.17-.04-4.47.96-4.56l4.57-.42,4.09-.55c.91-.12.8-3.74-.09-3.85l-9.03-1.08Z"/>
    <path class="cls-10" d="M137.04,434.03l-7.68-.03-.36-8.64c-.03-.83-2.77-2.09-3.38-1.51-.46.44-1.36,1.89-1.39,2.51l-.44,7.42-6.99.19c-1.25.03-3.47,1.51-3.52,2.61-.05,1.11,1.86,2.9,2.98,2.94l7.65.31.22,8.22c.02.71,1.72,2.13,2.45,2.32.74.19,2.41-1.5,2.42-2.27l.17-8.31,8.87-.48c1.01-.05,2.58-2.73,1.99-3.51-.47-.63-2.18-1.79-2.99-1.79Z"/>
    <path class="cls-10" d="M701.9,310.22c-.4-1.13-1.04-3.42-2-3.67-1.15-.3-3.59-.41-4.8-.42l-5-.05-13.5-.15c7.24,6.62,11.84,13.24,15.09,21.75,2.29,6.01,7.58,10.56,13.23,12.35,2.07.66,5.09,1.37,7.05,1.41l5.1.11h11.08s12.83-.1,12.83-.1c7.39-.05,14.64-1.49,21.06-5.1,10.21-5.74,16.85-15.67,19.66-27.49l-18.94.6c-1.97,3.39-4.36,7.63-6.72,9.51-6.32,5.03-14.5,4.59-22.1,4.66l-11.28.1-12.82-1.13c-3.08-3.54-5.57-7.59-7.94-12.39Z"/>
    <path class="cls-10" d="M807.88,397.56l-7.76-.21-.13-7.46c-.02-1.05-1.35-2.99-2.33-2.98-.79,0-2.53,1.59-2.56,2.47l-.27,7.82-8.35.44c-1.14.06-2.61,2.86-1.88,3.61.61.62,2.47,1.46,3.47,1.54l6.64.58.29,7.93c.04,1.11,2.62,2.61,3.51,2.12.71-.4,1.56-2.32,1.58-3.21l.13-7.17,8.41-.33c.81-.03,2.27-2.1,2.06-2.92-.21-.82-1.91-2.21-2.79-2.23Z"/>
    <path class="cls-10" d="M329,374.87l21.72-.02-.08-22.28-15.63-.07v-1.21s-.16-14.32-.16-14.32l-17.67-.03-16.53-.03-.26,15.44-15.76.25-.15,37.15,15.83.2.15,15.26,23.46.09,26.5.1.09-18.89h-25.28s-21-.03-21-.03l.32-11.62h24.46ZM304.11,365.01l.31-8.95h12.59s13.83-.1,13.83-.1l-.41,9.3-22.54.18-3.78-.42Z"/>
    <path class="cls-10" d="M497.06,72.18l7.36.17.33,7.33c.05,1.14,1.65,3,2.68,2.96.82-.03,2.31-1.92,2.35-2.91l.29-7.53,7.84-.22c.85-.02,2.47-1.46,2.47-2.25,0-.59-1.03-2.25-1.62-2.28l-8.76-.43-.23-7.03c-.03-1.03-1.28-3.02-2.28-3.12-1-.1-2.58,1.99-2.62,3.16l-.25,6.85-7.64.3c-1.04.04-3.01,1.52-2.91,2.45.09.93,1.98,2.53,3.01,2.56Z"/>
    <path class="cls-10" d="M357.58,104.19l40.01,26.52,13.95,9.08,12.18,7.93,15.21,10.1c.88.58,3.88.07,4.38-.69.5-.76.33-3.62-.5-4.18l-12.17-8.23-12.26-8.07-13.45-8.89-18.34-12.21-25.02-16.73c-.97-.65-4-.3-4.75.52-.75.82-.39,4.1.76,4.86Z"/>
    <path class="cls-10" d="M133.27,246.97l8.51.41.72,9.31c.09,1.12,4.5.48,4.53-.77l.21-8.66,7.95.02c.99,0,2.86-1.64,2.82-2.58-.04-.94-1.88-2.66-2.95-2.67l-7.73-.06-.68-9.85c-1.18-.2-3.49-.37-3.77.22-.27.59-.75,2.12-.8,2.86l-.36,6.53-6.69.24c-.9.03-2.59,1.08-3.1,1.72-.51.64.55,3.23,1.35,3.26Z"/>
    <path class="cls-10" d="M295.62,266.12c.06,1,8.18-.44,8.39,1.57l.46,4.49c.08.76-.03,3.31.69,3.32l2.91.05c1.27.02.17-8.53,2.44-8.71l4.42-.34c.9-.07,2.77-.7,3.47-1.22.56-.42.32-2.6-.36-2.76l-3.17-.75c-1.06-.25-4.56.05-4.83-1.02l-1.17-4.6-.81-3.18c-.18-.69-2.88-.76-3.02-.06l-.66,3.38c-.23,1.17.24,4.84-.94,4.97l-4.51.51c-1.17.13-3.57.17-3.52,1.09l.19,3.27Z"/>
    <path class="cls-10" d="M437.08,172.47c.62-1.4-.73-4.39-2.23-4.9l-25.4-8.67-27.71-9.46c-1.29-.44-4.18,1.24-4.33,2.57-.17,1.56,1.52,3.61,3.41,4.25l20.43,6.87,31.31,10.54c1.32.44,4.05-.11,4.52-1.19Z"/>
    <path class="cls-10" d="M646.03,104.66l2.11,8.5,17.29-10.5-17.24-10.38-2.64,6.98-27.63-.36-11.2-.05-1.86-6.67-14.74,7.86c-.67.36-1.75,1.92-1.66,2.56.09.65,1.18,2.12,1.82,2.48l14.7,8.21,2.07-7.32,9.96-.04,23.19.06c1.84,0,4.53-.48,5.84-1.35Z"/>
    <path class="cls-10" d="M318.02,128.2c-1.99-.69-4.75.02-5.33,2-.56,1.94,1.36,4.12,3.52,4.79,5.08,1.59,32.93,10.88,32.93,10.88l11.4,3.76c1.02.34,3.15-.09,4-.6,1.02-.6.54-4.61-.64-5.02l-9.72-3.47-11.66-3.82-24.51-8.53Z"/>
    <path class="cls-10" d="M664.17,247.57l15.44-9.66-15.77-8.77-1.43,5.27-9.71.68c-4.51.53-7.99,5.03-7.14,9.65l16.85-3.27,1.76,6.1Z"/>
    <path class="cls-10" d="M810.04,352.99l-27.49-14.54c-1.16-.61-4.38,1.4-4.5,2.75l-.65,6.9-16.72-.29c-1.36-.02-4.56-1.76-5.72-2.18l-15.61,2.41c2.17,8.9,9.2,17.04,18.6,17.28l19.34.48,1.09,4.28,1,4.24c.23.97,3.69,1.08,4.65.54l9.7-5.47,8.29-4.64,7.47-4.16c.81-.45,2.02-2.27,2.27-3.14.29-1.05-.66-3.88-1.72-4.45Z"/>
    <path class="cls-10" d="M712.66,108.59c1.04-1.11.86-4.78-.69-5.16-4.15-1.01-7.59,1.69-9.86,4.73l-6.19,8.33c-1.38,1.86-4.88,1.99-7.87,1.14l-1.76,15.47c-.07.59.36,2.18.67,2.7.3.52,2.62.53,3.2.22l14.29-7.42c-2.97-3.08-4.7-5.74-3.55-7.96l11.75-12.06Z"/>
    <path class="cls-10" d="M448.16,236.32c.77-.92.75-3.99-.2-4.64-.95-.65-4.09-.24-4.82.63l-11.3,13.54-11.09,13.26-14.91,17.81c-.66.79-.27,3.77.61,4.33.88.56,3.8.55,4.65-.47l16.11-19.27,9.09-10.94,11.86-14.27Z"/>
    <path class="cls-10" d="M406.78,93.17l9.83,12.01,6.79,8.26,9.11,11.04,9.13,11.05,6.66,8.39c.65.81,3.51,1.05,4.36.46.85-.59,1.12-3.32.47-4.14l-6.91-8.79-8.8-10.67-7.95-9.92-16.86-21-10.1-12.56c-.66-.82-3.67-1.01-4.38-.41-.85.73-1.25,4.11-.47,5.07l9.11,11.2Z"/>
    <path class="cls-10" d="M298.48,308.45l15.62-9.76,33.04-20.82c.71-.85.92-3.92.43-4.81-.49-.89-3.53-1.33-4.59-.65l-29.08,18.55-8.03,5.32-10.75,6.51c-.76.46-.82,3.48-.61,4.34.25,1.04,2.92,1.98,3.97,1.33Z"/>
    <path class="cls-10" d="M377.52,56.91l7.28,9.04c.49.61,3.53.14,4.17-.29.81-.54,1.06-3.27.41-4.1l-5.9-7.45-6.69-8.18c-.49-.6-3.05-.49-3.77-.2-2.5.99-.49,6.59,4.5,11.16Z"/>
  </g>
</svg>