<?xml version="1.0" encoding="UTF-8"?>
<svg id="Layer_1" data-name="Layer 1" xmlns="http://www.w3.org/2000/svg" width="933.83" height="453.5" viewBox="0 0 933.83 453.5">
  <defs>
    <style>
      .cls-1 {
        fill: #fff;
      }

      .cls-2 {
        fill: #231f20;
        stroke: #231f20;
        stroke-miterlimit: 10;
      }
    </style>
  </defs>
  <rect class="cls-2" x="-30.53" y="-4.13" width="974.55" height="484.34"/>
  <g id="fZ1BkW">
    <g>
      <path class="cls-1" d="M544.81,217.51c-1.49,2.92-5.19,1.43-7.03.39l-23.58-13.43c-.99-.56-2.58-2.96-2.47-4.07s1.34-2.92,2.26-3.99l25.82-14.5,3.78.46c1,.12,1.92,2.48,1.96,3.53l.27,6.09,30.68-.29c4.82-.05,7.55-5.88,7.72-9.96.56-13.33,10.2-22.99,23.42-23.02l15.12-.04c-.2-5.1-.03-9.2,2.57-12.41,2.15-2.66,6.48-3.75,10.89-3.74l2.99-4.91,11.59,5.89c.6.3,1.71,1.63,1.74,2.16.04.71-.99,2.21-1.65,2.59l-12.61,7.27-1.33-5.35c-.25-1.02-4.28-.17-4.96.64-1.28,1.53-1.56,5.44-1.19,7.98l47.88.08c5.06,0,8.58,4.22,8.67,8.68.09,4.42-2.98,8.64-8.05,8.99l-6.4.44v19.68s34.78.1,34.78.1c17.92.05,32.12-13.55,32.15-31.82l.05-21.8-5.38-.25c-1.15-.05-3.57-1.24-4.14-2.22-.66-1.14-.24-3.98.54-5.38l13.54-24.35c.66-1.18,2.82-2.67,3.91-2.84,1.27-.2,3.87,1.34,4.53,2.55l13.89,25.38c.54.98.68,3.67.1,4.63s-2.92,2.11-4.04,2.14l-5.46.16-.47,28.15c-.4,24.1-21.88,43.52-46.23,43.57l-73,.13c-11.17.02-20.73,5.42-25.96,15.29-4.85,9.13-5.56,19.92-1.96,29.77,4.44,12.15,15.84,20.06,28.84,20.08l26.17.04c4.69,0,9.61-2.82,10.01-8.05l.85-11.28,17.61-.25c2.37,17.71-8.81,36.73-24.09,36.97l-29.48.46c-19.66.3-36.84-10.05-45.12-27.83-6.11-13.13-6.78-27.38-2.12-41.22,6.59-19.57,24.52-32.19,45.21-32.06l16.97.1.07-20.12h-47.11c-3.36,0-5,5.4-5.17,7.93-.99,14.46-11.5,24.61-25.74,24.64l-31,.06c.06,2.88.09,6.32-.84,8.13Z"/>
      <path class="cls-1" d="M601.76,137.75l-.21-7.52-21.71-.55c-12.05-.3-19.83-12.12-20.93-24.05-9.04-1.01-17.78,2.86-23.51,8.88-6.64,6.99-9.27,16.49-7.25,25.93.84,3.91,4.5,6.37,8.42,5.99l3.5-.34c1.23-.12-.84-6.58,1.9-9.25,1.01-.99,4.18-.56,5.55.2l26.48,14.73c2.3,1.28,2.11,5.96-.3,7.31l-25.67,14.37c-1.21.68-4.46,1.14-5.39.29-1.08-1-1.77-3.81-1.83-5.5l-.1-2.8c-.03-.74-2.02-1.02-3.01-1.13-13.44,2.09-24.08-6.23-27.31-19.25-3.45-14.78.62-30.01,10.8-41.62,9.52-10.85,23.75-17.37,39.2-16.44,6.15-14.53,19.32-24.08,34.94-24.43l18.28-.41c17.86-8.1,37.78-6.92,54.23,3.72,18.64-13.01,44.25-12.7,62.69,2.3l-19.38,9.55c-13.3-5.68-26.99-2.99-36.95,6.8-3.95,3.89-11.28.83-14.94-1.92-12.73-9.57-28.64-10.26-41.47-1.53l-23,.06c-12.26.03-20.24,12.35-17.31,24.01,1.16,4.62,5.52,7.04,10.08,7.01l13.98-.11.02-7.12c0-1.01,1.3-3.19,2.21-3.64,1.09-.53,3.86-.12,4.97.5l26.32,14.94c1.16.66,3.02,2.82,3.25,4.06.27,1.42-1.37,4.23-2.71,4.98l-27.12,15.16c-.82.46-2.93.88-3.84.69-1.09-.23-2.86-2.74-2.89-3.88Z"/>
      <path class="cls-1" d="M788.1,126.62c-2.19-20.31-18.33-34.59-38.42-35.45-12.05-.51-22.71,3.88-30.43,12.03-8.19,8.64-10.47,19.56-10.11,31.89l.11,3.91c.06,2.03,4.95.13,8.85,2.22,1.11.59.72,3.95.02,5.22l-13.47,24.49c-.63,1.14-2.55,2.78-3.62,2.85-1.25.09-3.58-1.62-4.31-2.88l-14.23-24.86c-.51-.9-.89-3.31-.44-4.18.54-1.05,3.15-1.92,4.35-1.97l3.67-.14c.91-.03,1.19-2.68,1.09-3.64-3.59-33.66,20.85-61.88,54.56-63.22,27.49-1.09,52.12,16.08,58.98,42.97l5.36,2.87c25.66,8.75,40.32,36.84,30.97,62.79-3.52,9.78-14.29,15.59-24.19,15.67l-15.58.13c2.22-6.66,2.47-11.91,1.25-18.3l15.13-.28c3.03-.06,6.15-2.9,6.89-5.98,3.05-12.74-1.98-25.34-12.81-32.97l-23.61-13.2Z"/>
      <polygon class="cls-1" points="298.58 388 298.62 340.78 280.66 340.77 280.62 388.04 261.95 388.02 261.99 340.63 244.2 340.62 244.27 387.9 225.85 387.88 225.9 322.42 265.32 322.4 265.56 337.78 277.35 337.62 277.45 322.42 301.91 322.27 302.01 337.49 316.96 337.71 317.02 387.87 298.58 388"/>
      <path class="cls-1" d="M216.88,337.77l-.02,35.14-14.52.06-.06,15.09-48.26-.03.08-93.08,18.23-.23.03,27.86,29.54-.12.09,15.25,14.88.05ZM198.45,369.9l-.02-29.17h-26.1s-.04,29.42-.04,29.42l26.16-.25Z"/>
      <path class="cls-1" d="M820.76,230.55c1.33.73,3.02,2.83,3.05,3.98s-1.45,3.35-2.57,3.96l-27.33,14.71c-.71.38-2.63.68-3.28.32-.81-.45-1.77-2.48-1.8-3.41l-.21-6.34c-11.28,1.26-21.85-2.59-26.95-12.89-8.56-17.29-.96-37.76,15.93-46.83l-4.01-12c-2.66-7.96.63-16.01,6.12-22.05,4.34-4.77,6.81-10.17,8.61-16.64l16.23,8.27c-1.49,7.28-5.16,13.62-10.21,18.98-4.32,4.59-3.29,10.67.19,15.43,4.87,6.66,4.4,15.83-.86,22-5.73.81-10.59,3.27-13.59,7.06-3.27,5.02-4.54,10.91-2.06,16.53,1.76,3.98,7.3,5.2,10.63,3.82-.14-2.83-.18-6.9.93-8.4,2.07-2.8,6.02-.36,8.1.79l23.08,12.7Z"/>
      <polygon class="cls-1" points="549.67 369.84 549.62 387.86 525.68 387.86 525.67 372.92 510.14 372.92 510.05 349.36 553.93 349.29 553.91 340.72 510.1 340.73 510.13 322.45 557.33 322.4 557.5 337.43 572.81 337.4 572.82 387.78 554.06 387.75 553.96 358.81 528.81 358.71 528.84 369.84 549.67 369.84"/>
      <path class="cls-1" d="M546.15,236.26l38.28.44-.79,17.67-37.96-.22c-19.76-.12-36.57-12.54-43.18-30.95-25.33-21.71-24.53-60.41.95-81.81,1.68,7.08,3.69,12.19,7.01,17.74-9.62,12.16-11.35,29.42-2.69,42.8l10.99,11.98c3.44,12.54,13.16,22.2,27.38,22.37Z"/>
      <path class="cls-1" d="M726.96,264.24c-1,.56-3.43.93-4.33.49s-1.8-2.51-1.86-3.56l-.38-6.48h-58.91s-.41,6.95-.41,6.95c-.05.84-.9,2.49-1.53,3.01-.79.65-3.71.76-4.81.16l-25.79-14.03c-1.41-.77-3.12-3.08-3.29-4.37-.17-1.3,1.41-4.04,2.69-4.76l26.21-14.84c.89-.51,3.1-.59,3.95-.22s2.26,2.41,2.3,3.42l.3,7.14,59.42-.12.2-7.06c.02-.86,1.31-2.93,2.11-3.28s2.85-.18,3.63.24l26.8,14.61c1.11.61,2.72,2.78,2.75,3.98.03,1.19-1.56,3.38-2.72,4.03l-26.33,14.7Z"/>
      <path class="cls-1" d="M388.67,369.84v18.11s-47.9.08-47.9.08v-14.98s-15.11.11-15.11.11v-35.53s15.1-.33,15.1-.33l.18-14.92,32.83-.1-.12,15.04,15.18.08.04,21.42-44.41.02-.06,11.03,44.27-.04ZM369.96,349.63l-.14-8.62h-25.17s-.08,8.63-.08,8.63h25.39Z"/>
      <polygon class="cls-1" points="440.15 387.89 440 340.71 415.76 340.68 415.75 387.96 397.41 387.94 397.37 322.39 443.27 322.36 443.42 337.33 458.35 337.41 458.31 387.87 440.15 387.89"/>
      <path class="cls-1" d="M737.9,414.8c-.79,1.45-3.46,3.22-4.74,3.09s-3.46-1.83-4.22-3.19l-13.32-23.87c-.66-1.19-.06-5.43,1.32-5.53l7.73-.53-.18-28.79c-.06-8.71-17.32-8.7-20.83-26.03-3.93-19.42-18.98-26.88-20.72-30.63-.18-.4,5.99-7.26,11.15-7.31,4.02-.04,6.96,1.85,9.7,4.82,6.86,7.45,12.01,15.47,14.83,25.19,1.5,5.18,4.96,8.75,9.58,11.53,6.47,3.89,13.13,10.32,13.26,18.37l.56,32.64,7.66.62c1.38.11,2.29,3.9,1.56,5.23l-13.34,24.4Z"/>
      <path class="cls-1" d="M695.33,406.21c-.86,1.55-3,3.17-4.21,3.24-1.41.08-4.2-1.5-4.95-2.92l-14.02-26.79c-1.73-3.31,5.91-5.79,9.41-3.69l.1-36.07c.05-18.52-22.13-15.66-24.97-36.47l17.58-1.02,11.23,9.55c8.4,7.14,13.66,15.78,13.7,26.73l.12,36.33,5.51.31c.97.05,2.98.63,3.74,1.2.91.69,1.08,3.68.52,4.69l-13.75,24.91Z"/>
      <path class="cls-1" d="M778.2,281.1l-18.66-2.48c-5.77,4.17-12.03,7.93-19.3,7.97l-46.05.28c2.46-6.92,3.72-11.53,4.7-17.89l34.77-.05c15.94-.02,16.27-12.04,27.74-9.64l18.23,3.81c6.6,1.38,13.47,3.79,18.32,8.52l16.57,16.18c-7.88,2.5-15.27,3.99-22.17,1.25-4.55-1.81-8.73-7.23-14.16-7.95Z"/>
      <polygon class="cls-1" points="625.88 387.74 596.53 387.83 596.58 373.03 581.69 373.01 581.48 295.12 599.97 294.85 600.04 369.85 625.75 370.02 625.88 387.74"/>
      <polygon class="cls-1" points="118.72 388.08 89.72 388.16 89.7 373.17 74.35 373 74.39 295.22 92.84 294.88 92.94 369.83 118.68 370.05 118.72 388.08"/>
      <polygon class="cls-1" points="485.03 369.55 501.57 369.74 501.63 387.88 481.95 387.91 481.72 373.11 466.85 373.02 466.93 305.82 485.25 305.59 485.11 322.39 501.56 322.53 501.56 340.56 485.22 340.62 485.03 369.55"/>
      <path class="cls-1" d="M791.23,295.55l18.92-.34c-3.99,18.03-18.77,30.81-37.47,31.72h-30.87c-10.52-.73-18.1-6.9-21.68-16.55-2.49-6.72-7.41-12.07-12.84-17.82l22.49-.17,5.31,10.22c1.99,3.83,5.95,6.66,10.47,6.65l25.1-.07c8.95-.19,16.97-4.27,20.56-13.63Z"/>
      <path class="cls-1" d="M817.87,281.92c-6.49-4.73-11.22-9.17-16.72-15.45,15.12-1.18,27.24-9.92,32.96-22.14,6.81-14.56,4.6-30.5-6.03-42.68,5.6-3.14,10.49-6.58,15.04-11.66,17.86,22.59,17.71,55.7-2.36,77.05-6.27,6.67-13.77,10.12-22.89,14.88Z"/>
      <path class="cls-1" d="M805.82,391.72c.29.85-.13,3.61-.66,4.3-.66.86-3.29,1.54-4.48,1.28l-28.14-6.13c-.82-.18-2.44-1.35-2.84-2.08-.5-.91-.18-3.68.45-4.49l3.76-4.83-15.3-12.71c-5.36-4.45-8.46-10.02-10.41-16.64l-5.11-17.36,18.97.09c1.7,6.2,1.5,12.73,5.01,17.39,4.12,5.47,10.2,9.18,15.31,13.68,5.53,4.87,4.72-2.56,10.73-2.68,1.22-.02,3.2,2.01,3.62,3.25l9.1,26.91Z"/>
      <path class="cls-1" d="M806.84,350.08l-17.2-.2c-10.39-.12-18.83-6.86-21.34-16.81l15.37-2.21c1.23.4,4.66,2.2,6.18,2.22l16.61.21.38-6.22c.06-.92.89-2.65,1.63-3.03s3.12-.17,4.05.33l24.67,13.11c1.08.57,2.69,2.19,2.71,3.21s-.76,3.1-1.29,4.17l-26.97,14.67c-1.3-.25-4.14-.94-4.22-1.97l-.58-7.47Z"/>
      <path class="cls-1" d="M836.88,321.9l-.9-7.46-28.14-.11,7.64-16.51,19.57-.4,1.06-5.26c.31-1.52.82-3.18,1.5-3.97s3.73-.37,4.7.16l25.3,13.76c.96.52,2.3,2.39,2.4,3.4s-1.15,3.22-2.19,3.82l-24.83,14.06c-1.76.99-5.92.21-6.13-1.48Z"/>
      <polygon class="cls-1" points="144.78 388.03 126.38 388.14 126.38 323.2 144.85 322.98 144.78 388.03"/>
      <path class="cls-1" d="M349.08,197.21c-.01,1-1.96,2.77-2.82,2.58s-2.31-1.92-2.33-2.82l-.31-15.08-11.51,11.07c-.67.64-2.81.81-3.53.54-.89-.32-1.03-3.34-.28-4.09l11.3-11.25-15.15-.04c-1.06,0-3.02-1.68-3.14-2.72s1.94-2.8,3.07-2.8l15.26-.03-11.32-11.24c-.66-.65-.95-3-.67-3.88s3.3-.98,4.03-.27l11.92,11.5.28-14.91c.02-1.12,1.29-3.09,2.33-3.26s2.89,1.74,2.92,2.9l.41,15.2,10.74-10.83c.67-.68,2.85-.93,3.55-.48.87.55,1.07,3.31.29,4.12l-10.64,11.14,15.15.19c.96.01,2.88,1.93,2.81,2.87-.09,1.12-2.36,2.69-3.52,2.67l-14.44-.16,10.21,10.42c.62.63,1.04,2.85,1,3.59-.05.93-2.88,1.9-3.64,1.16l-11.78-11.41-.2,15.32Z"/>
      <path class="cls-1" d="M679.01,105.54l-1.57-6.74-39.02-.05-2.03,6.85-14.08-7.88c-.64-.36-1.65-1.69-1.84-2.24s.94-2.14,1.53-2.46l14.52-7.8,1.75,6.46,39.44.05c-.55-2.7.98-6.36,2.18-5.67l15.99,9.14-16.88,10.35Z"/>
      <path class="cls-1" d="M473.99,149.69l-77.64-50.27c-1.1-.71-2.03-3.54-1.51-4.53.67-1.24,3.16-1.75,4.78-.83l77.5,50.37c.71,1.31,1.37,3,1.36,3.99-.02,1.2-3.32,2.02-4.49,1.27Z"/>
      <path class="cls-1" d="M666.62,128.56c-.02,5.67-4.02,9.3-8.58,9.7-4.07.35-9.45-3.23-9.48-8.19l-.15-27.05h18.27s-.07,25.54-.07,25.54Z"/>
      <path class="cls-1" d="M357.59,85.47c-.03.91-1.71,2.5-2.42,2.38-.89-.15-2.67-1.87-2.66-2.86l.07-10.49-9.55,4.94c-.88.46-3.22.23-3.73-.49s.03-2.98.85-3.49l9.76-6.02-8.98-6.72c-.83-.62-1.31-3.06-.8-3.93s3.37-1.24,4.32-.58l8.28,5.82.54-9.43c.06-.97,1.99-2.74,2.91-2.6s2.17,2.03,2.17,2.97l.05,10.56,9.52-5.32c.92-.52,3.65-.04,4.13.76.58.96-.27,3.31-1.27,3.84l-9.19,4.83,18.48,12.34c.92.62,1.26,3.92.55,4.49-.89.72-3.42.83-4.42.16l-18.28-12.17-.33,10.99Z"/>
      <path class="cls-1" d="M211.94,303.41c-.03.78-2.38,2.38-2.73,1.88s-1.16-1.93-1.19-2.6l-.47-10.84-8.34,8.4c-.53.53-2.77.04-3-.57-.29-.77.17-2.49.73-3.09l7.18-7.64-10.25-.32c-.94-.03-2.61-1.35-2.72-2.16s1.72-2.13,2.61-2.16l10.43-.33-7.16-7.25c-.73-.74-1.1-2.73-.84-3.54.26-.81,2.76-.83,3.46-.16l7.97,7.61.37-10.31c.02-.65.89-2.07,1.3-2.49.55-.56,2.74,1.03,2.78,1.84l.51,10.95,7.5-7.24c.69-.67,2.67-1.16,3.36-.72.84.54.66,2.98-.08,3.7l-7.96,7.69,10.96.29c.72.02,2.1.8,2.59,1.22s-.57,2.89-1.22,2.91l-12.18.49,7.73,7.58c.61.59,1.05,2.56.59,3.21-.55.79-3,.78-3.73.02l-7.71-8.05-.49,11.69Z"/>
      <path class="cls-1" d="M401.25,255.54c-1.35.33-3.36.3-4.03-.41-.8-.86-.14-4.23.89-4.84l73.58-44.23c1.08.23,2.71.97,3.07,1.71.45.92-.41,3.3-1.2,4.15l-72.31,43.62Z"/>
      <path class="cls-1" d="M542.3,307.29c-.03.74-1.63,2.6-2.21,2.26s-1.8-1.86-1.82-2.61l-.22-10.49-8.2,7.44c-.47.43-2.13.79-2.73.84-.8.07-.76-3.06-.16-3.66l7.54-7.66-9.66-.08c-.65,0-2.34-.82-2.82-1.14-.64-.42.27-3.03,1.04-3.06l11.5-.5-7.5-7.74c-.45-.46-.57-2.63-.4-3.25s2.38-.56,2.83-.13l8.55,8.02.2-10.39c.01-.73,1.16-2.38,1.76-2.69s2.32,1.39,2.36,2.13l.56,10.72,6.93-6.99c.71-.72,2.9-1.19,3.7-.8.96.46.44,3.03-.3,3.82l-6.93,7.41,10.38.06c.75,0,2.54,1.18,2.75,1.89.26.9-1.7,2.47-2.66,2.47l-10.83.06,7.33,7.24c.67.67,1.18,2.67.7,3.36-.57.82-3.07.72-3.79,0l-7.52-7.53-.38,11.01Z"/>
      <path class="cls-1" d="M497.26,102.49c-.01.96-1.3,2.75-2.12,2.96s-2.91-1.58-2.91-2.63l.07-11.72-10.32,6.23c-.77.46-3.11.13-3.66-.55-.66-.82.08-3.33,1.07-3.94l10.26-6.34-10.59-6.66c-.79-.5-1.7-2.56-1.53-3.35.2-.98,2.88-1.86,3.86-1.26l10.67,6.52.12-11.81c0-.86,1.34-2.63,2.07-2.87.91-.29,2.84,1.49,2.87,2.43l.32,12.05,10.34-6.22c.7-.42,3.06.02,3.48.66.53.8-.12,3.03-1.1,3.67l-10.23,6.75,9.87,6.34c1.06.68,1.72,3.17,1.11,3.99s-2.95.8-3.82.27l-9.7-5.86-.16,11.34Z"/>
      <path class="cls-1" d="M487.22,131.81c1,1.23,1.29,3.56.84,4.43-.55,1.04-3.97,1.1-4.76.13l-48.32-58.74c-.84-1.02-.92-3.35-.38-4.26.69-1.17,3.83-1.45,4.88-.17l47.75,58.61Z"/>
      <path class="cls-1" d="M465.73,181.09l-70.78-2.27c-1.01-.72-2.48-1.95-2.97-2.7-.59-.91,1.39-2.9,2.64-3.48l72.77,2.51c.96,1.08,1.89,2.42,2.02,3.33.15,1.09-2.36,2.65-3.67,2.61Z"/>
      <path class="cls-1" d="M765.55,299.21l-23.89-.1c-1.03-1.82-.96-5.28.17-7.11l23.44-.25,1.5-7.89,18.79,11.52-19.18,11.56-.82-7.72Z"/>
      <path class="cls-1" d="M491.86,277.83c-.02.45-.35,2.44-.77,2.31l-2.87-.86-.55-9-5.6,5.34c-.61.58-2.45,1.04-3.23.81s-.71-2.64-.11-3.24l6.53-6.53-8.76-.21c-.55-.01-2.16-1.01-2.61-1.31-.61-.4,1.11-2.44,1.97-2.47l9.27-.34-6.15-5.58c-.61-.55-1.03-2.35-.94-3.11s2.76-.81,3.36-.25l6.19,5.83.54-7.96c.05-.67.78-2.04,1.13-2.51.47-.62,2.49,1.51,2.53,2.37l.44,8.47,6.5-6.2c.35-.33,2.03-.5,2.5-.47.72.05.79,2.44.24,3l-6.22,6.43,10.02.69.46,2.41c.12.6-1.48.99-2.17,1.03l-8.26.49,5.95,6.17c.39.4.43,2.48.2,2.99-.31.69-2.08.39-2.67-.21l-6.57-6.6-.37,8.5Z"/>
      <path class="cls-1" d="M355.11,225.11c-1.55.39-4.11-.7-4.33-1.66-.25-1.15.95-3.83,2.11-4.11l54.83-13.63c1.13-.28,3.74,1.71,3.73,2.82s-1.61,2.96-2.87,3.28l-53.47,13.31Z"/>
      <path class="cls-1" d="M469.13,165.18l-52.32-17.27c-.84-1-1.83-2.47-2-3.4-.21-1.11,2.48-2.71,3.74-2.58l51.9,17.22c.85,1,1.84,2.39,2.11,3.27s-1.95,2.41-3.42,2.76Z"/>
      <path class="cls-1" d="M446.68,268.52c-1.48.34-3.36.53-4.17.24-1-.37-.91-3.1-.4-4.21l35.63-42.51c.89-1.1,3.03-2.16,4.05-1.7,1.33.59,2.03,3.48,1.14,4.85l-36.25,43.34Z"/>
      <path class="cls-1" d="M339.98,293.74c-1.54,1.08-4.31,1.28-4.96.27-.67-1.05-.15-3.83.75-4.88l46.06-29.11c1.38-.57,3.54-.57,4.2.31s.32,3.55-.4,4.63l-45.65,28.77Z"/>
      <path class="cls-1" d="M733.6,120.58l-12.48,6.65c-.6.32-2.43.61-3,.66-.78.07-1.94-2.08-1.81-2.98l2.14-15.24,5.67,1.06,9.62-11.77c1.57-1.92,7.42-4.93,9.31-1.21.29,2.8-3.33,6.03-4.55,7.26-2.92,2.98-6.67,7.06-8.78,10.49l3.88,5.06Z"/>
      <path class="cls-1" d="M400.18,142.56l-46.04-15.05c-.81-.87-1.85-2.98-1.54-3.97s2.65-1.63,3.97-1.66l43.9,14.25,2.91,2.82c.79.77-1.53,3.32-3.2,3.61Z"/>
      <polygon class="cls-1" points="586.38 226.96 568.8 227.06 567.3 233.68 551 223.48 566.87 214.04 568.75 220.35 587.87 220.41 586.38 226.96"/>
      <polygon class="cls-1" points="144.98 312.31 126.19 312.42 126.11 294.99 144.92 294.66 144.98 312.31"/>
      <path class="cls-1" d="M645.03,271.4l-16.6,3.8-.31-4.75c-7.75-2.46-13.18-8.19-14.35-16.71-.21-1.52,1.95-3.86,3.5-3.99,5.13-.44,1.49,12.37,13.12,13.29l3.32-4.15,11.32,12.5Z"/>
      <path class="cls-1" d="M425.33,207.81c-1.36.33-3.9-1.12-3.97-2.32-.08-1.3,1.5-3.32,2.84-3.83l42.09-10.2c1.07-.04,3.18.87,3.83,1.74.73.97-.69,3.77-2,4.09l-42.79,10.52Z"/>
      <path class="cls-1" d="M727.31,180.5c-.12,2.13-4.58,4.62-6.73,4.81l.1-16.35-5.74-1.96,7.04-13.21c.36-.67,1.68-1.74,2.19-2.01s2.19.96,2.52,1.6l7.02,13.7-5.75,2.05-.65,11.36Z"/>
      <path class="cls-1" d="M693.37,230.62c-1.22-3.6-10.57,3.42-17.27,1.96,1.97-13.08,16.95-8.21,17.42-10.21l1.08-4.64,14.94,8.27c-4.79,4.53-9.26,6.85-14.58,9.34l-1.6-4.72Z"/>
      <path class="cls-1" d="M307.68,139.6c-.02.45-2.35,1.31-2.6.93-.37-.57-1.1-1.96-1.14-2.65l-.4-6.57-6.75,4.13c-.69.42-2.58-2.92-1.93-3.39l6.6-4.71-6.12-3.95c-.65-.42-.93-2.85-.39-3.39s2.36-.67,3.03-.26l5.71,3.46c.1-4.02-1.6-7.46,3.58-8.94l.83,9.59,5.79-3.72c.61-.39,2.96.02,3.33.68.45.82-.51,2.64-1.42,3.23l-5.24,3.39,5.7,3.96c.53.37.9,2.5.58,3.15s-2.5.75-3.14.33l-5.62-3.7-.4,8.45Z"/>
      <path class="cls-1" d="M301.03,238.08c-1.84.47-4.49-.3-4.81-1.4s.71-3.98,1.81-4.25l34.64-8.74c1.17-.3,3.76.87,4.15,1.87.49,1.25-.88,3.67-2.37,4.05l-33.42,8.48Z"/>
      <path class="cls-1" d="M542.58,73.63c-.03.98-1.65,3.28-2.44,2.97s-2.18-2.04-2.21-2.89l-.2-6.91-7.44-.38c-.77-.04-2.24-1.48-2.43-2.19-.24-.88,1.69-2.47,2.61-2.48l7.23-.06.32-7.33c.03-.66,1.65-2.14,2.37-2.24.89-.12,2.28,1.78,2.3,2.84l.1,6.73,7.66.23c.55.02,1.89,1.2,2.21,1.64.43.59-1.09,2.69-1.8,2.74l-8.07.54-.2,6.77Z"/>
      <path class="cls-1" d="M431.57,300.22l-.78,4.53c-.15.86-3.58.41-3.82-.23l-.43-8.5-7.69-.22c-.77-.02-2.31-1.57-2.39-2.31s1.54-2.24,2.36-2.27l7.74-.28.2-6.83c.02-.81,1.6-2.55,2.38-2.44s2.27,1.65,2.3,2.41l.27,6.88c2.61.1,6.94.15,8.75,1.06.77.39.07,3.49-.79,3.54l-4.01.23-3.48.2c-.92.05-.45,3.25-.61,4.23Z"/>
      <path class="cls-1" d="M348.91,258.16l-.31,4.1c-.07.88-3.17,1.39-3.36.53l-.82-3.84c-.19-.89.52-3.91-.38-4l-4.35-.45-3.52-.52c-.96-.14-.29-3.75.71-3.83l7.33-.55.86-8.01c1.09-.25,3.16-.41,3.31.34l.71,3.51.27,3.81c.06.88,3.46.28,4.32.51l3.59.96c.77.21.5,2.8-.24,3.11s-2.5.78-3.31.79h-3.7c-.9.02-.99,2.01-1.11,3.54Z"/>
      <path class="cls-1" d="M425.73,57c.69.85,1,3.3.52,4.23-.58,1.12-4.04,1.23-4.84.23l-10.73-13.39c-.74-.93-1.04-3.3-.6-4.22.53-1.1,4.05-1.1,4.84-.13l10.81,13.27Z"/>
    </g>
  </g>
</svg>