<?xml version="1.0" encoding="UTF-8"?>
<svg id="Layer_1" data-name="Layer 1" xmlns="http://www.w3.org/2000/svg" width="44" height="37" viewBox="0 0 44 37">
  <defs>
    <style>
      .cls-1 {
        fill: #ec008c;
      }
    </style>
  </defs>
  <path class="cls-1" d="M5.51,24.73c1,4.13,3.76,6.76,7.58,7.24,3.77.47,7.26-.32,10.84-3.76l8.74,8.7c3.8-3.94,5.54-8.95,5.33-14.41-.16-4.11-1.56-7.94-3.92-11.09,1.41-3.27,2.87-7.02,4.39-11.31l-4.09,1.69c-1.14,2.39-2.24,4.51-3.31,6.41-1.69-1.44-3.64-2.63-5.81-3.48-6.11-2.39-13.34-1.57-18.9,2.49l-.86,17.51ZM27.22,14.42c-2.01,2.86-3.83,4.9-5.44,6.32l-8.96-8.97c5.04-2.33,10.66-1.16,14.41,2.65ZM29.63,28.59l-3.2-3.2c1.24-1.62,2.51-3.59,3.8-5.96.95,2.97.83,6.28-.6,9.16ZM12.09,16.42l6.56,6.53c-2.45,1.28-4.07.99-4.66.71-.04-.04-.22-.29-.37-.88l-1.53-6.35Z"/>
</svg>