<?xml version="1.0" encoding="UTF-8"?>
<svg id="Layer_1" data-name="Layer 1" xmlns="http://www.w3.org/2000/svg" width="44" height="37" viewBox="0 0 44 37">
  <defs>
    <style>
      .cls-1 {
        fill: #ec008c;
      }
    </style>
  </defs>
  <path class="cls-1" d="M36.83,8.95c7.39,10.73.88,19,1.17,19.46l-7.27,3.62,3.09-7.84c.8-3.87.69-7.45-1.4-11.7l-12.57,12.58c2,4.6-.08,8.24-3.4,10.45s-7.6,1.72-10.33-1.02c-2.95-2.95-3.21-7.14-1.19-10.36,2.28-3.61,6.04-5.3,10.4-3.53l12.64-12.67c-4.02-2.09-8.08-2.58-12.11-1.73l-7.72,3.21S12.81,1.84,13.71,1.47c8.42-3.42,17.77-.29,23.13,7.48ZM10.66,31.36c2.14.75,4.31-.79,4.63-2.09.39-1.56-.65-3.56-1.82-4.01-1.75-.68-3.87.35-4.62,1.9-.51,1.04.32,3.68,1.82,4.2Z"/>
</svg>