<?xml version="1.0" encoding="UTF-8"?>
<svg id="Layer_1" data-name="Layer 1" xmlns="http://www.w3.org/2000/svg" width="44" height="37" viewBox="0 0 44 37">
  <defs>
    <style>
      .cls-1 {
        fill: #ec008c;
      }
    </style>
  </defs>
  <path class="cls-1" d="M21.26,28.72c1.64-.21,3.4-1.42,5-2.67l5.36,5.08c-5.48,5.41-13.03,6.55-18.97,1.65l-4.32,4.12-4.88-4.91,3.89-4.54c-3.2-4.9-4.17-11.88.15-16.28L18.35.1l5.03,5.16-10.92,11.43c-3.18,3.33,4.27,12.6,8.79,12.03Z"/>
  <path class="cls-1" d="M32,23.89c-2.64-2.26-6.43-.67-8.1,1.98l-5.12-5.23c4.51-5.78,12.67-6.95,18.15-1.75l3.64,3.46-4.83,4.74-3.73-3.19Z"/>
</svg>