<?xml version="1.0" encoding="UTF-8"?>
<svg id="Layer_1" data-name="Layer 1" xmlns="http://www.w3.org/2000/svg" width="44" height="37" viewBox="0 0 44 37">
  <defs>
    <style>
      .cls-1 {
        fill: #ec008c;
      }
    </style>
  </defs>
  <polygon class="cls-1" points="26.06 35.78 18.4 35.89 18.35 22.37 5.41 22.28 4.74 14.72 18.35 14.74 18.37 1.25 26.06 2.89 26.09 14.77 40.7 14.76 39.51 22.31 26.05 22.34 26.06 35.78"/>
  <polygon class="cls-1" points="39.53 8.78 31.72 8.83 31.8 1.13 40.7 1.07 39.53 8.78"/>
  <polygon class="cls-1" points="39.54 35.83 31.74 35.93 31.71 28.15 39.5 28.15 39.54 35.83"/>
  <polygon class="cls-1" points="12.59 8.76 4.82 8.81 4.83 1.17 12.48 1.09 12.59 8.76"/>
  <polygon class="cls-1" points="12.48 35.77 3.3 35.79 4.82 28.16 12.48 28.09 12.48 35.77"/>
</svg>