<?xml version="1.0" encoding="UTF-8"?>
<svg id="Layer_1" data-name="Layer 1" xmlns="http://www.w3.org/2000/svg" width="44" height="37" viewBox="0 0 44 37">
  <defs>
    <style>
      .cls-1 {
        fill: #ec008c;
      }
    </style>
  </defs>
  <path class="cls-1" d="M37.62,7.21c-5.56-4.07-12.79-4.88-18.9-2.49-2.18.85-4.13,2.04-5.81,3.48-1.07-1.91-2.17-4.03-3.31-6.41L5.51.1c1.53,4.29,2.99,8.04,4.39,11.31-2.35,3.15-3.75,6.98-3.92,11.09-.22,5.46,1.53,10.48,5.33,14.41l8.74-8.7c3.58,3.44,7.07,4.23,10.84,3.76,3.82-.47,6.59-3.11,7.58-7.24l-.86-17.51ZM31.18,11.77l-8.96,8.97c-1.61-1.42-3.44-3.45-5.44-6.32,3.75-3.81,9.37-4.98,14.41-2.65ZM13.77,19.43c1.3,2.37,2.56,4.34,3.8,5.96l-3.2,3.2c-1.44-2.88-1.55-6.19-.6-9.16ZM30.37,22.77c-.14.59-.33.85-.37.88-.59.28-2.21.57-4.66-.71l6.56-6.53-1.53,6.35Z"/>
</svg>