<?xml version="1.0" encoding="UTF-8"?>
<svg id="Layer_1" data-name="Layer 1" xmlns="http://www.w3.org/2000/svg" width="44" height="37" viewBox="0 0 44 37">
  <defs>
    <style>
      .cls-1 {
        fill: #ec008c;
      }
    </style>
  </defs>
  <path class="cls-1" d="M40.4,18.53l-6.24-3.55,5.89-10.81-3.73-3.53-10.53,5.74L22.03.1l-3.59,6.3L7.2.39l-3.06,3.79,5.81,10.65-6.35,3.75,6.28,3.53-5.98,11.19,3.67,3.31,10.85-5.92,3.67,6.22,3.49-6.21,10.76,5.86,3.78-3.62-5.85-10.72,6.15-3.69ZM22.23,24.37l-3.99-2.41-2.04-3.43,2.26-3.67,3.51-2.16,4.06,2.57,1.84,3-2.65,4.37-2.99,1.73ZM33.28,7.01l-2.8,5.87-1.2-.68-1.37-2.28,5.36-2.91ZM10.56,6.92l5.82,3.1-.87,1.52-1.98,1.17-2.98-5.8ZM10.69,30.11l2.85-5.94,1.53.86,1.2,2.03-5.59,3.04ZM33.32,30.2l-5.69-3.16.73-1.29,2.23-1.33,2.74,5.78Z"/>
</svg>