<?xml version="1.0" encoding="UTF-8"?>
<svg id="Layer_1" data-name="Layer 1" xmlns="http://www.w3.org/2000/svg" width="44" height="37" viewBox="0 0 44 37">
  <defs>
    <style>
      .cls-1 {
        fill: #ec008c;
      }
    </style>
  </defs>
  <g>
    <path class="cls-1" d="M31.52,15.84c2.96,2.96,2.96,7.77,0,10.73-2.96,2.96-7.77,2.96-10.73,0-2.96-2.96-2.96-7.77,0-10.73s7.77-2.96,10.73,0ZM24.3,23.07c1.03,1.03,2.69,1.03,3.72,0s1.03-2.69,0-3.72-2.7-1.03-3.72,0c-1.03,1.03-1.03,2.69,0,3.72Z"/>
    <polygon class="cls-1" points="15.49 9.58 24.97 .1 33.4 8.51 28.14 11.67 24.97 8.5 20.9 12.57 15.49 9.58"/>
  </g>
  <polygon class="cls-1" points="32.07 36.9 9.94 36.9 9.94 10.36 15.89 11.84 15.89 30.96 34.06 30.96 32.07 36.9"/>
</svg>