<?xml version="1.0" encoding="UTF-8"?>
<svg id="Layer_1" data-name="Layer 1" xmlns="http://www.w3.org/2000/svg" width="44" height="37" viewBox="0 0 44 37">
  <defs>
    <style>
      .cls-1 {
        fill: #ec008c;
      }
    </style>
  </defs>
  <path class="cls-1" d="M30.02,22.84c-1.5,0-2.64-1.36-2.65-2.76l-.03-2.62v-.79c.02-1.5,1.27-2.69,2.75-2.69l9.1-.02,1.03-5.86-9.72-.1c-2.5,0-4.59,1.19-6.11,3.32-1.52-2.08-3.43-3.27-5.87-3.27l-15.23.29,6.58,5.6,8.87.04c1.2,0,2.46,1.32,2.49,2.54l.06,2.86v.64c-.03,1.54-1.2,2.81-2.77,2.81l-8.55.03-2.5,6.03,6.45.05,3.82-.04c2.72.03,5.03-1.07,6.75-3.36,1.22,2.13,3.37,3.22,5.83,3.31l10.37.53-1.55-6.51-9.13-.03Z"/>
</svg>