<?xml version="1.0" encoding="UTF-8"?>
<svg id="Layer_1" data-name="Layer 1" xmlns="http://www.w3.org/2000/svg" width="44" height="37" viewBox="0 0 44 37">
  <defs>
    <style>
      .cls-1 {
        fill: #ec008c;
      }
    </style>
  </defs>
  <path class="cls-1" d="M37.11,27.19c.69-.8-1.01-2.6-1.8-3.25l-1.03-.79-3.16-1.6c-2.11,2.85-4.57,5.44-7.92,7.74-1.66,1.14-5.86-1.54-6.96-3.19-.97-1.45-4.12-4.52-5.65-3.7-1.28.68-3.55,2.71-3.99,3.67-.33.7,7,10.34,14.79,10.8,4.63.27,9.8-2.82,13.03-6.57l2.7-3.13Z"/>
  <path class="cls-1" d="M11.97.1l-6.16,5.89,4.8,5.78,6.71-4.41c-.16-2.03-2.46-4.4-5.35-7.25Z"/>
  <polygon class="cls-1" points="38.19 6.14 32.4 .2 26.14 6.4 32.09 12.28 38.19 6.14"/>
  <path class="cls-1" d="M27.07,17.6c.15-2.68-3.35-6.38-5.76-6.34l-5.31,5.3,5.98,5.94,5.09-4.89Z"/>
</svg>