<?xml version="1.0" encoding="UTF-8"?>
<svg id="Layer_1" data-name="Layer 1" xmlns="http://www.w3.org/2000/svg" width="44" height="37" viewBox="0 0 44 37">
  <defs>
    <style>
      .cls-1 {
        fill: #ec008c;
      }
    </style>
  </defs>
  <g>
    <polygon class="cls-1" points="30.67 30.32 13.62 30.23 13.48 24.41 6.29 25.55 6.33 36.88 37.72 36.9 37.74 6.63 30.51 9.97 30.67 30.32"/>
    <polygon class="cls-1" points="13.72 13.11 6.26 13.23 6.28 20.37 13.63 20.36 13.72 13.11"/>
  </g>
  <path class="cls-1" d="M14.74,21.86c0,3.91,3.42,7.09,7.62,7.09s7.62-3.18,7.62-7.09c0-1.3-.39-2.52-1.05-3.57h0s-.08-.12-.08-.12c-.13-.2-.27-.39-.43-.58l-8.77-11.94h9.07s0-5.55,0-5.55H7.43s12.59,15.03,12.59,15.03c-3.06.92-5.28,3.59-5.28,6.74ZM19.72,21.86c0-1.36,1.19-2.46,2.64-2.46.7,0,1.34.26,1.81.68l.47.56c.22.36.36.77.36,1.22,0,1.36-1.19,2.46-2.64,2.46s-2.64-1.1-2.64-2.46Z"/>
</svg>