<?xml version="1.0" encoding="UTF-8"?>
<svg id="Layer_1" data-name="Layer 1" xmlns="http://www.w3.org/2000/svg" width="44" height="37" viewBox="0 0 44 37">
  <defs>
    <style>
      .cls-1 {
        fill: #ec008c;
      }
    </style>
  </defs>
  <polygon class="cls-1" points="10.31 26.71 17.63 34.19 21.9 29.92 15.59 23.61 10.31 26.71"/>
  <path class="cls-1" d="M37.5,14.32l-10.04,10.04c-2.02-2.86-3.86-5.19-5.54-7.08l8.12-8.12-2.65-6.34-9.93,10.21c-3.93-3.01-7-3.17-10.06-2.02-2.61.98-4.11,3.31-4.11,6.38v11.41s6.04,1.3,6.04,1.3v-12.71c0-.44.09-.65.11-.68.43-.34,1.83-.94,4.41.02l-2.55,2.62,4.27,4.27,3.61-3.61c1.83,1.49,3.93,3.52,6.34,6.28l-3.64,3.64,4.27,4.27,14.53-14.53-3.2-5.34Z"/>
</svg>