<?xml version="1.0" encoding="UTF-8"?>
<svg id="Layer_1" data-name="Layer 1" xmlns="http://www.w3.org/2000/svg" width="44" height="37" viewBox="0 0 44 37">
  <defs>
    <style>
      .cls-1 {
        fill: #ec008c;
      }
    </style>
  </defs>
  <path class="cls-1" d="M32.45,5.49v17.35c0,.6-.12.89-.15.93-.44.36-1.67.91-3.79.57,1.96-3.75,2.08-8.4.05-12.45-3.51-7.02-12.61-9.7-19.25-5-.47.33-.9.69-1.31,1.06-.13-.16-.25-.3-.38-.46l-4.33-.68c.84,1.29,1.66,2.51,2.46,3.69-2.64,3.89-3.03,8.86-.91,13.4,2.57,5.52,9.31,8.94,15.88,6.88.77-.24,1.48-.56,2.16-.9,4.65,3.05,8.44,3.09,12.21,1.67,3.56-1.34,5.61-4.52,5.61-8.71V7.26s-8.25-1.77-8.25-1.77ZM15.67,10.17c5.07-.59,9.16,3.42,8.87,8.44-.08,1.3-.53,2.57-1.27,3.68-3.04-1.78-6.91-4.89-11.68-10.18,1.09-1.02,2.47-1.75,4.09-1.94ZM14.87,25.63c-3.87-.99-6.07-4.51-5.89-7.97.04-.69.19-1.37.4-2.03,3.17,4.31,5.98,7.63,8.53,10.14-.97.15-1.99.12-3.04-.15Z"/>
</svg>