<?xml version="1.0" encoding="UTF-8"?>
<svg id="Layer_1" data-name="Layer 1" xmlns="http://www.w3.org/2000/svg" width="44" height="37" viewBox="0 0 44 37">
  <defs>
    <style>
      .cls-1 {
        fill: #ec008c;
      }
    </style>
  </defs>
  <path class="cls-1" d="M26.38,10.07l-7.27-7.27L3.3,18.64l15.57,15.57,5.34-5.35,3.21,3.21,5.39-3.48-4.16-4.16,6.03-6.04-4.15-4.15c3.26-.57,3.78-.49,7.49-.1l2.69-1.96c-7.4-2.3-9.76-2.66-14.32-2.09ZM18.94,27.51l-8.98-8.85,9-9.1,2.15,2.14c-1.79,1.05-2.93,2.52-3.74,4.3-1.19,2.64-.59,5.44,1.67,7.7l1.86,1.86-1.96,1.96ZM27.96,18.51l-2.62,2.61-1.86-1.86c-.32-.32-.42-.54-.42-.58.05-.49.5-1.66,2.32-2.74l2.58,2.57Z"/>
</svg>