<?xml version="1.0" encoding="UTF-8"?>
<svg id="Layer_1" data-name="Layer 1" xmlns="http://www.w3.org/2000/svg" width="44" height="37" viewBox="0 0 44 37">
  <defs>
    <style>
      .cls-1 {
        fill: #ec008c;
      }
    </style>
  </defs>
  <path class="cls-1" d="M6.46,22.1l-3.16-7.46,19.9-.06c.51-.66.77-2.9.43-3.69-.39-.91-2.13-2.04-3.18-2.03l-7.59.05-1.96-7.81c3.56.03,7.75-.18,11.38.33,6.46.91,9.87,6.45,8.9,13.04l9.53.17-.06,7.55-17.54.07c-1.13,1.16-.61,5.31,1.02,5.64,3.75.76,7.16.5,11.06.38l.04,7.65-9.49-.12c-6.82-.08-11.74-5.92-10.47-13.39l-8.8-.31Z"/>
</svg>