<?xml version="1.0" encoding="UTF-8"?>
<svg id="Layer_1" data-name="Layer 1" xmlns="http://www.w3.org/2000/svg" width="44" height="37" viewBox="0 0 44 37">
  <defs>
    <style>
      .cls-1 {
        fill: #ec008c;
      }
    </style>
  </defs>
  <path class="cls-1" d="M40.26,20.2l-8.1,1.35-.02,6.85h-1.49s-.02-11.92-.02-11.92l-10.83-.08,8.62-9.96V2.02s-10.42,10.22-10.42,10.22l-4.2,3.98c.34,2.11.14,3.11.19,4.77l.05,1.9,10.12-.06v5.57s-11.72,0-11.72,0l.15.61h-.51s-.02-11.53-.02-11.53l-8.32-1.35.1,20.78,36.52-.02-.08-16.68Z"/>
  <polygon class="cls-1" points="12.22 10.22 12.1 .1 3.66 .13 3.8 11.9 12.22 10.22"/>
</svg>