<?xml version="1.0" encoding="UTF-8"?>
<svg id="Layer_1" data-name="Layer 1" xmlns="http://www.w3.org/2000/svg" width="44" height="37" viewBox="0 0 44 37">
  <defs>
    <style>
      .cls-1 {
        fill: #ec008c;
      }
    </style>
  </defs>
  <path class="cls-1" d="M36.22,25.8l-9.56-10.02c5.77-5.2,9.97-.05,13.67-1.83.86-.41.07-3.68-.66-4.4-4.63-4.57-12.89-4.06-17.88,1.41L12.65,2.1,3.3,11.73l5.78,5.59,3.71-3.87c.63-.66,2.45.58,3.7,1.93-4.66,5.15-5.74,13.58-1.16,18.74.65.73,4.54,1.19,4.5.24l-.13-3.69c-.14-3.91-.27-6.03,1.76-9.66l10.09,9.62,4.67-4.83Z"/>
</svg>