<?xml version="1.0" encoding="UTF-8"?>
<svg id="Layer_1" data-name="Layer 1" xmlns="http://www.w3.org/2000/svg" width="44" height="37" viewBox="0 0 44 37">
  <defs>
    <style>
      .cls-1 {
        fill: #ec008c;
      }
    </style>
  </defs>
  <path class="cls-1" d="M28.31,18.5c2.38-.51,4.38.79,4.86,2.71.56,2.24-.65,4.37-2.78,4.89s-4.2-.49-4.79-2.53c-.61-2.07.28-4.55,2.71-5.07Z"/>
  <path class="cls-1" d="M35.3,29.07c2.43-.45,4.24,1.26,4.51,3.32.28,2.19-1.06,4.13-3.26,4.47-2.06.32-4.04-1.03-4.44-3.01-.44-2.21.74-4.33,3.19-4.78Z"/>
  <path class="cls-1" d="M21.43,29.08c2.33-.4,4.08,1.33,4.43,3.14.43,2.28-1.22,4.19-3.07,4.56-2.31.46-4.2-.95-4.62-2.88-.49-2.24.8-4.4,3.26-4.83Z"/>
  <path class="cls-1" d="M7.45,29.07c2.47-.25,4.15,1.23,4.49,3.21.39,2.19-1.26,4.16-3.03,4.5-2.38.46-4.23-1.03-4.65-2.88-.52-2.32.78-4.59,3.18-4.83Z"/>
  <path class="cls-1" d="M14.13,4.71c-2.47,4.01-1.49,8.99,1.84,11.97,3.38,3.01,8.44,3.2,12.21.43,2.14-1.57,3.3-3.99,3.5-6.8l7.99,3.44-1.77-6.59L27.7,1.49C22.93-1.16,17.02,0,14.13,4.71ZM25.5,9.19c.23,1.8-.91,3.51-2.92,3.69-1.69.15-3.44-1-3.64-2.96-.2-1.89,1.08-3.38,2.69-3.58,1.96-.25,3.63.96,3.87,2.85Z"/>
  <path class="cls-1" d="M13.68,18.87c2.38-.51,4.38.79,4.86,2.71.56,2.24-.65,4.37-2.78,4.89s-4.2-.49-4.79-2.53.28-4.55,2.71-5.07Z"/>
</svg>