<?xml version="1.0" encoding="UTF-8"?>
<svg id="Layer_1" data-name="Layer 1" xmlns="http://www.w3.org/2000/svg" width="44" height="37" viewBox="0 0 44 37">
  <defs>
    <style>
      .cls-1 {
        fill: #ec008c;
      }
    </style>
  </defs>
  <g>
    <polygon class="cls-1" points="30.06 6.68 14.21 6.77 14.07 12.59 7.39 11.45 7.42 .12 36.62 .1 36.64 30.37 29.91 27.03 30.06 6.68"/>
    <polygon class="cls-1" points="14.3 23.89 7.36 23.77 7.38 16.63 14.22 16.64 14.3 23.89"/>
  </g>
  <path class="cls-1" d="M20.16,21.88l-11.71,15.03h19.8s0-5.55,0-5.55h-8.43s8.16-11.94,8.16-11.94c.14-.19.27-.38.4-.58l.08-.11h0c.62-1.06.98-2.27.98-3.58,0-3.91-3.18-7.09-7.09-7.09s-7.09,3.18-7.09,7.09c0,3.15,2.06,5.82,4.91,6.74ZM22.34,12.68c1.36,0,2.46,1.1,2.46,2.46,0,.45-.13.86-.34,1.22l-.44.56c-.44.42-1.03.68-1.68.68-1.36,0-2.46-1.1-2.46-2.46,0-1.36,1.1-2.46,2.46-2.46Z"/>
</svg>