<?xml version="1.0" encoding="UTF-8"?>
<svg id="Layer_1" data-name="Layer 1" xmlns="http://www.w3.org/2000/svg" width="44" height="37" viewBox="0 0 44 37">
  <defs>
    <style>
      .cls-1 {
        fill: #ec008c;
      }
    </style>
  </defs>
  <path class="cls-1" d="M40.01,36.9l-21.5-.06-.03-4.18-14.49.03.05-7.67,13.85-.1c.25-.84.6-2.67.2-2.9l-2.32-1.28c-3.28-1.81-4.81-5.42-4.93-8.81-.14-3.71,1.45-7.47,4.73-9.79,5.64-3.99,13.48-1.91,16.52,4.06,3.01,5.9,1.01,13.28-5.82,15.94v6.86s5.86.07,5.86.07l.37-4.94,7.31-.23.2,13ZM20.27,7.46c-2.6,1.17-3.24,4.18-2.01,6.3,1.18,2.04,4.05,2.81,6.05,1.73,2.27-1.23,3.01-4.03,1.88-6.13-1.03-1.91-3.81-2.85-5.92-1.9Z"/>
</svg>