<?xml version="1.0" encoding="UTF-8"?>
<svg id="Layer_1" data-name="Layer 1" xmlns="http://www.w3.org/2000/svg" width="44" height="37" viewBox="0 0 44 37">
  <defs>
    <style>
      .cls-1 {
        fill: #ec008c;
      }
    </style>
  </defs>
  <path class="cls-1" d="M4.02,17.6C4.36,7.72,12.14.25,21.72.1,31.3,0,39.58,7.72,39.98,17.64l-35.97-.04ZM32.62,14.03c-1.66-4.88-6.23-7.57-10.9-7.46-4.55.1-8.89,2.99-10.36,7.5l21.26-.04Z"/>
  <path class="cls-1" d="M39.89,19.58c-.09,4.92-2.17,9.23-5.78,12.57-5.25,4.85-12.75,6.13-19.42,3.21-6.06-2.66-10.46-8.76-10.66-15.86l35.87.09ZM32.65,22.93H11.24c1.74,4.75,6.14,7.6,11.02,7.49,4.52-.1,8.91-3.06,10.39-7.49Z"/>
</svg>