<?xml version="1.0" encoding="UTF-8"?>
<svg id="Layer_1" data-name="Layer 1" xmlns="http://www.w3.org/2000/svg" width="44" height="37" viewBox="0 0 44 37">
  <defs>
    <style>
      .cls-1 {
        fill: #ec008c;
      }
    </style>
  </defs>
  <path class="cls-1" d="M21.9,31.85l-13.23-13.23,13.44-13.47,13.23,13.24-13.44,13.46ZM21.96,26.16l7.67-7.65-7.65-7.61-7.65,7.74,7.63,7.53Z"/>
  <path class="cls-1" d="M18.25,36.56c-8.41-1.59-13.78-7.93-14.52-16.05-.52-5.73,1.21-11.13,5.18-15.07C12.77,1.59,18.29-.41,24.28.2c10.34,1.06,17.4,10.86,15.88,20.98-1.52,10.11-11.1,17.42-21.9,15.37ZM17.88,4C9.26,6.42,5.33,14.97,7.54,22.76c2.28,8.06,10.52,12.43,18.53,10.15,7.74-2.2,12.6-10.39,10.59-18.01-2.15-8.16-10.21-13.29-18.78-10.9Z"/>
</svg>