<?xml version="1.0" encoding="UTF-8"?>
<svg id="Layer_1" data-name="Layer 1" xmlns="http://www.w3.org/2000/svg" width="44" height="37" viewBox="0 0 44 37">
  <defs>
    <style>
      .cls-1 {
        fill: #ec008c;
      }
    </style>
  </defs>
  <path class="cls-1" d="M38.68,6.1l-6.94,2.69c-.13-1.07-.41-2.12-.8-3.17C29.62,2.11,26.49.1,22.37.1H7.03l-1.74,8.12h6.16c-1.48,5.94-3.83,15.62-3.7,16.54l12.3-4.81c-2.5,3.4-6.5,7.6-12.78,12.71l-.66,4.26c13.97-9.13,20.92-15.61,23.71-20.98l1.01-.39-4.22,14.18,7.06-3.04s5-20.05,4.54-20.57ZM16.15,14.82l2.1-6.6h4.11c.59,0,.88.11.92.15.34.42.85,1.54.61,3.46l-7.74,3Z"/>
</svg>