<?xml version="1.0" encoding="UTF-8"?>
<svg id="Layer_1" data-name="Layer 1" xmlns="http://www.w3.org/2000/svg" width="44" height="37" viewBox="0 0 44 37">
  <defs>
    <style>
      .cls-1 {
        fill: #ec008c;
      }
    </style>
  </defs>
  <path class="cls-1" d="M26.47,15.84c4.01-2.43,4.78-7.05,3.22-10.7C27.91.94,23.26-.95,18.73.68c-4.79,1.72-6.56,8.14-3.76,12.77,2.7,4.47,8.06,4.47,11.49,2.4ZM20.42,5.6c1.45-.84,3.84,0,4.63,1.41.61,1.09.1,3.57-1.05,4.32-1.15.75-3.67.35-4.69-.73-1.14-1.2-.79-3.9,1.11-5.01Z"/>
  <polygon class="cls-1" points="4.8 23.41 39.93 23.38 39.97 18.52 4.03 18.47 4.8 23.41"/>
  <polygon class="cls-1" points="15.71 27.8 17.42 36.85 26.57 36.9 26.47 27.76 15.71 27.8"/>
</svg>