<?xml version="1.0" encoding="UTF-8"?>
<svg id="Layer_1" data-name="Layer 1" xmlns="http://www.w3.org/2000/svg" width="44" height="37" viewBox="0 0 44 37">
  <defs>
    <style>
      .cls-1 {
        fill: #ec008c;
      }
    </style>
  </defs>
  <path class="cls-1" d="M18.32,8.92c-4.02,1.79-6.15,5.73-5.72,9.8.42,3.95,3.3,7.46,7.61,8.28v9.57s-16.92-.04-16.92-.04l5.47-7.49c-3.83-4.97-4.97-11.1-3.1-16.91C7.54,6.35,12.49,2.19,17.73.95c6.44-1.53,12.72.29,16.93,5.01,5.88,6.58,6.19,16.31.38,23.08l5.66,7.52h-16.85s.01-9.6.01-9.6c5.54-1.17,8.77-6.51,7.26-11.88s-7.31-8.6-12.8-6.16Z"/>
</svg>