<?xml version="1.0" encoding="UTF-8"?>
<svg id="Layer_1" data-name="Layer 1" xmlns="http://www.w3.org/2000/svg" width="44" height="37" viewBox="0 0 44 37">
  <defs>
    <style>
      .cls-1 {
        fill: #ec008c;
      }
    </style>
  </defs>
  <path class="cls-1" d="M25.94,5.15c-7.99-1.2-14.32,1.32-18.71,6.86-4.31,5.44-5.17,12.65-2.12,20.13,1.99-1.14,5.11-3.77,5.21-5.47l.57-9.72c3.78-6.32,15.16-6,18.96-2.63,1.71,1.52,2.78,5.69,2.51,8.17-.19,1.75.17,4.51,1.31,5.59,1.42,1.34,5.16,2.08,7.03,2.09l-1.47-12.09c-.82-6.77-7.54-12.07-13.29-12.93Z"/>
  <path class="cls-1" d="M27.5,25.83c-3.92-1.8-11.34-1.98-11.89-.61l-2.54,6.36,16.25.26c.05-2.19-.53-5.41-1.82-6Z"/>
</svg>