<?xml version="1.0" encoding="UTF-8"?>
<svg id="Layer_1" data-name="Layer 1" xmlns="http://www.w3.org/2000/svg" width="44" height="37" viewBox="0 0 44 37">
  <defs>
    <style>
      .cls-1 {
        fill: #ec008c;
      }
    </style>
  </defs>
  <path class="cls-1" d="M38.13,9.23C33.2.53,19.9-2.83,11.43,3.01h0C2.55,8.02,1.44,20.39,6.7,28.22c5.79,8.63,16.47,11.36,25.46,5.76,7.86-4.89,10.78-16.25,5.97-24.75ZM34.21,19.38c-.61,6.3-5.76,10.43-10.6,11.03-6.64.83-11.68-3.59-12.9-8.9-1.47-6.35,1.74-13.07,8.01-14.08l-.28,15.07,7.36.47-.22-15.45c5.72.2,9.11,6.88,8.63,11.86Z"/>
</svg>