<?xml version="1.0" encoding="UTF-8"?>
<svg id="Layer_1" data-name="Layer 1" xmlns="http://www.w3.org/2000/svg" width="44" height="37" viewBox="0 0 44 37">
  <defs>
    <style>
      .cls-1 {
        fill: #ec008c;
      }
    </style>
  </defs>
  <path class="cls-1" d="M30.67,16.44c5.22-.21,10.17-3.32,9.56-8.47C39.7,3.45,36.08-.44,30.79.16c-4.09.46-6.46,4.53-7.61,9.6-7.64-2.46-14.76-.51-19.47,4.79l22.5,22.36c5.58-6.33,6.17-13.05,4.45-20.47ZM28.96,6.22c1.02-1.29,3.71-1.97,4.87-1.27,1.73,1.05,2.61,4.3,1,6-1.1,1.16-4.07,1.3-4.95.28-1.08-1.25-1.78-3.92-.92-5.01ZM13.25,15.14c4.81-.79,7.62-.66,11.85.64.81,3.44.87,7.18.2,11.54l-12.04-12.17Z"/>
</svg>