<?xml version="1.0" encoding="UTF-8"?>
<svg id="Layer_1" data-name="Layer 1" xmlns="http://www.w3.org/2000/svg" width="44" height="37" viewBox="0 0 44 37">
  <defs>
    <style>
      .cls-1 {
        fill: #ec008c;
      }
    </style>
  </defs>
  <path class="cls-1" d="M20.33,13.27c-4.42-4.07-10.97-5.57-14.67-.89-3.24,4.09-3.46,10.2,1.32,14.02,3.7,2.95,8.94,1.57,13.99-1.62,4.21,8.21,11.58,12.41,19.73,11.93l-.11-36.47c-9.69.61-15.63,5.6-20.26,13.03ZM13.41,22.97c-1.88.22-4.62-1.41-4.99-2.92-.55-2.26,1.37-5.62,4.07-5.7,1.84-.05,4.37,2.25,4.25,3.8-.14,1.9-1.74,4.63-3.33,4.82ZM33.44,28.48c-4.55-3.27-6.74-5.66-9.12-10.15,2.14-3.45,5.13-6.54,9.22-9.54l-.11,19.69Z"/>
</svg>