<?xml version="1.0" encoding="UTF-8"?>
<svg id="Layer_1" data-name="Layer 1" xmlns="http://www.w3.org/2000/svg" width="44" height="37" viewBox="0 0 44 37">
  <defs>
    <style>
      .cls-1 {
        fill: #ec008c;
      }
    </style>
  </defs>
  <path class="cls-1" d="M6.66,8.88l8.99-.03c1.65,0,2.88-1.34,2.9-2.96l.05-3.49,6.3-.05.04,3.58c.02,1.47,1.21,2.89,2.79,2.9l9.6.03,3.35,6.26-12.61.03c-2.59-.09-4.85-1.23-6.13-3.48-1.8,2.41-4.24,3.57-7.09,3.53l-4.02.04-7.47-.12,3.32-6.27Z"/>
  <path class="cls-1" d="M18.5,30.68c-.03-1.29-1.36-2.67-2.62-2.67l-9.33-.04-3.26-6.19h12.35c2.56,0,4.57,1.25,6.17,3.44,1.6-2.24,3.8-3.5,6.43-3.49l12.46.05-3.32,6.21-9.57.02c-1.56,0-2.88,1.25-2.89,2.83l-.03,3.78-6.31.03-.08-3.96Z"/>
</svg>