<?xml version="1.0" encoding="UTF-8"?>
<svg id="Layer_1" data-name="Layer 1" xmlns="http://www.w3.org/2000/svg" width="44" height="37" viewBox="0 0 44 37">
  <defs>
    <style>
      .cls-1 {
        fill: #ec008c;
      }
    </style>
  </defs>
  <path class="cls-1" d="M29.99.1l-5.83,2.29,6.07,2.61c2.35,1.5,4.53,3.37,5.7,7.26l-7.42.07c.83-.72,1.71-1.47,2.66-2.24l.55-3.51c-3.2,2.09-5.95,4.02-8.31,5.8l-20.02.18,6.37,4.8h7.68c-6.69,6.33-7.43,10.69-5.8,15.02,1.09,2.89,3.67,4.55,7.07,4.55h12.64l1.44-6.69h-14.08c-.49,0-.72-.09-.76-.12-.64-.8-2.07-4.68,5.35-12.76h12.61c-.91,3.29-2.9,5.53-5.47,7.18l-6.17,2.94,6.05,1.55c6.22-1.56,9.84-6.8,10.23-13C41.39,3.03,30.08.58,29.99.1Z"/>
</svg>