<?xml version="1.0" encoding="UTF-8"?>
<svg id="Layer_1" data-name="Layer 1" xmlns="http://www.w3.org/2000/svg" width="44" height="37" viewBox="0 0 44 37">
  <defs>
    <style>
      .cls-1 {
        fill: #ec008c;
      }
    </style>
  </defs>
  <path class="cls-1" d="M3.64,15.19C5.84,3.25,15.58,2.1,15.69,1.6l7.17,2.41-7.2,3.12c-3.08,2.02-5.36,4.46-6.79,8.63h16.56c1.72-4.35,5.47-5.38,9.12-4.65,3.63.73,6.14,3.88,6.14,7.48,0,3.89-2.59,6.82-6.04,7.6-3.88.88-7.47-.49-9.18-4.52l-16.67.02c1.27,4.03,3.62,7.02,6.84,9.11l7.2,2.98s-8.07,1.92-8.91,1.57c-7.8-3.29-11.9-11.52-10.3-20.16ZM35.64,17.68c-.92-1.9-3.36-2.31-4.43-1.67-1.29.77-1.92,2.78-1.44,3.84.71,1.6,2.77,2.32,4.3,1.79,1.02-.35,2.21-2.64,1.57-3.96Z"/>
</svg>