<?xml version="1.0" encoding="UTF-8"?>
<svg id="Layer_1" data-name="Layer 1" xmlns="http://www.w3.org/2000/svg" width="44" height="37" viewBox="0 0 44 37">
  <defs>
    <style>
      .cls-1 {
        fill: #ec008c;
      }
    </style>
  </defs>
  <path class="cls-1" d="M37.02,17.93l-9.87,9.87c-.34.34-.57.44-.62.45-1.02-.11-4.83-1.87-5.21-13.09l12.45-.02-.06-8.79h-12.08c.04-.46.08-.92.13-1.39l-2.08-2.84c-.78,3.73-1.36,7.03-1.77,9.94l-14.61.06v8.52s13.91-.03,13.91-.03c-.06,8.45,2.45,11.84,6.48,13.67,2.79,1.26,5.76.62,8.15-1.77l8.86-8.86-3.68-5.7ZM21.4,9.49v.04s5.8.05,5.8.05l-.11,2.43-5.8.02c.02-.81.05-1.66.1-2.54ZM10.3,15.18h7.23c-.09.85-.16,1.67-.21,2.46l-7.1-.12.07-2.34Z"/>
</svg>