<?xml version="1.0" encoding="UTF-8"?>
<svg id="Layer_1" data-name="Layer 1" xmlns="http://www.w3.org/2000/svg" width="44" height="37" viewBox="0 0 44 37">
  <defs>
    <style>
      .cls-1 {
        fill: #ec008c;
      }
    </style>
  </defs>
  <path class="cls-1" d="M20.44,19.27L35.38.1H10.12v7.09h10.76l-10.41,15.23c-.18.24-.35.49-.51.74l-.1.14h0c-.79,1.35-1.25,2.9-1.25,4.57,0,4.98,4.06,9.04,9.04,9.04s9.04-4.06,9.04-9.04c0-4.01-2.63-7.42-6.26-8.6ZM17.66,31c-1.73,0-3.14-1.41-3.14-3.14,0-.57.16-1.09.43-1.55l.56-.72c.56-.53,1.31-.86,2.15-.86,1.73,0,3.14,1.41,3.14,3.13s-1.41,3.14-3.14,3.14Z"/>
</svg>