<?xml version="1.0" encoding="UTF-8"?>
<svg id="Layer_1" data-name="Layer 1" xmlns="http://www.w3.org/2000/svg" width="44" height="37" viewBox="0 0 44 37">
  <defs>
    <style>
      .cls-1 {
        fill: #ec008c;
      }
    </style>
  </defs>
  <path class="cls-1" d="M18.25,36.56c-8.41-1.59-13.78-7.93-14.52-16.05-.52-5.73,1.21-11.13,5.18-15.07C12.77,1.59,18.29-.41,24.28.2c10.34,1.06,17.4,10.86,15.88,20.98-1.52,10.11-11.1,17.42-21.9,15.37ZM17.88,4C9.26,6.42,5.33,14.97,7.54,22.76c2.28,8.06,10.52,12.43,18.53,10.15s12.6-10.39,10.59-18.01c-2.15-8.16-10.21-13.29-18.78-10.9Z"/>
  <path class="cls-1" d="M19.17,6.6c6.96-1.61,13.27,2.81,14.71,9.18,1.5,6.62-2.59,13.17-9.45,14.67-6.18,1.35-12.75-2.37-14.37-8.83-1.61-6.4,1.84-13.34,9.12-15.03ZM19.24,9.85c-5.5,1.8-7.46,7.18-5.85,11.59,1.77,4.84,6.53,7.1,11.04,5.73,4.99-1.51,7.76-6.66,6.2-11.37s-6.42-7.58-11.38-5.95Z"/>
  <path class="cls-1" d="M19.8,12.47c3.7-1.08,7.32.91,8.27,3.98,1.1,3.54-.68,7.18-4.31,8.27-3.02.91-6.72-.43-7.93-3.71-1.18-3.17-.02-7.37,3.97-8.54ZM19.91,15.64c-2,1.31-1.93,3.93-.73,5.27.9,1.01,3.33,1.32,4.5.57,1.52-.97,1.86-3.38.99-4.87-.76-1.3-3.2-2-4.76-.98Z"/>
</svg>