<?xml version="1.0" encoding="UTF-8"?>
<svg id="Layer_1" data-name="Layer 1" xmlns="http://www.w3.org/2000/svg" width="44" height="37" viewBox="0 0 44 37">
  <defs>
    <style>
      .cls-1 {
        fill: #ec008c;
      }
    </style>
  </defs>
  <path class="cls-1" d="M29.31,16.7c1.13,1.45,1.55,3.79,1.83,6.02l8.21.22c-.05-8.56-5.09-15.39-13.61-16.2l-.16-6.64-7.69.02-.51,6.62c-6.36,1.33-12.62,6.06-12.68,12.91l-.16,17.26,8.01-.1.4-17.56c.12-5.12,13.25-6.55,16.37-2.54Z"/>
  <path class="cls-1" d="M33.96,28.93c-3.85-.3-5.59-4.53-4.81-7.92l-8.14.08c-1,8.09,4.5,15.42,12.88,15.64l5.57.14-.07-7.52-5.44-.42Z"/>
</svg>