<?xml version="1.0" encoding="UTF-8"?>
<svg id="Layer_1" data-name="Layer 1" xmlns="http://www.w3.org/2000/svg" width="44" height="37" viewBox="0 0 44 37">
  <defs>
    <style>
      .cls-1 {
        fill: #ec008c;
      }
    </style>
  </defs>
  <path class="cls-1" d="M22.92.23c10.03.35,17.62,8.25,17.78,17.98.1,9.74-7.74,18.15-17.82,18.56l.04-36.54ZM26.55,29.29c4.96-1.68,7.69-6.33,7.58-11.08-.11-4.62-3.03-9.04-7.62-10.52l.04,21.6Z"/>
  <path class="cls-1" d="M20.91,36.68c-5-.09-9.38-2.21-12.77-5.88-4.92-5.33-6.23-12.95-3.26-19.74C7.58,4.91,13.77.43,20.99.24l-.09,36.44ZM17.5,29.32V7.57c-4.83,1.77-7.72,6.24-7.61,11.2.1,4.6,3.11,9.06,7.61,10.56Z"/>
</svg>