<?xml version="1.0" encoding="UTF-8"?>
<svg id="Layer_1" data-name="Layer 1" xmlns="http://www.w3.org/2000/svg" width="44" height="37" viewBox="0 0 44 37">
  <defs>
    <style>
      .cls-1 {
        fill: #ec008c;
      }
    </style>
  </defs>
  <path class="cls-1" d="M11.37,25.52l4.72-4.49.22,5.08c.25,5.74,5.14,9.91,10.03,10.67,5.81.9,11.13-2.96,12.78-8.02,1.84-5.67-1.18-11.55-6.64-14.27-2.44-1.21-5.51-1.43-8.06-.54-2.71.95-4.32,2.4-7,4.83l-5.8-5.83,5.89-6.02L10.79.1l-6.45,6.9,6.33,6.48-5.69,5.73,6.38,6.31ZM31.52,26.24c-.81,1.79-3.52,2.96-4.82,2.37-1.81-.82-3.11-2.92-2.54-4.78.42-1.39,2.83-2.97,4.21-2.68,1.89.4,4.01,3.19,3.15,5.09Z"/>
</svg>