<?xml version="1.0" encoding="UTF-8"?>
<svg id="Layer_1" data-name="Layer 1" xmlns="http://www.w3.org/2000/svg" width="44" height="37" viewBox="0 0 44 37">
  <defs>
    <style>
      .cls-1 {
        fill: #ec008c;
      }
    </style>
  </defs>
  <path class="cls-1" d="M14.97,23.56c-2.8,4.63-1.03,11.04,3.76,12.77,4.52,1.63,9.17-.27,10.96-4.46,1.56-3.66.79-8.27-3.22-10.7-3.43-2.08-8.79-2.08-11.49,2.4ZM19.31,26.4c1.03-1.08,3.54-1.47,4.69-.73,1.15.75,1.66,3.23,1.05,4.32-.79,1.41-3.19,2.25-4.63,1.41-1.9-1.11-2.25-3.81-1.11-5.01Z"/>
  <polygon class="cls-1" points="4.8 13.59 39.93 13.62 39.97 18.48 4.03 18.53 4.8 13.59"/>
  <polygon class="cls-1" points="15.71 9.2 17.42 .15 26.57 .1 26.47 9.24 15.71 9.2"/>
</svg>