<?xml version="1.0" encoding="UTF-8"?>
<svg id="Layer_1" data-name="Layer 1" xmlns="http://www.w3.org/2000/svg" width="44" height="37" viewBox="0 0 44 37">
  <defs>
    <style>
      .cls-1 {
        fill: #ec008c;
      }
    </style>
  </defs>
  <path class="cls-1" d="M8.84,21.72l4.73.16L4.5,12.64l3.57-6.11,25.8,24.68-6.29,4.57-9.29-9.25-.37,5.34c-1.25,3.15-4.59,5.29-7.95,4.95-3.59-.35-6.36-3.27-6.64-6.72-.31-3.79,2.12-6.94,5.52-8.4ZM9.74,31.77c1.74.77,3.66-.44,4.26-2.05.42-1.11-.82-3.3-2.37-3.77-1.12-.34-2.95.74-3.54,2.17-.41,1,.45,3.12,1.65,3.65Z"/>
  <polygon class="cls-1" points="28.01 6.37 34.57 12.84 27.92 17.67 22.45 12.24 28.01 6.37"/>
  <path class="cls-1" d="M35.33,24.17c-1.84-1.19-2.29-3.3-1.37-4.83,1.07-1.79,3.2-2.37,4.89-1.34s2.36,2.99,1.44,4.67-3.08,2.72-4.96,1.5Z"/>
  <path class="cls-1" d="M17.68,6.81c-1.84-1.19-2.29-3.3-1.37-4.83,1.07-1.79,3.2-2.37,4.89-1.34s2.36,2.99,1.44,4.67-3.08,2.72-4.96,1.5Z"/>
</svg>