<?xml version="1.0" encoding="UTF-8"?>
<svg id="Layer_1" data-name="Layer 1" xmlns="http://www.w3.org/2000/svg" width="44" height="37" viewBox="0 0 44 37">
  <defs>
    <style>
      .cls-1 {
        fill: #ec008c;
      }
    </style>
  </defs>
  <path class="cls-1" d="M3.3,23.63l8.86,8.86c2.39,2.39,5.35,3.03,8.15,1.77,4.03-1.83,6.54-5.22,6.48-13.67l13.91.03v-8.52s-14.61-.06-14.61-.06c-.4-2.92-.99-6.21-1.77-9.94l-2.08,2.84c.05.47.09.93.13,1.39h-12.08s-.06,8.79-.06,8.79l12.45.02c-.38,11.22-4.19,12.98-5.21,13.09-.04,0-.27-.11-.62-.45l-9.87-9.87-3.68,5.7ZM22.7,12.04l-5.8-.02-.11-2.43,5.79-.05v-.04c.06.89.1,1.74.11,2.54ZM33.77,17.51l-7.1.12c-.05-.79-.12-1.61-.21-2.47h7.23s.07,2.35.07,2.35Z"/>
</svg>