<?xml version="1.0" encoding="UTF-8"?>
<svg id="Layer_1" data-name="Layer 1" xmlns="http://www.w3.org/2000/svg" width="44" height="37" viewBox="0 0 44 37">
  <defs>
    <style>
      .cls-1 {
        fill: #ec008c;
      }
    </style>
  </defs>
  <path class="cls-1" d="M20.88,22.01c-.56,3.39,2.23,7.5,5.95,7.55l10.32.12-5.64,6.09c-.75.81-1.16.99-2.6,1.07-8.08.51-14.98-5.45-15.2-13.64l.04-9.32C14.18,5.43,21.57-.35,29.76.34l9.36.06-2.52,6.83-7.99.06c-4.35-.12-7.91,3.22-7.79,7.68l16.76.05-2.42,6.95-14.29.04Z"/>
  <polygon class="cls-1" points="11.6 12.56 8.68 21.37 4.96 21.35 4.88 8.46 11.41 8.45 11.6 12.56"/>
  <polygon class="cls-1" points="11.54 29.79 4.96 29.83 4.92 23.26 11.51 23.27 11.54 29.79"/>
  <polygon class="cls-1" points="11.53 6.51 4.9 6.5 4.9 .09 11.53 .06 11.53 6.51"/>
</svg>