<?xml version="1.0" encoding="UTF-8"?>
<svg id="Layer_1" data-name="Layer 1" xmlns="http://www.w3.org/2000/svg" width="44" height="37" viewBox="0 0 44 37">
  <defs>
    <style>
      .cls-1 {
        fill: #ec008c;
      }
    </style>
  </defs>
  <path class="cls-1" d="M31.49,12.45l-3.24,3.04,12.15.1.3,6.96H3.3s6.42-7,6.42-7l12.3-.03-3.3-3.79c-1.26-2.92-.46-6.55,1.99-8.57,2.62-2.15,6.39-2.05,8.87.05,2.72,2.31,3.2,6.01,1.91,9.24ZM24.23,6.36c-1.67.64-2.14,2.73-1.47,4.19.46,1.02,2.73,1.64,4.08.93.97-.52,1.47-2.45.91-3.79-.39-.94-2.37-1.77-3.52-1.33Z"/>
  <polygon class="cls-1" points="28.96 35.35 20.31 35.41 21.52 27.8 28.75 27.77 28.96 35.35"/>
  <path class="cls-1" d="M12.29,28.4c2.01-.43,3.71.67,4.11,2.3.48,1.9-.55,3.7-2.35,4.13s-3.55-.41-4.06-2.14.24-3.85,2.3-4.29Z"/>
  <path class="cls-1" d="M35.52,28.21c2.01-.43,3.71.67,4.11,2.3.48,1.9-.55,3.7-2.35,4.13s-3.55-.41-4.06-2.14.24-3.85,2.3-4.29Z"/>
</svg>