<?xml version="1.0" encoding="UTF-8"?>
<svg id="Layer_1" data-name="Layer 1" xmlns="http://www.w3.org/2000/svg" width="44" height="37" viewBox="0 0 44 37">
  <defs>
    <style>
      .cls-1 {
        fill: #ec008c;
      }
    </style>
  </defs>
  <path class="cls-1" d="M27.57,22.08c-1.08-2.78-2.35-5.32-3.26-8.1-.76-2.34-1.57-3.86-4.44-3.94-1.68-.05-4.32.87-4.32,3.21v20.75s-12.26,0-12.26,0l1.48-6.98,3.79-.17.11-14.75c.02-3.15,2.27-6.08,4.93-7.53,3.85-2.1,8.38-2.12,12.26.06,1.06.6,2.72,2.1,3.26,3.3l11.57,25.8-3.59.19c-1.32.07-3.13-.04-4.15-.22l-2.09-4.66-10.4.06-2.1-6.99,9.2-.02Z"/>
</svg>