<?xml version="1.0" encoding="UTF-8"?>
<svg id="Layer_1" data-name="Layer 1" xmlns="http://www.w3.org/2000/svg" width="44" height="37" viewBox="0 0 44 37">
  <defs>
    <style>
      .cls-1 {
        fill: #ec008c;
      }
    </style>
  </defs>
  <path class="cls-1" d="M18.36.48l-.35,14.97c-8.4-.44-7.66-7.59-11.85-9.05-.97-.34-2.87,2.76-2.86,3.88.04,7.04,6.75,12.97,14.75,12.59l.21,13.76,14.52-.21-.15-8.7-5.79.12c-.99.02-1.43-2.32-1.36-4.31,7.5-.38,14.78-6,15.22-13.45.06-1.05-2.56-4.38-3.26-3.63l-2.72,2.92c-2.88,3.1-4.4,4.82-8.73,6.05l-.36-15.07-7.27.12Z"/>
</svg>