<?xml version="1.0" encoding="UTF-8"?>
<svg id="Layer_1" data-name="Layer 1" xmlns="http://www.w3.org/2000/svg" width="44" height="37" viewBox="0 0 44 37">
  <defs>
    <style>
      .cls-1 {
        fill: #ec008c;
      }
    </style>
  </defs>
  <path class="cls-1" d="M40.39,20.62c-.92-2.95-4.4-4.87-7.97-3.83-3.85,1.12-4.96,5.18-3.83,8.23.36.96.95,1.73,1.67,2.34l-5.36,2.14c-3.1.69-6.37.94-10.43-1.26L40.45,1.8l-9,1.27L10.39,24.14c-1.92-3.39-2.12-6.8-1.38-10.2l2.6-7.33-6.13,3.62c-3.75,6.27-2.45,13.41,2.23,18.72,9.79,11.11,20.87,3.98,21.33,4.3l2.26-5.18c1.5.81,3.31,1.01,4.94.53,3.5-1.05,5.21-4.56,4.15-7.97ZM36.17,25.48c-1.12.72-3.47.42-4.34-.55-1.15-1.29-1.22-3.82.7-5.08,1.5-.98,3.85-.32,4.59.94.84,1.43.51,3.76-.96,4.69Z"/>
</svg>