<?xml version="1.0" encoding="UTF-8"?>
<svg id="Layer_1" data-name="Layer 1" xmlns="http://www.w3.org/2000/svg" width="44" height="37" viewBox="0 0 44 37">
  <defs>
    <style>
      .cls-1 {
        fill: #ec008c;
      }
    </style>
  </defs>
  <path class="cls-1" d="M30.83,3.15c-.81-.7-2.64,1.02-3.3,1.83l-.8,1.04-1.62,3.21c2.89,2.14,5.53,4.64,7.87,8.04,1.16,1.68-1.57,5.95-3.24,7.07-1.47.99-4.59,4.18-3.76,5.74.69,1.3,2.75,3.6,3.73,4.06.71.33,10.51-7.11,10.97-15.03.28-4.71-2.87-9.95-6.67-13.24l-3.18-2.74Z"/>
  <path class="cls-1" d="M3.3,28.69l5.98,6.26,5.87-4.88-4.48-6.82c-2.06.16-4.47,2.5-7.37,5.43Z"/>
  <polygon class="cls-1" points="9.45 2.05 3.41 7.93 9.7 14.29 15.68 8.25 9.45 2.05"/>
  <path class="cls-1" d="M21.09,13.34c-2.72-.15-6.48,3.4-6.44,5.85l5.38,5.4,6.04-6.08-4.97-5.17Z"/>
</svg>