<?xml version="1.0" encoding="UTF-8"?>
<svg id="Layer_1" data-name="Layer 1" xmlns="http://www.w3.org/2000/svg" width="44" height="37" viewBox="0 0 44 37">
  <defs>
    <style>
      .cls-1 {
        fill: #ec008c;
      }
    </style>
  </defs>
  <path class="cls-1" d="M32.36,20.62l-5.77-.14,3.04-3.32c3.44-3.76,2.99-9.43.4-12.96C26.96-.02,21.21-.93,17.01,1.21c-4.7,2.4-6.5,7.97-4.78,13.1.77,2.29,2.55,4.35,4.71,5.39,2.29,1.11,4.21,1.21,7.41,1.36l-.02,7.28-7.46.08-.07,8.49,8.36-.28.1-8.02,7.15-.03-.05-7.95ZM20.19,7.54c1.63-.62,4.06.35,4.5,1.53.62,1.65.12,3.78-1.4,4.59-1.14.61-3.63.09-4.31-.96-.94-1.44-.51-4.51,1.21-5.16Z"/>
</svg>