<?xml version="1.0" encoding="UTF-8"?>
<svg id="Layer_1" data-name="Layer 1" xmlns="http://www.w3.org/2000/svg" width="44" height="37" viewBox="0 0 44 37">
  <defs>
    <style>
      .cls-1 {
        fill: #ec008c;
      }
    </style>
  </defs>
  <path class="cls-1" d="M24.11,26.94c4.44-1.32,6.84-5.23,6.37-9.29-.5-4.35-3.96-7.45-8.25-7.61-4.29-.15-7.98,3.09-8.68,7.06-.8,4.51,1.87,8.41,6.09,9.86l.25,9.95c-7.65-.94-13.78-6.56-15.59-13.27-2.17-8.07.9-15.72,7.06-20.08s14.88-4.66,21.28.06c6.3,4.64,9.18,12.35,7.1,19.87-1.9,6.87-7.94,12.39-15.52,13.43l-.1-9.96Z"/>
</svg>