<?xml version="1.0" encoding="UTF-8"?>
<svg id="Layer_1" data-name="Layer 1" xmlns="http://www.w3.org/2000/svg" width="44" height="37" viewBox="0 0 44 37">
  <defs>
    <style>
      .cls-1 {
        fill: #ec008c;
      }
    </style>
  </defs>
  <path class="cls-1" d="M27.47,24.36c-.2,7.28-5.43,12.41-11.82,12.54-6.94.14-12.25-5.47-12.31-12.09-.07-6.91,5.44-12.41,13.05-12.03.26-5.65,2.9-9.81,7.25-11.65,4.85-2.05,10.35-.98,13.72,2.57,3.62,3.81,4.27,9.48,1.85,14.16-2.19,4.24-6.03,7.02-11.75,6.5ZM27.02,7.83c-2.85.85-4.1,4.04-2.88,6.78.8,1.79,3.71,3.12,5.86,2.27,2.38-.94,3.7-3.37,2.88-5.96-.66-2.08-3.31-3.84-5.85-3.08ZM13.51,20.48c-2.51,1.07-3.41,4.18-2.52,6.04,1.23,2.58,4.14,3.29,5.95,2.58,2.91-1.14,3.52-4.13,2.59-6.26-.99-2.27-3.62-3.39-6.03-2.36Z"/>
</svg>