<?xml version="1.0" encoding="UTF-8"?>
<svg id="Layer_1" data-name="Layer 1" xmlns="http://www.w3.org/2000/svg" width="44" height="37" viewBox="0 0 44 37">
  <defs>
    <style>
      .cls-1 {
        fill: #ec008c;
      }
    </style>
  </defs>
  <polygon class="cls-1" points="4.95 14.73 3.56 21.97 18.23 22.33 18.22 35.37 26.11 36.84 25.64 22.15 40.44 22.02 40.28 14.74 4.95 14.73"/>
  <polygon class="cls-1" points="12.15 .1 3.9 .14 3.87 8.38 13.79 8.34 12.15 .1"/>
  <polygon class="cls-1" points="31.88 28.59 31.83 36.72 40.36 36.78 40.27 28.37 31.88 28.59"/>
  <polygon class="cls-1" points="3.74 28.46 3.68 36.9 11.09 36.35 12.14 28.3 3.74 28.46"/>
  <polygon class="cls-1" points="40.08 8.26 40.15 .2 31.76 .14 31.76 8.32 40.08 8.26"/>
</svg>