<?xml version="1.0" encoding="UTF-8"?>
<svg id="Layer_1" data-name="Layer 1" xmlns="http://www.w3.org/2000/svg" width="44" height="37" viewBox="0 0 44 37">
  <defs>
    <style>
      .cls-1 {
        fill: #ec008c;
      }
    </style>
  </defs>
  <polygon class="cls-1" points="39.11 28.47 22.49 28.51 20.77 35.13 40.7 35.1 39.11 28.47"/>
  <path class="cls-1" d="M32.51,25.51l3.82.6c-4-6.12-7.43-10.74-10.46-14.15L30.72,1.91l-5.6-.04-3.01,6.25c-5.58-5-9.73-5.42-13.85-3.86-3.15,1.19-4.95,3.99-4.95,7.7v13.76s7.29,1.57,7.29,1.57v-15.33c0-.53.1-.79.13-.83.69-.55,3.49-1.65,9,1.94l-10.6,21.99,5.65-.1,9.04-18.74c2.5,2.2,5.39,5.2,8.7,9.28Z"/>
</svg>