<?xml version="1.0" encoding="UTF-8"?>
<svg id="Layer_1" data-name="Layer 1" xmlns="http://www.w3.org/2000/svg" width="44" height="37" viewBox="0 0 44 37">
  <defs>
    <style>
      .cls-1 {
        fill: #ec008c;
      }
    </style>
  </defs>
  <path class="cls-1" d="M14.54,14.1c-2.21,4.08-1.14,8.56,2.07,11.1,3.44,2.73,8.09,2.47,11.24-.46,3.15-2.93,3.46-7.84,1.15-11.15-2.63-3.76-7.29-4.63-11.3-2.67l-7.22-6.87C16.56-.7,24.89-1.07,30.93,2.41c7.25,4.18,10.5,11.77,9.23,19.23-1.33,7.79-7.24,13.84-15.12,15.03-7.75,1.18-15.25-2.24-19.11-9.05-3.52-6.22-3.15-14.4,1.48-20.51l7.13,6.98Z"/>
</svg>