<?xml version="1.0" encoding="UTF-8"?>
<svg id="Layer_1" data-name="Layer 1" xmlns="http://www.w3.org/2000/svg" width="16" height="16" viewBox="0 0 16 16">
  <defs>
    <style>
      .cls-1 {
        fill: #d92b8d;
      }
    </style>
  </defs>
  <rect class="cls-1" x="3" y="7" width="5" height="2"/>
  <rect class="cls-1" x="1" width="1" height="16"/>
  <rect class="cls-1" x="2" y="2" width="2" height="2"/>
  <rect class="cls-1" x="6" y="2" width="2" height="2"/>
  <rect class="cls-1" x="10" y="2" width="2" height="2"/>
  <rect class="cls-1" x="4" y="4" width="2" height="2"/>
  <rect class="cls-1" x="8" y="4" width="2" height="2"/>
  <rect class="cls-1" x="12" y="4" width="2" height="2"/>
  <rect class="cls-1" x="4" y="10" width="2" height="2"/>
  <rect class="cls-1" x="8" y="10" width="2" height="2"/>
  <rect class="cls-1" x="12" y="10" width="2" height="2"/>
  <rect class="cls-1" x="2" y="12" width="2" height="2"/>
  <rect class="cls-1" x="6" y="12" width="2" height="2"/>
  <rect class="cls-1" x="10" y="12" width="2" height="2"/>
  <rect class="cls-1" x="4" y="14" width="2" height="2"/>
  <rect class="cls-1" x="8" y="14" width="2" height="2"/>
  <rect class="cls-1" x="12" y="14" width="2" height="2"/>
</svg>