<?xml version="1.0" encoding="UTF-8"?>
<svg id="Layer_1" data-name="Layer 1" xmlns="http://www.w3.org/2000/svg" width="44" height="37" viewBox="0 0 44 37">
  <defs>
    <style>
      .cls-1 {
        fill: #ec008c;
      }
    </style>
  </defs>
  <path class="cls-1" d="M23.59,20.35c3.35-1,5.16-3.95,4.81-7.01-.38-3.28-2.99-5.62-6.23-5.74s-6.02,2.33-6.55,5.32c-.6,3.4,1.41,6.35,4.59,7.44l.19,7.5c-5.77-.71-10.4-4.95-11.76-10.01-1.64-6.08.68-11.86,5.33-15.15s11.22-3.51,16.05.04c4.75,3.5,6.93,9.31,5.35,14.99-1.44,5.18-5.99,9.34-11.71,10.13l-.08-7.51Z"/>
  <polygon class="cls-1" points="16.84 36.88 8.57 36.9 8.57 29.36 17.68 29.38 16.84 36.88"/>
  <polygon class="cls-1" points="35.25 36.86 26.86 36.89 28.29 29.36 35.19 29.34 35.25 36.86"/>
</svg>