<?xml version="1.0" encoding="UTF-8"?>
<svg id="Layer_1" data-name="Layer 1" xmlns="http://www.w3.org/2000/svg" width="44" height="37" viewBox="0 0 44 37">
  <defs>
    <style>
      .cls-1 {
        fill: #ec008c;
      }
    </style>
  </defs>
  <path class="cls-1" d="M33.29,22.99c1.32-3.45.25-7.06-2.42-9.22-2.59-2.1-6.39-2.47-9.44-.4l-5.69-5.68L25.81-2.34l1.2,7.69c5.23.68,9.54,3.64,11.88,8.2,2.33,4.56,1.86,9.96-.51,13.81-2.92,4.74-7.73,7.38-13.03,7.08-7.4-.42-13.36-6.01-13.94-13.48l-7.83-1.1,10.01-10,5.69,5.7c-2.6,3.99-1.34,9.07,2.74,11.37,4.05,2.28,9.45.77,11.26-3.94Z"/>
</svg>