<?xml version="1.0" encoding="UTF-8"?>
<svg id="Layer_1" data-name="Layer 1" xmlns="http://www.w3.org/2000/svg" width="44" height="37" viewBox="0 0 44 37">
  <defs>
    <style>
      .cls-1 {
        fill: #ec008c;
      }
    </style>
  </defs>
  <path class="cls-1" d="M29.63,14.51c2.9-.62,5.34.96,5.93,3.31.69,2.73-.79,5.33-3.39,5.95s-5.11-.6-5.84-3.09c-.74-2.52.34-5.54,3.31-6.18Z"/>
  <path class="cls-1" d="M21.25,27.41c2.84-.49,4.98,1.62,5.4,3.83.53,2.78-1.48,5.11-3.74,5.56-2.81.56-5.11-1.16-5.63-3.51-.6-2.73.98-5.36,3.97-5.88Z"/>
  <path class="cls-1" d="M20.21.13c3-.3,5.05,1.5,5.48,3.91.47,2.66-1.54,5.07-3.7,5.49-2.9.56-5.15-1.25-5.66-3.51-.64-2.83.95-5.59,3.88-5.88Z"/>
  <path class="cls-1" d="M11.8,14.97c2.9-.62,5.34.96,5.93,3.31.69,2.73-.79,5.33-3.39,5.95s-5.11-.6-5.84-3.09c-.74-2.52.34-5.54,3.31-6.18Z"/>
</svg>