<?xml version="1.0" encoding="UTF-8"?>
<svg id="Layer_1" data-name="Layer 1" xmlns="http://www.w3.org/2000/svg" width="44" height="37" viewBox="0 0 44 37">
  <defs>
    <style>
      .cls-1 {
        fill: #ec008c;
      }
    </style>
  </defs>
  <path class="cls-1" d="M25.69,35.8l-7.64,1.72-.06-18.88c-.67-.52-2.98-.78-3.78-.44-.93.4-2.09,2.19-2.08,3.26l.05,7.77-8,2.01c.03-3.65-.18-7.94.34-11.66.93-6.62,6.61-10.11,13.36-9.12l.18-9.76,7.73,2.12.07,15.92c1.19,1.16,5.44.63,5.78-1.04.78-3.85.52-7.34.39-11.33l7.84-.04-.12,9.72c-.09,6.99-6.07,12.03-13.72,10.73l-.32,9.02Z"/>
</svg>