<?xml version="1.0" encoding="UTF-8"?>
<svg id="Layer_1" data-name="Layer 1" xmlns="http://www.w3.org/2000/svg" width="44" height="37" viewBox="0 0 44 37">
  <defs>
    <style>
      .cls-1 {
        fill: #ec008c;
      }
    </style>
  </defs>
  <path class="cls-1" d="M18.74,36.57c-11.75-2.16-12.89-11.75-13.37-11.86l2.37-7.06,3.07,7.08c1.99,3.03,4.39,5.28,8.49,6.68V15.11c-4.28-1.69-5.3-5.39-4.57-8.98S18.55.09,22.09.1c3.83,0,6.71,2.55,7.48,5.95.86,3.82-.48,7.35-4.45,9.03l.02,16.41c3.96-1.25,6.91-3.57,8.97-6.73l2.93-7.09s1.89,7.95,1.54,8.77c-3.24,7.68-11.34,11.71-19.84,10.14ZM21.19,5.08c-1.87.9-2.28,3.31-1.65,4.36.76,1.27,2.73,1.89,3.78,1.42,1.58-.7,2.28-2.73,1.77-4.23-.35-1.01-2.59-2.18-3.9-1.55Z"/>
</svg>