<?xml version="1.0" encoding="UTF-8"?>
<svg id="Layer_1" data-name="Layer 1" xmlns="http://www.w3.org/2000/svg" width="44" height="37" viewBox="0 0 44 37">
  <defs>
    <style>
      .cls-1 {
        fill: #ec008c;
      }
    </style>
  </defs>
  <path class="cls-1" d="M16.86,11.36c-4.71-2.84-11.22-1.05-12.97,3.82-1.65,4.6.27,9.32,4.53,11.14,3.71,1.58,8.41.8,10.88-3.28,2.11-3.49,2.11-8.93-2.43-11.68ZM13.98,15.76c1.09,1.04,1.5,3.6.74,4.77-.76,1.17-3.28,1.69-4.39,1.07-1.43-.8-2.29-3.24-1.43-4.71,1.12-1.93,3.87-2.29,5.09-1.13Z"/>
  <polygon class="cls-1" points="26.99 1.02 26.96 36.72 22.02 36.76 21.97 .24 26.99 1.02"/>
  <polygon class="cls-1" points="31.45 12.11 40.64 13.85 40.7 23.14 31.41 23.05 31.45 12.11"/>
</svg>