<?xml version="1.0" encoding="UTF-8"?>
<svg id="Layer_1" data-name="Layer 1" xmlns="http://www.w3.org/2000/svg" width="44" height="37" viewBox="0 0 44 37">
  <defs>
    <style>
      .cls-1 {
        fill: #ec008c;
      }
    </style>
  </defs>
  <path class="cls-1" d="M14.65,25.82c4.24,4.24,10.33,8.52,16.65,5.07,2.87-1.56,5.98-4.91,8.99-7.82l-4.98-5.09-8.21,7.37c-5.6-1.83-10.33-5.62-11.69-11.61,1.19-2.66,4.23-5.86,6.97-8.55L17.25.1l-8.49,9.46c-1.98,6.78,1.08,11.46,5.89,16.26Z"/>
  <path class="cls-1" d="M12.2,36.32c2.78-1.33,2.99-5.38,1.4-7.82-1.1-1.7-4.54-2.69-7.35-1.83-2.62.81-3.11,5.59-1.93,7.69,1.29,2.29,5.19,3.24,7.89,1.95Z"/>
</svg>