<?xml version="1.0" encoding="UTF-8"?>
<svg id="Layer_1" data-name="Layer 1" xmlns="http://www.w3.org/2000/svg" width="44" height="37" viewBox="0 0 44 37">
  <defs>
    <style>
      .cls-1 {
        fill: #ec008c;
      }
    </style>
  </defs>
  <path class="cls-1" d="M25.7,18.41c0-6.66-1.42-14.81-9.1-17.07C13.12.31,8.05.5,3.39.42l-.09,7.91,12.24.66c2.96,5.84,3.7,12.53.06,18.31-3.02,1.15-7.92,1.28-12.19,1.24l.03,8.05,14.11-.77c6.88-3.77,8.15-9.85,8.15-17.41Z"/>
  <path class="cls-1" d="M35.88,12.08c-3.23-1.14-6.57,1.88-7.24,5.04-.47,2.2,1.45,5.68,4.34,7.21,2.69,1.42,6.84-1.95,7.57-4.53.79-2.81-1.54-6.63-4.67-7.73Z"/>
</svg>