<?xml version="1.0" encoding="UTF-8"?>
<svg id="Layer_1" data-name="Layer 1" xmlns="http://www.w3.org/2000/svg" width="44" height="37" viewBox="0 0 44 37">
  <defs>
    <style>
      .cls-1 {
        fill: #ec008c;
      }
    </style>
  </defs>
  <path class="cls-1" d="M24.7,23.04c2.47,4.07,7.16,4.86,10.88,3.28,4.26-1.81,6.19-6.54,4.53-11.14-1.75-4.87-8.27-6.66-12.97-3.82-4.54,2.74-4.55,8.19-2.43,11.68ZM35.11,16.89c.85,1.47,0,3.9-1.43,4.71-1.11.62-3.63.1-4.39-1.07-.76-1.17-.36-3.73.74-4.77,1.22-1.16,3.96-.8,5.09,1.13Z"/>
  <polygon class="cls-1" points="17.01 1.02 17.04 36.72 21.98 36.76 22.03 .24 17.01 1.02"/>
  <polygon class="cls-1" points="12.55 12.11 3.36 13.85 3.3 23.14 12.59 23.05 12.55 12.11"/>
</svg>