<?xml version="1.0" encoding="UTF-8"?>
<svg id="Layer_1" data-name="Layer 1" xmlns="http://www.w3.org/2000/svg" width="44" height="37" viewBox="0 0 44 37">
  <defs>
    <style>
      .cls-1 {
        fill: #ec008c;
      }
    </style>
  </defs>
  <path class="cls-1" d="M15.08,29.78c3.45,1.32,7.05.25,9.22-2.42s2.47-6.39.4-9.43l5.68-5.69,10.02,10.07-7.69,1.2c-.68,5.22-3.64,9.54-8.2,11.87-4.55,2.33-9.95,1.86-13.8-.51-4.73-2.92-7.37-7.72-7.08-13.02.42-7.39,6.01-13.36,13.47-13.93L18.2.1l10,10.01-5.7,5.69c-3.99-2.59-9.07-1.34-11.36,2.74-2.27,4.05-.77,9.45,3.94,11.25Z"/>
</svg>