<?xml version="1.0" encoding="UTF-8"?>
<svg id="Layer_1" data-name="Layer 1" xmlns="http://www.w3.org/2000/svg" width="44" height="37" viewBox="0 0 44 37">
  <defs>
    <style>
      .cls-1 {
        fill: #ec008c;
      }
    </style>
  </defs>
  <path class="cls-1" d="M25.09,28.93c-.54,0-.8-.11-.84-.13-.22-.28-.53-.89-.6-1.87,9.69.13,13.55-2.69,15.62-7.25,1.41-3.12.69-6.44-1.97-9.11l-1.42-1.42c.94-.82,1.95-1.67,3.03-2.55l.61-3.89c-2.19,1.43-4.18,2.78-6,4.08L27.38.65l-6.38,4.12,6.52,6.52c-5.35,4.35-8.42,7.9-9.92,11.05-3.05.09-6.72-.04-11.12-.5l-3.18,2.32c5.08,1.06,9.42,1.8,13.17,2.24-.13,1.69.18,3.3.78,4.9,1.21,3.21,4.06,5.05,7.84,5.05h14.02l1.59-7.42h-15.61ZM30.51,14.28l1.53,1.53c.38.38.49.64.5.69-.09.87-1.27,3.56-7.41,4.98,1.03-1.97,2.72-4.35,5.38-7.19Z"/>
</svg>